SplineFontDB: 3.2
FontName: SignPinyin-Left
FullName: SignPinyin-Left
FamilyName: SignPinyin
Weight: Book
Copyright: Copyright (c) 2022 by ErSanSan233 (with SHA-256 hash: f3047b1cb1fff295615fae222912d1074bdffc4fd9a47a68f2bc12e602823a07), and Zhang 3-er (with SHA-256 hash: 683934d011609f6a0da62aa096b040865c5c6e8b0a39be0eac9a0edf5167348b). ALL RIGHTS RESERVED.
Version: 0.5.1
ItalicAngle: 0
UnderlinePosition: -119
UnderlineWidth: 35
Ascent: 819
Descent: 205
InvalidEm: 0
sfntRevision: 0x00010000
LayerCount: 2
Layer: 0 1 "Back" 1
Layer: 1 1 "Fore" 0
XUID: [1021 520 2022644484 3540950]
StyleMap: 0x0040
FSType: 0
OS2Version: 2
OS2_WeightWidthSlopeOnly: 0
OS2_UseTypoMetrics: 0
CreationTime: 1654776749
ModificationTime: 1743598676
PfmFamily: 81
TTFWeight: 400
TTFWidth: 5
LineGap: 61
VLineGap: 0
Panose: 0 0 0 0 0 0 0 0 0 0
OS2TypoAscent: 696
OS2TypoAOffset: 0
OS2TypoDescent: -451
OS2TypoDOffset: 0
OS2TypoLinegap: 61
OS2WinAscent: 696
OS2WinAOffset: 0
OS2WinDescent: 451
OS2WinDOffset: 0
HheadAscent: 696
HheadAOffset: 0
HheadDescent: -451
HheadDOffset: 0
OS2SubXSize: 650
OS2SubYSize: 700
OS2SubXOff: 47
OS2SubYOff: 140
OS2SupXSize: 650
OS2SupYSize: 700
OS2SupXOff: -164
OS2SupYOff: 480
OS2StrikeYSize: 49
OS2StrikeYPos: 258
OS2CapHeight: 696
OS2XHeight: 389
OS2Vendor: 'Bird'
OS2CodePages: 202e00fb.cdd50000
OS2UnicodeRanges: 00000001.00000000.00000000.00000000
Lookup: 4 0 0 "Ligature Substitution lookup 0" { "Ligature Substitution lookup 0 subtable"  } []
Lookup: 4 0 0 "Ligature Substitution lookup 1" { "Ligature Substitution lookup 1 subtable"  } []
Lookup: 4 0 0 "Ligature Substitution lookup 2" { "Ligature Substitution lookup 2 subtable"  } []
Lookup: 4 0 0 "Ligature Substitution lookup 3" { "Ligature Substitution lookup 3 subtable"  } []
Lookup: 4 0 0 "Ligature Substitution lookup 4" { "Ligature Substitution lookup 4 subtable"  } []
Lookup: 4 0 0 "Ligature Substitution lookup 5" { "Ligature Substitution lookup 5 subtable"  } []

StartChar: .notdef
Encoding: 1114112 -1 0
Width: 543
GlyphClass: 1
Flags: W
LayerCount: 2
Fore
SplineSet
51 102 m 1,0,1
 128 102 128 102 358 102 c 1,2,3
 358 220 358 220 358 575 c 1,4,5
 282 575 282 575 51 575 c 1,6,7
 51 456 51 456 51 102 c 1,0,1
0 626 m 1,8,9
 102 626 102 626 410 626 c 1,10,11
 410 482 410 482 410 51 c 1,12,13
 307 51 307 51 0 51 c 1,14,15
 0 195 0 195 0 626 c 1,8,9
EndSplineSet
EndChar

StartChar: quotesingle
Encoding: 39 39 4
Width: 123
GlyphClass: 1
Flags: W
LayerCount: 2
Fore
SplineSet
61 676 m 0,0,1
 92 676 92 676 97 655 c 0,2,3
 102 635 102 635 102 635 c 257,4,5
 102 635 102 635 97 614 c 0,6,7
 92 594 92 594 61 594 c 0,8,9
 31 594 31 594 26 614 c 0,10,11
 20 635 20 635 20 635 c 257,12,13
 20 635 20 635 26 655 c 0,14,15
 31 676 31 676 61 676 c 0,0,1
EndSplineSet
EndChar

StartChar: period
Encoding: 46 46 5
Width: 123
GlyphClass: 1
Flags: W
LayerCount: 2
Fore
SplineSet
61 82 m 0,0,1
 92 82 92 82 97 61 c 0,2,3
 102 41 102 41 102 41 c 257,4,5
 102 41 102 41 97 20 c 0,6,7
 92 0 92 0 61 0 c 0,8,9
 31 0 31 0 26 20 c 0,10,11
 20 41 20 41 20 41 c 257,12,13
 20 41 20 41 26 61 c 0,14,15
 31 82 31 82 61 82 c 0,0,1
EndSplineSet
EndChar

StartChar: slash
Encoding: 47 47 6
Width: 574
GlyphClass: 1
Flags: W
LayerCount: 2
Fore
SplineSet
82 0 m 1,0,1
 61 0 61 0 20 0 c 1,2,3
 177 225 177 225 492 676 c 1,4,5
 512 676 512 676 553 676 c 1,6,7
 396 451 396 451 82 0 c 1,0,1
EndSplineSet
EndChar

StartChar: zero
Encoding: 48 48 7
Width: 451
GlyphClass: 1
Flags: W
LayerCount: 2
Fore
SplineSet
20 266 m 2,0,1
 20 266 20 266 20 289 c 256,2,3
 20 312 20 312 20 337 c 0,4,5
 20 357 20 357 20 373 c 256,6,7
 20 389 20 389 20 389 c 2,8,9
 20 399 20 399 24 405 c 0,10,11
 28 412 28 412 34 416 c 0,12,13
 48 427 48 427 65 428 c 0,14,15
 82 430 82 430 82 430 c 1,16,17
 82 476 82 476 110 504 c 256,18,19
 138 532 138 532 184 532 c 2,20,21
 184 532 184 532 205 532 c 0,22,23
 227 532 227 532 254 532 c 0,24,25
 287 532 287 532 318 532 c 0,26,27
 348 532 348 532 348 532 c 2,28,29
 394 532 394 532 412 507 c 0,30,31
 430 481 430 481 430 451 c 0,32,33
 430 440 430 440 430 423 c 0,34,35
 430 407 430 407 430 388 c 0,36,37
 430 352 430 352 430 316 c 0,38,39
 430 281 430 281 430 266 c 2,40,41
 430 266 430 266 425 232 c 0,42,43
 420 197 420 197 413 153 c 0,44,45
 404 98 404 98 397 49 c 0,46,47
 389 0 389 0 389 0 c 2,48,49
 389 -20 389 -20 389 -61 c 1,50,51
 369 -61 369 -61 320 -61 c 256,52,53
 271 -61 271 -61 216 -61 c 0,54,55
 186 -61 186 -61 157 -61 c 0,56,57
 127 -61 127 -61 102 -61 c 1,58,59
 102 -41 102 -41 102 0 c 1,60,61
 102 0 102 0 82 44 c 256,62,63
 62 88 62 88 44 146 c 0,64,65
 34 177 34 177 27 208 c 256,66,67
 20 239 20 239 20 266 c 2,0,1
246 451 m 257,68,69
 246 451 246 451 225 451 c 0,70,71
 205 451 205 451 205 451 c 257,72,73
 205 451 205 451 184 445 c 0,74,75
 164 440 164 440 164 410 c 0,76,77
 164 394 164 394 151 392 c 0,78,79
 138 389 138 389 123 389 c 1,80,81
 123 358 123 358 123 328 c 0,82,83
 123 297 123 297 123 266 c 0,84,85
 123 220 123 220 143 212 c 0,86,87
 164 205 164 205 164 205 c 1,88,89
 179 205 179 205 212 205 c 0,90,91
 246 205 246 205 246 205 c 257,92,93
 246 205 246 205 238 194 c 0,94,95
 230 184 230 184 220 170 c 0,96,97
 207 153 207 153 196 138 c 0,98,99
 184 123 184 123 184 123 c 257,100,101
 184 123 184 123 187 113 c 0,102,103
 189 102 189 102 205 102 c 1,104,105
 205 102 205 102 216 118 c 0,106,107
 228 133 228 133 240 149 c 0,108,109
 250 163 250 163 258 174 c 0,110,111
 266 184 266 184 266 184 c 257,112,113
 266 184 266 184 276 200 c 0,114,115
 287 215 287 215 287 246 c 2,116,117
 287 246 287 246 287 256 c 256,118,119
 287 266 287 266 287 266 c 257,120,121
 287 266 287 266 287 293 c 0,122,123
 287 319 287 319 287 349 c 0,124,125
 287 373 287 373 287 391 c 0,126,127
 287 410 287 410 287 410 c 2,128,129
 287 440 287 440 266 445 c 0,130,131
 246 451 246 451 246 451 c 257,68,69
EndSplineSet
EndChar

StartChar: one
Encoding: 49 49 8
Width: 451
GlyphClass: 1
Flags: W
LayerCount: 2
Fore
SplineSet
246 307 m 2,0,1
 246 323 246 323 236 323 c 0,2,3
 225 323 225 323 225 307 c 0,4,5
 225 292 225 292 225 289 c 0,6,7
 225 287 225 287 225 287 c 1,8,9
 198 287 198 287 143 287 c 1,10,11
 143 287 143 287 143 297 c 256,12,13
 143 307 143 307 143 307 c 257,14,15
 143 307 143 307 143 348 c 256,16,17
 143 389 143 389 143 389 c 2,18,19
 143 420 143 420 184 420 c 256,20,21
 225 420 225 420 225 389 c 0,22,23
 225 374 225 374 235 374 c 0,24,25
 246 374 246 374 246 389 c 0,26,27
 246 420 246 420 287 420 c 256,28,29
 328 420 328 420 328 389 c 0,30,31
 328 374 328 374 338 374 c 256,32,33
 348 374 348 374 348 389 c 256,34,35
 348 404 348 404 389 402 c 0,36,37
 430 399 430 399 430 369 c 0,38,39
 430 343 430 343 430 332 c 0,40,41
 430 322 430 322 430 266 c 0,42,43
 430 236 430 236 389 236 c 256,44,45
 348 236 348 236 348 266 c 0,46,47
 348 276 348 276 348 292 c 0,48,49
 348 307 348 307 348 307 c 2,50,51
 348 323 348 323 338 323 c 256,52,53
 328 323 328 323 328 307 c 2,54,55
 328 307 328 307 328 284 c 256,56,57
 328 261 328 261 328 246 c 0,58,59
 328 232 328 232 317 229 c 0,60,61
 307 225 307 225 307 225 c 1,62,63
 307 256 307 256 284 271 c 0,64,65
 261 287 261 287 246 287 c 1,66,67
 246 287 246 287 246 297 c 256,68,69
 246 307 246 307 246 307 c 2,0,1
389 -61 m 1,70,71
 294 -61 294 -61 102 -61 c 1,72,73
 102 -41 102 -41 102 0 c 0,74,75
 102 9 102 9 85 23 c 0,76,77
 67 38 67 38 49 55 c 0,78,79
 37 66 37 66 29 78 c 0,80,81
 20 90 20 90 20 102 c 0,82,83
 20 118 20 118 20 156 c 0,84,85
 20 195 20 195 20 225 c 0,86,87
 20 241 20 241 23 253 c 0,88,89
 26 266 26 266 41 266 c 0,90,91
 109 266 109 266 246 266 c 0,92,93
 257 266 257 266 266 263 c 0,94,95
 275 259 275 259 280 253 c 0,96,97
 298 236 298 236 289 210 c 256,98,99
 280 184 280 184 246 184 c 0,100,101
 245 184 245 184 223 184 c 0,102,103
 200 184 200 184 184 184 c 0,104,105
 154 184 154 184 138 177 c 0,106,107
 123 169 123 169 123 123 c 0,108,109
 123 108 123 108 133 108 c 256,110,111
 143 108 143 108 143 123 c 0,112,113
 143 154 143 154 148 159 c 0,114,115
 154 164 154 164 184 164 c 0,116,117
 205 164 205 164 246 164 c 0,118,119
 266 164 266 164 280 179 c 0,120,121
 295 194 295 194 311 208 c 0,122,123
 319 215 319 215 328 220 c 256,124,125
 337 225 337 225 348 225 c 2,126,127
 348 225 348 225 379 225 c 256,128,129
 410 225 410 225 410 225 c 257,130,131
 410 225 410 225 420 229 c 256,132,133
 430 233 430 233 430 246 c 1,134,135
 430 246 430 246 430 227 c 256,136,137
 430 208 430 208 430 183 c 0,138,139
 430 152 430 152 430 121 c 256,140,141
 430 90 430 90 430 82 c 0,142,143
 430 67 430 67 410 41 c 0,144,145
 389 15 389 15 389 0 c 256,146,147
 389 -15 389 -15 389 -31 c 256,148,149
 389 -47 389 -47 389 -61 c 1,70,71
123 287 m 1,150,151
 96 287 96 287 41 287 c 1,152,153
 41 287 41 287 41 292 c 256,154,155
 41 297 41 297 41 328 c 0,156,157
 41 341 41 341 41 360 c 256,158,159
 41 379 41 379 41 406 c 0,160,161
 41 445 41 445 41 501 c 256,162,163
 41 557 41 557 41 635 c 0,164,165
 41 666 41 666 82 666 c 256,166,167
 123 666 123 666 123 635 c 2,168,169
 123 635 123 635 123 590 c 256,170,171
 123 545 123 545 123 487 c 0,172,173
 123 441 123 441 123 395 c 256,174,175
 123 349 123 349 123 320 c 0,176,177
 123 305 123 305 123 296 c 256,178,179
 123 287 123 287 123 287 c 1,150,151
EndSplineSet
EndChar

StartChar: two
Encoding: 50 50 9
Width: 492
GlyphClass: 1
Flags: W
LayerCount: 2
Fore
SplineSet
287 389 m 2,0,1
 287 420 287 420 328 420 c 256,2,3
 369 420 369 420 369 389 c 0,4,5
 369 374 369 374 379 374 c 256,6,7
 389 374 389 374 389 389 c 256,8,9
 389 404 389 404 430 402 c 0,10,11
 471 399 471 399 471 369 c 0,12,13
 471 343 471 343 471 332 c 0,14,15
 471 322 471 322 471 266 c 0,16,17
 471 236 471 236 430 236 c 256,18,19
 389 236 389 236 389 266 c 2,20,21
 389 266 389 266 389 287 c 0,22,23
 389 307 389 307 389 307 c 2,24,25
 389 323 389 323 379 323 c 256,26,27
 369 323 369 323 369 307 c 2,28,29
 369 307 369 307 369 284 c 256,30,31
 369 261 369 261 369 246 c 0,32,33
 369 232 369 232 358 229 c 0,34,35
 348 225 348 225 348 225 c 1,36,37
 348 256 348 256 325 271 c 0,38,39
 302 287 302 287 287 287 c 1,40,41
 287 287 287 287 287 300 c 256,42,43
 287 313 287 313 287 330 c 0,44,45
 287 351 287 351 287 370 c 256,46,47
 287 389 287 389 287 389 c 2,0,1
430 -61 m 1,48,49
 335 -61 335 -61 143 -61 c 1,50,51
 143 -41 143 -41 143 0 c 0,52,53
 143 9 143 9 126 23 c 0,54,55
 108 38 108 38 90 55 c 0,56,57
 78 66 78 66 70 78 c 0,58,59
 61 90 61 90 61 102 c 0,60,61
 61 118 61 118 61 156 c 0,62,63
 61 195 61 195 61 225 c 0,64,65
 61 241 61 241 64 253 c 0,66,67
 67 266 67 266 82 266 c 0,68,69
 150 266 150 266 287 266 c 0,70,71
 298 266 298 266 307 263 c 0,72,73
 316 259 316 259 321 253 c 0,74,75
 339 236 339 236 330 210 c 256,76,77
 321 184 321 184 287 184 c 0,78,79
 286 184 286 184 263 184 c 0,80,81
 241 184 241 184 225 184 c 0,82,83
 195 184 195 184 179 177 c 0,84,85
 164 169 164 169 164 123 c 0,86,87
 164 108 164 108 174 108 c 256,88,89
 184 108 184 108 184 123 c 0,90,91
 184 154 184 154 189 159 c 0,92,93
 195 164 195 164 225 164 c 0,94,95
 246 164 246 164 287 164 c 0,96,97
 298 164 298 164 307 169 c 256,98,99
 316 174 316 174 324 181 c 0,100,101
 340 195 340 195 354 210 c 0,102,103
 369 225 369 225 389 225 c 0,104,105
 412 225 412 225 424 225 c 0,106,107
 435 225 435 225 451 225 c 1,108,109
 451 225 451 225 461 228 c 0,110,111
 471 230 471 230 471 246 c 1,112,113
 471 200 471 200 471 148 c 0,114,115
 471 97 471 97 471 82 c 256,116,117
 471 67 471 67 451 41 c 0,118,119
 430 15 430 15 430 0 c 256,120,121
 430 -15 430 -15 430 -31 c 256,122,123
 430 -47 430 -47 430 -61 c 1,48,49
287 430 m 1,124,125
 271 430 271 430 269 410 c 0,126,127
 266 389 266 389 266 389 c 257,128,129
 266 389 266 389 266 376 c 256,130,131
 266 363 266 363 266 346 c 0,132,133
 266 325 266 325 266 306 c 256,134,135
 266 287 266 287 266 287 c 1,136,137
 205 287 205 287 82 287 c 1,138,139
 82 287 82 287 74 329 c 256,140,141
 66 371 66 371 56 426 c 0,142,143
 47 470 47 470 39 513 c 256,144,145
 31 556 31 556 26 583 c 0,146,147
 24 597 24 597 22 606 c 0,148,149
 20 614 20 614 20 614 c 1,150,151
 20 645 20 645 61 648 c 0,152,153
 102 650 102 650 102 635 c 2,154,155
 102 635 102 635 110 603 c 0,156,157
 118 572 118 572 129 530 c 0,158,159
 141 480 141 480 152 435 c 0,160,161
 164 389 164 389 164 389 c 2,162,163
 164 374 164 374 174 374 c 256,164,165
 184 374 184 374 184 389 c 2,166,167
 184 389 184 389 192 424 c 0,168,169
 200 458 200 458 210 502 c 0,170,171
 223 557 223 557 234 606 c 0,172,173
 246 655 246 655 246 655 c 2,174,175
 246 669 246 669 276 669 c 0,176,177
 281 669 281 669 287 668 c 0,178,179
 328 666 328 666 328 635 c 1,180,181
 328 635 328 635 322 609 c 0,182,183
 317 582 317 582 310 548 c 0,184,185
 302 506 302 506 294 468 c 0,186,187
 287 430 287 430 287 430 c 1,124,125
EndSplineSet
EndChar

StartChar: three
Encoding: 51 51 10
Width: 492
GlyphClass: 1
Flags: W
LayerCount: 2
Fore
SplineSet
389 389 m 2,0,1
 389 404 389 404 430 402 c 0,2,3
 471 399 471 399 471 369 c 0,4,5
 471 343 471 343 471 332 c 0,6,7
 471 322 471 322 471 266 c 0,8,9
 471 236 471 236 430 236 c 256,10,11
 389 236 389 236 389 266 c 0,12,13
 389 282 389 282 389 335 c 0,14,15
 389 389 389 389 389 389 c 2,0,1
430 -61 m 1,16,17
 335 -61 335 -61 143 -61 c 1,18,19
 143 -41 143 -41 143 0 c 0,20,21
 143 9 143 9 126 23 c 0,22,23
 108 38 108 38 90 55 c 0,24,25
 78 66 78 66 70 78 c 0,26,27
 61 90 61 90 61 102 c 0,28,29
 61 118 61 118 61 156 c 0,30,31
 61 195 61 195 61 225 c 0,32,33
 61 241 61 241 64 253 c 0,34,35
 67 266 67 266 82 266 c 0,36,37
 150 266 150 266 287 266 c 0,38,39
 298 266 298 266 307 263 c 0,40,41
 316 259 316 259 321 253 c 0,42,43
 339 236 339 236 330 210 c 256,44,45
 321 184 321 184 287 184 c 0,46,47
 286 184 286 184 263 184 c 0,48,49
 241 184 241 184 225 184 c 0,50,51
 195 184 195 184 179 177 c 0,52,53
 164 169 164 169 164 123 c 0,54,55
 164 108 164 108 174 108 c 256,56,57
 184 108 184 108 184 123 c 0,58,59
 184 154 184 154 189 159 c 0,60,61
 195 164 195 164 225 164 c 0,62,63
 246 164 246 164 287 164 c 0,64,65
 309 164 309 164 329 187 c 0,66,67
 348 210 348 210 348 225 c 1,68,69
 355 230 355 230 349 248 c 256,70,71
 343 266 343 266 328 266 c 1,72,73
 343 266 343 266 348 266 c 256,74,75
 353 266 353 266 369 266 c 1,76,77
 369 244 369 244 381 235 c 0,78,79
 394 225 394 225 409 225 c 2,80,81
 409 225 409 225 410 225 c 1,82,83
 410 225 410 225 410 225 c 257,84,85
 410 225 410 225 430 225 c 0,86,87
 451 225 451 225 451 225 c 257,88,89
 451 225 451 225 461 228 c 0,90,91
 471 230 471 230 471 246 c 1,92,93
 471 200 471 200 471 148 c 0,94,95
 471 97 471 97 471 82 c 256,96,97
 471 67 471 67 451 41 c 0,98,99
 430 15 430 15 430 0 c 256,100,101
 430 -15 430 -15 430 -31 c 256,102,103
 430 -47 430 -47 430 -61 c 1,16,17
369 389 m 1,104,105
 369 389 369 389 369 376 c 256,106,107
 369 363 369 363 369 346 c 0,108,109
 369 325 369 325 369 306 c 256,110,111
 369 287 369 287 369 287 c 1,112,113
 273 287 273 287 82 287 c 1,114,115
 82 287 82 287 74 332 c 0,116,117
 66 376 66 376 56 435 c 0,118,119
 47 481 47 481 39 527 c 0,120,121
 31 572 31 572 26 601 c 0,122,123
 23 617 23 617 22 626 c 0,124,125
 20 635 20 635 20 635 c 1,126,127
 20 666 20 666 61 668 c 0,128,129
 102 671 102 671 102 655 c 2,130,131
 102 655 102 655 110 621 c 0,132,133
 118 586 118 586 129 542 c 0,134,135
 141 488 141 488 152 438 c 0,136,137
 164 389 164 389 164 389 c 2,138,139
 164 374 164 374 174 374 c 256,140,141
 184 374 184 374 184 389 c 2,142,143
 184 389 184 389 184 423 c 0,144,145
 184 458 184 458 184 502 c 0,146,147
 184 557 184 557 184 606 c 256,148,149
 184 655 184 655 184 655 c 2,150,151
 184 686 184 686 225 686 c 256,152,153
 266 686 266 686 266 655 c 2,154,155
 266 655 266 655 266 621 c 256,156,157
 266 587 266 587 266 542 c 0,158,159
 266 488 266 488 266 438 c 0,160,161
 266 389 266 389 266 389 c 2,162,163
 266 374 266 374 276 374 c 0,164,165
 287 374 287 374 287 389 c 2,166,167
 287 389 287 389 295 424 c 0,168,169
 303 458 303 458 313 502 c 0,170,171
 325 557 325 557 337 606 c 0,172,173
 348 655 348 655 348 655 c 2,174,175
 348 671 348 671 389 668 c 0,176,177
 430 666 430 666 430 635 c 1,178,179
 430 635 430 635 422 603 c 0,180,181
 414 572 414 572 404 530 c 0,182,183
 391 480 391 480 380 435 c 0,184,185
 368 389 368 389 369 389 c 1,104,105
EndSplineSet
AlternateSubs2: "'aalt' Access All Alternates in Latin lookup 11 subtable" 3old
EndChar

StartChar: four
Encoding: 52 52 11
Width: 512
GlyphClass: 1
Flags: W
LayerCount: 2
Fore
SplineSet
481 635 m 0,0,1
 481 589 481 589 471 468 c 0,2,3
 461 348 461 348 461 102 c 0,4,5
 461 87 461 87 440 51 c 0,6,7
 420 15 420 15 420 0 c 0,8,9
 420 -20 420 -20 420 -61 c 1,10,11
 324 -61 324 -61 133 -61 c 1,12,13
 133 -46 133 -46 133 -31 c 0,14,15
 133 -15 133 -15 133 0 c 0,16,17
 133 9 133 9 115 23 c 0,18,19
 98 38 98 38 80 55 c 0,20,21
 68 66 68 66 60 78 c 0,22,23
 51 90 51 90 51 102 c 0,24,25
 51 119 51 119 51 157 c 256,26,27
 51 195 51 195 51 225 c 0,28,29
 51 241 51 241 54 253 c 0,30,31
 56 266 56 266 72 266 c 0,32,33
 140 266 140 266 276 266 c 0,34,35
 288 266 288 266 297 263 c 0,36,37
 305 259 305 259 311 253 c 0,38,39
 328 236 328 236 320 210 c 0,40,41
 311 184 311 184 276 184 c 2,42,43
 276 184 276 184 246 184 c 0,44,45
 215 184 215 184 215 184 c 2,46,47
 184 184 184 184 169 177 c 0,48,49
 154 169 154 169 154 123 c 0,50,51
 154 108 154 108 164 108 c 256,52,53
 174 108 174 108 174 123 c 0,54,55
 174 154 174 154 179 159 c 256,56,57
 184 164 184 164 215 164 c 2,58,59
 215 164 215 164 245 164 c 0,60,61
 276 164 276 164 276 164 c 257,62,63
 276 164 276 164 276 164 c 257,64,65
 276 164 276 164 276 164 c 1,66,67
 307 164 307 164 323 179 c 0,68,69
 338 195 338 195 338 225 c 0,70,71
 338 241 338 241 335 253 c 0,72,73
 333 266 333 266 317 266 c 1,74,75
 317 266 317 266 340 266 c 0,76,77
 364 266 364 266 379 266 c 256,78,79
 394 266 394 266 394 276 c 0,80,81
 394 287 394 287 379 287 c 0,82,83
 370 287 370 287 328 287 c 256,84,85
 286 287 286 287 235 287 c 0,86,87
 175 287 175 287 122 287 c 0,88,89
 70 287 70 287 72 287 c 1,90,91
 72 305 72 305 67 344 c 0,92,93
 63 382 63 382 57 427 c 0,94,95
 48 495 48 495 39 559 c 0,96,97
 31 618 31 618 31 633 c 0,98,99
 31 634 31 634 31 635 c 0,100,101
 31 666 31 666 72 666 c 256,102,103
 113 666 113 666 113 635 c 1,104,105
 113 635 113 635 120 592 c 0,106,107
 128 550 128 550 136 501 c 0,108,109
 143 461 143 461 148 428 c 0,110,111
 153 396 153 396 154 389 c 0,112,113
 154 374 154 374 164 374 c 256,114,115
 174 374 174 374 174 389 c 0,116,117
 174 399 174 399 169 445 c 0,118,119
 164 492 164 492 159 546 c 0,120,121
 157 575 157 575 155 604 c 0,122,123
 154 632 154 632 154 655 c 0,124,125
 154 686 154 686 195 686 c 256,126,127
 236 686 236 686 236 655 c 0,128,129
 236 647 236 647 238 599 c 0,130,131
 241 551 241 551 245 500 c 0,132,133
 248 459 248 459 251 426 c 256,134,135
 254 393 254 393 256 389 c 0,136,137
 256 374 256 374 266 374 c 256,138,139
 276 374 276 374 276 389 c 2,140,141
 276 389 276 389 276 423 c 0,142,143
 276 458 276 458 276 502 c 0,144,145
 276 557 276 557 276 606 c 256,146,147
 276 655 276 655 276 655 c 2,148,149
 276 686 276 686 317 686 c 256,150,151
 358 686 358 686 358 655 c 0,152,153
 358 645 358 645 358 598 c 0,154,155
 358 550 358 550 358 496 c 0,156,157
 358 466 358 466 358 438 c 0,158,159
 358 411 358 411 358 389 c 0,160,161
 358 374 358 374 369 374 c 0,162,163
 379 374 379 374 379 389 c 1,164,165
 379 382 379 382 382 413 c 0,166,167
 384 443 384 443 388 485 c 0,168,169
 392 537 392 537 396 586 c 0,170,171
 399 635 399 635 399 635 c 2,172,173
 399 666 399 666 440 666 c 256,174,175
 481 666 481 666 481 635 c 0,0,1
EndSplineSet
EndChar

StartChar: five
Encoding: 53 53 12
Width: 676
GlyphClass: 1
Flags: W
LayerCount: 2
Fore
SplineSet
307 0 m 0,0,1
 307 7 307 7 270 35 c 256,2,3
 233 63 233 63 185 95 c 0,4,5
 127 136 127 136 74 170 c 0,6,7
 20 205 20 205 20 205 c 1,8,9
 20 222 20 222 28 244 c 256,10,11
 36 266 36 266 82 266 c 0,12,13
 91 266 91 266 114 253 c 256,14,15
 137 240 137 240 163 226 c 0,16,17
 180 218 180 218 197 211 c 0,18,19
 213 205 213 205 225 205 c 0,20,21
 241 205 241 205 241 212 c 0,22,23
 241 220 241 220 246 225 c 1,24,25
 246 225 246 225 246 246 c 0,26,27
 246 266 246 266 246 266 c 1,28,29
 287 266 287 266 319 266 c 256,30,31
 351 266 351 266 377 266 c 0,32,33
 425 266 425 266 463 266 c 256,34,35
 501 266 501 266 553 266 c 0,36,37
 568 266 568 266 568 276 c 0,38,39
 568 287 568 287 553 287 c 0,40,41
 546 287 546 287 505 287 c 256,42,43
 464 287 464 287 414 287 c 0,44,45
 353 287 353 287 299 287 c 0,46,47
 246 287 246 287 246 287 c 1,48,49
 246 305 246 305 241 344 c 0,50,51
 237 382 237 382 231 427 c 0,52,53
 222 495 222 495 213 559 c 0,54,55
 204 622 204 622 205 635 c 0,56,57
 205 666 205 666 246 666 c 256,58,59
 287 666 287 666 287 635 c 1,60,61
 287 635 287 635 294 592 c 0,62,63
 302 550 302 550 310 501 c 0,64,65
 317 461 317 461 322 428 c 0,66,67
 327 396 327 396 328 389 c 0,68,69
 328 374 328 374 338 374 c 256,70,71
 348 374 348 374 348 389 c 0,72,73
 348 399 348 399 343 445 c 0,74,75
 338 492 338 492 333 546 c 0,76,77
 331 575 331 575 329 604 c 0,78,79
 328 632 328 632 328 655 c 0,80,81
 328 686 328 686 369 686 c 256,82,83
 410 686 410 686 410 655 c 0,84,85
 410 647 410 647 412 599 c 0,86,87
 415 551 415 551 419 500 c 0,88,89
 422 459 422 459 425 426 c 256,90,91
 428 393 428 393 430 389 c 0,92,93
 430 374 430 374 440 374 c 0,94,95
 451 374 451 374 451 389 c 2,96,97
 451 389 451 389 451 423 c 0,98,99
 451 458 451 458 451 502 c 0,100,101
 451 557 451 557 451 606 c 256,102,103
 451 655 451 655 451 655 c 2,104,105
 451 686 451 686 492 686 c 0,106,107
 532 686 532 686 532 655 c 0,108,109
 532 645 532 645 532 598 c 0,110,111
 532 550 532 550 532 496 c 0,112,113
 532 466 532 466 532 438 c 0,114,115
 532 411 532 411 532 389 c 0,116,117
 532 374 532 374 543 374 c 0,118,119
 553 374 553 374 553 389 c 1,120,121
 553 382 553 382 556 413 c 0,122,123
 558 443 558 443 562 485 c 0,124,125
 566 537 566 537 570 586 c 0,126,127
 573 635 573 635 573 635 c 2,128,129
 573 666 573 666 614 666 c 256,130,131
 655 666 655 666 655 635 c 0,132,133
 655 589 655 589 645 468 c 0,134,135
 635 348 635 348 635 102 c 0,136,137
 635 87 635 87 614 51 c 0,138,139
 594 15 594 15 594 0 c 0,140,141
 594 -20 594 -20 594 -61 c 1,142,143
 498 -61 498 -61 307 -61 c 1,144,145
 307 -46 307 -46 307 -31 c 0,146,147
 307 -15 307 -15 307 0 c 0,0,1
EndSplineSet
EndChar

StartChar: six
Encoding: 54 54 13
Width: 717
GlyphClass: 1
Flags: W
LayerCount: 2
Fore
SplineSet
594 -61 m 1,0,1
 498 -61 498 -61 307 -61 c 1,2,3
 307 -41 307 -41 307 0 c 0,4,5
 307 7 307 7 270 35 c 256,6,7
 233 63 233 63 185 95 c 0,8,9
 127 136 127 136 74 170 c 0,10,11
 20 205 20 205 20 205 c 1,12,13
 20 220 20 220 28 243 c 256,14,15
 36 266 36 266 82 266 c 0,16,17
 88 266 88 266 101 260 c 0,18,19
 114 253 114 253 130 245 c 0,20,21
 154 231 154 231 180 218 c 0,22,23
 207 205 207 205 225 205 c 0,24,25
 292 205 292 205 335 205 c 0,26,27
 379 205 379 205 418 205 c 0,28,29
 440 205 440 205 463 205 c 0,30,31
 485 205 485 205 512 205 c 0,32,33
 543 205 543 205 548 225 c 0,34,35
 553 246 553 246 553 246 c 1,36,37
 553 282 553 282 553 328 c 256,38,39
 553 374 553 374 553 389 c 2,40,41
 553 389 553 389 561 418 c 0,42,43
 569 448 569 448 579 485 c 0,44,45
 592 531 592 531 603 573 c 0,46,47
 614 614 614 614 614 614 c 2,48,49
 614 627 614 627 643 627 c 0,50,51
 648 627 648 627 655 627 c 0,52,53
 695 624 695 624 696 594 c 1,54,55
 696 594 696 594 683 553 c 0,56,57
 670 511 670 511 657 461 c 0,58,59
 648 428 648 428 641 397 c 0,60,61
 635 367 635 367 635 348 c 0,62,63
 635 327 635 327 635 299 c 0,64,65
 635 272 635 272 635 243 c 0,66,67
 635 190 635 190 635 147 c 256,68,69
 635 104 635 104 635 102 c 0,70,71
 635 87 635 87 614 51 c 0,72,73
 594 15 594 15 594 0 c 256,74,75
 594 -15 594 -15 594 -31 c 256,76,77
 594 -47 594 -47 594 -61 c 1,0,1
430 389 m 0,78,79
 430 374 430 374 440 374 c 0,80,81
 451 374 451 374 451 389 c 0,82,83
 451 420 451 420 492 420 c 0,84,85
 532 420 532 420 532 389 c 2,86,87
 532 389 532 389 532 368 c 256,88,89
 532 347 532 347 532 321 c 0,90,91
 532 290 532 290 532 263 c 0,92,93
 532 237 532 237 532 246 c 1,94,95
 532 215 532 215 492 215 c 0,96,97
 451 215 451 215 451 246 c 2,98,99
 451 246 451 246 451 276 c 0,100,101
 451 307 451 307 451 307 c 2,102,103
 451 322 451 322 441 323 c 0,104,105
 431 323 431 323 430 309 c 0,106,107
 430 308 430 308 430 308 c 257,108,109
 430 308 430 308 430 307 c 2,110,111
 430 307 430 307 430 276 c 0,112,113
 430 246 430 246 430 246 c 2,114,115
 430 215 430 215 389 215 c 256,116,117
 348 215 348 215 348 246 c 2,118,119
 348 246 348 246 348 276 c 0,120,121
 348 307 348 307 348 307 c 2,122,123
 348 323 348 323 338 323 c 256,124,125
 328 323 328 323 328 307 c 2,126,127
 328 307 328 307 328 276 c 0,128,129
 328 246 328 246 328 246 c 2,130,131
 328 215 328 215 287 215 c 256,132,133
 246 215 246 215 246 246 c 2,134,135
 246 246 246 246 246 263 c 256,136,137
 246 280 246 280 246 303 c 0,138,139
 246 331 246 331 246 358 c 256,140,141
 246 385 246 385 246 389 c 0,142,143
 246 420 246 420 287 420 c 256,144,145
 328 420 328 420 328 389 c 0,146,147
 328 374 328 374 338 374 c 256,148,149
 348 374 348 374 348 389 c 0,150,151
 348 420 348 420 389 420 c 256,152,153
 430 420 430 420 430 389 c 0,78,79
EndSplineSet
EndChar

StartChar: seven
Encoding: 55 55 14
Width: 574
GlyphClass: 1
Flags: W
LayerCount: 2
Fore
SplineSet
82 225 m 0,0,1
 82 238 82 238 75 254 c 0,2,3
 69 270 69 270 60 286 c 0,4,5
 47 311 47 311 34 329 c 0,6,7
 20 348 20 348 20 348 c 1,8,9
 20 364 20 364 28 387 c 256,10,11
 36 410 36 410 82 410 c 1,12,13
 67 410 67 410 67 430 c 0,14,15
 67 451 67 451 82 451 c 1,16,17
 82 451 82 451 113 470 c 256,18,19
 144 489 144 489 179 509 c 0,20,21
 209 527 209 527 234 540 c 256,22,23
 259 553 259 553 266 553 c 1,24,25
 266 553 266 553 266 553 c 257,26,27
 266 553 266 553 266 553 c 257,28,29
 266 553 266 553 266 553 c 257,30,31
 266 553 266 553 267 553 c 0,32,33
 291 553 291 553 321 536 c 256,34,35
 351 519 351 519 381 495 c 0,36,37
 425 460 425 460 458 425 c 0,38,39
 492 389 492 389 492 389 c 1,40,41
 498 389 498 389 473 389 c 256,42,43
 448 389 448 389 413 389 c 0,44,45
 369 389 369 389 328 389 c 256,46,47
 287 389 287 389 287 389 c 257,48,49
 287 389 287 389 264 420 c 256,50,51
 241 451 241 451 225 451 c 1,52,53
 225 451 225 451 206 439 c 0,54,55
 187 428 187 428 166 415 c 0,56,57
 149 405 149 405 136 397 c 256,58,59
 123 389 123 389 123 389 c 257,60,61
 123 389 123 389 131 376 c 256,62,63
 139 363 139 363 149 346 c 0,64,65
 161 325 161 325 173 306 c 0,66,67
 184 287 184 287 184 287 c 257,68,69
 184 287 184 287 184 274 c 256,70,71
 184 261 184 261 184 246 c 0,72,73
 184 215 184 215 205 210 c 0,74,75
 225 205 225 205 225 205 c 2,76,77
 241 205 241 205 271 205 c 0,78,79
 302 205 302 205 328 205 c 1,80,81
 328 205 328 205 320 194 c 0,82,83
 312 184 312 184 302 170 c 0,84,85
 289 153 289 153 278 138 c 0,86,87
 266 123 266 123 266 123 c 257,88,89
 266 123 266 123 269 113 c 0,90,91
 271 102 271 102 287 102 c 1,92,93
 287 102 287 102 298 118 c 0,94,95
 309 133 309 133 322 149 c 0,96,97
 332 163 332 163 340 174 c 0,98,99
 348 184 348 184 348 184 c 257,100,101
 348 184 348 184 344 202 c 0,102,103
 340 219 340 219 346 232 c 0,104,105
 349 238 349 238 354 242 c 256,106,107
 359 246 359 246 369 246 c 1,108,109
 369 246 369 246 369 256 c 256,110,111
 369 266 369 266 369 266 c 257,112,113
 369 266 369 266 367 287 c 0,114,115
 365 307 365 307 348 307 c 0,116,117
 332 308 332 308 317 307 c 0,118,119
 302 307 302 307 287 307 c 0,120,121
 271 307 271 307 271 297 c 256,122,123
 271 287 271 287 287 287 c 0,124,125
 296 287 296 287 307 287 c 0,126,127
 317 287 317 287 328 287 c 0,128,129
 343 287 343 287 343 256 c 256,130,131
 343 225 343 225 328 225 c 0,132,133
 297 225 297 225 248 225 c 0,134,135
 200 225 200 225 225 225 c 1,136,137
 225 225 225 225 215 228 c 0,138,139
 205 230 205 230 205 246 c 0,140,141
 205 276 205 276 205 297 c 0,142,143
 204 318 204 318 205 348 c 0,144,145
 205 363 205 363 225 366 c 0,146,147
 246 369 246 369 246 369 c 1,148,149
 287 369 287 369 297 369 c 256,150,151
 307 369 307 369 328 369 c 2,152,153
 328 369 328 369 357 369 c 256,154,155
 386 369 386 369 422 369 c 0,156,157
 447 369 447 369 471 369 c 256,158,159
 495 369 495 369 512 369 c 1,160,161
 512 369 512 369 522 365 c 0,162,163
 533 362 533 362 541 341 c 0,164,165
 546 329 546 329 550 311 c 0,166,167
 553 293 553 293 553 266 c 0,168,169
 553 249 553 249 538 199 c 256,170,171
 523 149 523 149 506 99 c 0,172,173
 492 59 492 59 482 29 c 0,174,175
 471 0 471 0 471 0 c 1,176,177
 471 -20 471 -20 471 -61 c 1,178,179
 451 -61 451 -61 402 -61 c 256,180,181
 353 -61 353 -61 298 -61 c 0,182,183
 268 -61 268 -61 239 -61 c 0,184,185
 209 -61 209 -61 184 -61 c 1,186,187
 184 -41 184 -41 184 0 c 1,188,189
 184 0 184 0 171 24 c 256,190,191
 158 48 158 48 141 82 c 0,192,193
 120 123 120 123 101 166 c 0,194,195
 82 208 82 208 82 225 c 0,0,1
EndSplineSet
AlternateSubs2: "'ss02' Style Set 2 in Latin lookup 13 subtable" 7ter
AlternateSubs2: "'ss01' Style Set 1 in Latin lookup 12 subtable" 7bis
AlternateSubs2: "'aalt' Access All Alternates in Latin lookup 11 subtable" 7ter
AlternateSubs2: "'aalt' Access All Alternates in Latin lookup 11 subtable" 7bis
EndChar

StartChar: eight
Encoding: 56 56 15
Width: 656
GlyphClass: 1
Flags: W
LayerCount: 2
Fore
SplineSet
594 -61 m 1,0,1
 498 -61 498 -61 307 -61 c 1,2,3
 307 -41 307 -41 307 0 c 0,4,5
 307 7 307 7 270 35 c 256,6,7
 233 63 233 63 185 95 c 0,8,9
 127 136 127 136 74 170 c 0,10,11
 20 205 20 205 20 205 c 1,12,13
 20 220 20 220 28 243 c 256,14,15
 36 266 36 266 82 266 c 0,16,17
 88 266 88 266 101 260 c 0,18,19
 114 253 114 253 130 245 c 0,20,21
 154 231 154 231 180 218 c 0,22,23
 207 205 207 205 225 205 c 0,24,25
 241 205 241 205 243 215 c 0,26,27
 246 225 246 225 246 225 c 257,28,29
 246 225 246 225 246 278 c 256,30,31
 246 331 246 331 246 399 c 0,32,33
 246 429 246 429 246 458 c 0,34,35
 246 488 246 488 246 515 c 0,36,37
 246 566 246 566 246 600 c 0,38,39
 246 635 246 635 246 635 c 2,40,41
 246 666 246 666 287 666 c 256,42,43
 328 666 328 666 328 635 c 2,44,45
 328 635 328 635 327 585 c 0,46,47
 327 534 327 534 327 469 c 0,48,49
 327 418 327 418 328 367 c 0,50,51
 328 316 328 316 328 283 c 0,52,53
 328 266 328 266 328 256 c 256,54,55
 328 246 328 246 328 246 c 2,56,57
 328 215 328 215 348 210 c 0,58,59
 369 205 369 205 369 205 c 2,60,61
 384 205 384 205 433 205 c 0,62,63
 481 205 481 205 512 205 c 256,64,65
 543 205 543 205 548 215 c 256,66,67
 553 225 553 225 553 225 c 257,68,69
 553 225 553 225 556 225 c 0,70,71
 558 225 558 225 573 225 c 2,72,73
 573 225 573 225 594 225 c 0,74,75
 614 225 614 225 614 225 c 257,76,77
 614 225 614 225 625 228 c 0,78,79
 635 230 635 230 635 246 c 1,80,81
 635 246 635 246 635 228 c 0,82,83
 635 209 635 209 635 186 c 0,84,85
 635 157 635 157 635 130 c 256,86,87
 635 103 635 103 635 102 c 0,88,89
 635 87 635 87 614 51 c 0,90,91
 594 15 594 15 594 0 c 256,92,93
 594 -15 594 -15 594 -31 c 256,94,95
 594 -47 594 -47 594 -61 c 1,0,1
430 389 m 0,96,97
 430 374 430 374 440 374 c 0,98,99
 451 374 451 374 451 389 c 0,100,101
 451 420 451 420 492 420 c 0,102,103
 532 420 532 420 532 389 c 0,104,105
 532 374 532 374 543 374 c 0,106,107
 553 374 553 374 553 389 c 256,108,109
 553 404 553 404 594 402 c 0,110,111
 635 399 635 399 635 369 c 2,112,113
 635 369 635 369 635 353 c 256,114,115
 635 337 635 337 635 317 c 0,116,117
 635 298 635 298 635 282 c 256,118,119
 635 266 635 266 635 266 c 2,120,121
 635 236 635 236 594 236 c 256,122,123
 553 236 553 236 553 266 c 2,124,125
 553 266 553 266 553 287 c 0,126,127
 553 307 553 307 553 307 c 2,128,129
 553 323 553 323 543 323 c 0,130,131
 532 323 532 323 532 307 c 2,132,133
 532 307 532 307 532 276 c 0,134,135
 532 246 532 246 532 246 c 2,136,137
 532 215 532 215 492 215 c 0,138,139
 451 215 451 215 451 246 c 2,140,141
 451 246 451 246 451 276 c 0,142,143
 451 307 451 307 451 307 c 2,144,145
 451 322 451 322 441 323 c 0,146,147
 431 323 431 323 430 309 c 0,148,149
 430 308 430 308 430 308 c 257,150,151
 430 308 430 308 430 307 c 2,152,153
 430 307 430 307 430 276 c 0,154,155
 430 246 430 246 430 246 c 2,156,157
 430 215 430 215 389 215 c 256,158,159
 348 215 348 215 348 246 c 2,160,161
 348 246 348 246 348 264 c 0,162,163
 348 283 348 283 348 307 c 0,164,165
 348 336 348 336 348 363 c 0,166,167
 348 389 348 389 348 389 c 2,168,169
 348 420 348 420 389 420 c 256,170,171
 430 420 430 420 430 389 c 0,96,97
EndSplineSet
AlternateSubs2: "'ss02' Style Set 2 in Latin lookup 13 subtable" 8ter
AlternateSubs2: "'aalt' Access All Alternates in Latin lookup 11 subtable" 8ter
EndChar

StartChar: nine
Encoding: 57 57 16
Width: 512
GlyphClass: 1
Flags: W
LayerCount: 2
Fore
SplineSet
41 266 m 1,0,1
 41 266 41 266 82 266 c 256,2,3
 123 266 123 266 123 266 c 257,4,5
 123 266 123 266 123 264 c 0,6,7
 123 261 123 261 123 246 c 0,8,9
 123 215 123 215 143 210 c 0,10,11
 164 205 164 205 164 205 c 2,12,13
 179 205 179 205 210 205 c 256,14,15
 241 205 241 205 266 205 c 1,16,17
 266 205 266 205 258 194 c 0,18,19
 250 184 250 184 240 170 c 0,20,21
 228 153 228 153 216 138 c 0,22,23
 205 123 205 123 205 123 c 257,24,25
 205 123 205 123 207 113 c 0,26,27
 210 102 210 102 225 102 c 1,28,29
 225 102 225 102 237 118 c 0,30,31
 248 133 248 133 261 149 c 0,32,33
 271 163 271 163 279 174 c 0,34,35
 287 184 287 184 287 184 c 257,36,37
 287 184 287 184 283 202 c 0,38,39
 279 219 279 219 285 232 c 0,40,41
 287 238 287 238 293 242 c 0,42,43
 298 246 298 246 307 246 c 1,44,45
 307 246 307 246 307 256 c 256,46,47
 307 266 307 266 307 266 c 257,48,49
 307 266 307 266 306 287 c 0,50,51
 304 307 304 307 287 307 c 0,52,53
 270 308 270 308 248 307 c 0,54,55
 225 307 225 307 225 307 c 1,56,57
 241 307 241 307 225 297 c 0,58,59
 210 287 210 287 225 287 c 0,60,61
 235 287 235 287 245 287 c 0,62,63
 256 287 256 287 266 287 c 0,64,65
 282 287 282 287 282 256 c 256,66,67
 282 225 282 225 266 225 c 0,68,69
 236 225 236 225 187 225 c 256,70,71
 138 225 138 225 164 225 c 1,72,73
 164 225 164 225 154 228 c 0,74,75
 143 230 143 230 143 246 c 0,76,77
 143 276 143 276 143 297 c 256,78,79
 143 318 143 318 143 348 c 0,80,81
 144 363 144 363 164 366 c 256,82,83
 184 369 184 369 184 369 c 1,84,85
 225 369 225 369 236 369 c 0,86,87
 246 369 246 369 266 369 c 2,88,89
 266 369 266 369 295 369 c 256,90,91
 324 369 324 369 361 369 c 0,92,93
 385 369 385 369 409 369 c 256,94,95
 433 369 433 369 451 369 c 1,96,97
 451 369 451 369 461 365 c 0,98,99
 471 362 471 362 480 341 c 0,100,101
 485 329 485 329 488 311 c 0,102,103
 492 293 492 293 492 266 c 0,104,105
 492 249 492 249 476 199 c 0,106,107
 461 149 461 149 444 99 c 0,108,109
 431 59 431 59 420 29 c 0,110,111
 410 0 410 0 410 0 c 1,112,113
 410 -20 410 -20 410 -61 c 1,114,115
 399 -61 399 -61 379 -61 c 256,116,117
 359 -61 359 -61 333 -61 c 0,118,119
 286 -61 286 -61 228 -61 c 0,120,121
 169 -61 169 -61 123 -61 c 1,122,123
 123 -41 123 -41 123 0 c 1,124,125
 123 0 123 0 103 44 c 0,126,127
 82 88 82 88 64 146 c 0,128,129
 54 177 54 177 48 208 c 0,130,131
 41 239 41 239 41 266 c 1,0,1
20 307 m 2,132,133
 20 307 20 307 20 328 c 0,134,135
 20 348 20 348 20 348 c 257,136,137
 20 348 20 348 23 358 c 0,138,139
 26 369 26 369 41 369 c 2,140,141
 41 369 41 369 72 369 c 0,142,143
 102 369 102 369 102 369 c 257,144,145
 102 369 102 369 113 366 c 0,146,147
 123 364 123 364 123 348 c 2,148,149
 123 348 123 348 123 328 c 0,150,151
 123 307 123 307 123 307 c 2,152,153
 123 293 123 293 110 286 c 0,154,155
 96 278 96 278 79 277 c 0,156,157
 58 275 58 275 39 283 c 0,158,159
 20 290 20 290 20 307 c 2,132,133
410 389 m 257,160,161
 410 389 410 389 396 389 c 0,162,163
 383 389 383 389 366 389 c 0,164,165
 345 389 345 389 326 389 c 256,166,167
 307 389 307 389 307 389 c 257,168,169
 307 389 307 389 307 430 c 256,170,171
 307 471 307 471 307 471 c 2,172,173
 307 502 307 502 287 507 c 0,174,175
 266 512 266 512 266 512 c 257,176,177
 266 512 266 512 246 512 c 0,178,179
 225 512 225 512 225 512 c 257,180,181
 225 512 225 512 205 507 c 0,182,183
 184 502 184 502 184 471 c 1,184,185
 184 471 184 471 184 471 c 257,186,187
 184 471 184 471 184 471 c 1,188,189
 184 440 184 440 143 440 c 256,190,191
 102 440 102 440 101 471 c 1,192,193
 102 471 102 471 102 481 c 0,194,195
 102 492 102 492 102 492 c 2,196,197
 102 538 102 538 131 566 c 0,198,199
 159 594 159 594 205 594 c 2,200,201
 205 594 205 594 221 594 c 256,202,203
 237 594 237 594 257 594 c 0,204,205
 282 594 282 594 305 594 c 256,206,207
 328 594 328 594 328 594 c 2,208,209
 374 594 374 594 392 568 c 0,210,211
 410 543 410 543 410 512 c 2,212,213
 410 512 410 512 410 496 c 256,214,215
 410 480 410 480 410 460 c 0,216,217
 410 435 410 435 410 412 c 256,218,219
 410 389 410 389 410 389 c 257,160,161
EndSplineSet
EndChar

StartChar: A
Encoding: 65 65 17
Width: 512
GlyphClass: 1
Flags: W
LayerCount: 2
Fore
SplineSet
492 410 m 0,0,1
 492 394 492 394 492 369 c 0,2,3
 492 343 492 343 492 328 c 0,4,5
 492 260 492 260 456 232 c 0,6,7
 420 205 420 205 389 205 c 1,8,9
 389 205 389 205 369 246 c 0,10,11
 348 287 348 287 348 287 c 257,12,13
 348 287 348 287 348 287 c 257,14,15
 348 287 348 287 348 287 c 257,16,17
 348 287 348 287 369 292 c 0,18,19
 389 297 389 297 389 328 c 0,20,21
 389 353 389 353 389 384 c 256,22,23
 389 415 389 415 389 430 c 0,24,25
 389 461 389 461 369 466 c 0,26,27
 348 471 348 471 348 471 c 1,28,29
 364 471 364 471 317 471 c 0,30,31
 271 471 271 471 246 471 c 1,32,33
 261 492 261 492 284 522 c 0,34,35
 307 553 307 553 307 553 c 257,36,37
 307 553 307 553 305 563 c 0,38,39
 302 573 302 573 287 573 c 1,40,41
 279 560 279 560 252 526 c 256,42,43
 225 492 225 492 225 492 c 257,44,45
 225 492 225 492 208 472 c 0,46,47
 191 453 191 453 191 440 c 0,48,49
 191 435 191 435 194 433 c 0,50,51
 197 430 197 430 205 430 c 1,52,53
 205 430 205 430 205 420 c 256,54,55
 205 410 205 410 205 410 c 257,56,57
 205 410 205 410 206 389 c 0,58,59
 208 369 208 369 225 369 c 0,60,61
 241 369 241 369 256 369 c 256,62,63
 271 369 271 369 287 369 c 0,64,65
 302 369 302 369 302 379 c 256,66,67
 302 389 302 389 287 389 c 0,68,69
 271 389 271 389 266 389 c 256,70,71
 261 389 261 389 246 389 c 0,72,73
 230 389 230 389 230 420 c 256,74,75
 230 451 230 451 246 451 c 0,76,77
 276 451 276 451 300 451 c 0,78,79
 323 451 323 451 348 451 c 1,80,81
 348 451 348 451 358 448 c 0,82,83
 369 445 369 445 369 430 c 0,84,85
 369 399 369 399 369 379 c 0,86,87
 369 358 369 358 369 328 c 0,88,89
 368 313 368 313 348 310 c 256,90,91
 328 307 328 307 328 307 c 1,92,93
 345 307 345 307 318 307 c 0,94,95
 292 307 292 307 250 307 c 0,96,97
 216 307 216 307 181 307 c 0,98,99
 145 307 145 307 123 307 c 1,100,101
 123 307 123 307 113 311 c 0,102,103
 102 314 102 314 93 335 c 0,104,105
 88 347 88 347 85 365 c 256,106,107
 82 383 82 383 82 410 c 0,108,109
 82 423 82 423 92 462 c 0,110,111
 103 501 103 501 116 543 c 0,112,113
 133 596 133 596 148 638 c 0,114,115
 163 681 163 681 164 676 c 1,116,117
 164 696 164 696 164 737 c 1,118,119
 175 737 175 737 195 737 c 0,120,121
 214 737 214 737 240 737 c 0,122,123
 287 737 287 737 346 737 c 0,124,125
 404 737 404 737 451 737 c 1,126,127
 451 717 451 717 451 676 c 1,128,129
 451 676 451 676 461 632 c 0,130,131
 471 587 471 587 480 530 c 0,132,133
 485 499 485 499 488 468 c 0,134,135
 492 436 492 436 492 410 c 0,0,1
184 287 m 1,136,137
 184 287 184 287 174 250 c 0,138,139
 163 213 163 213 149 165 c 0,140,141
 133 106 133 106 118 53 c 0,142,143
 102 0 102 0 102 0 c 2,144,145
 102 -13 102 -13 72 -13 c 0,146,147
 67 -13 67 -13 61 -13 c 0,148,149
 20 -10 20 -10 20 20 c 1,150,151
 20 20 20 20 31 55 c 0,152,153
 42 89 42 89 55 134 c 0,154,155
 72 188 72 188 87 237 c 0,156,157
 102 287 102 287 102 287 c 257,158,159
 102 287 102 287 135 287 c 0,160,161
 169 287 169 287 184 287 c 1,136,137
328 287 m 257,162,163
 328 287 328 287 344 252 c 0,164,165
 359 218 359 218 380 174 c 0,166,167
 405 119 405 119 428 70 c 0,168,169
 451 20 451 20 451 20 c 1,170,171
 451 -10 451 -10 410 -13 c 0,172,173
 369 -15 369 -15 369 0 c 1,174,175
 369 0 369 0 355 35 c 0,176,177
 342 69 342 69 323 115 c 0,178,179
 301 171 301 171 277 225 c 0,180,181
 254 278 254 278 246 287 c 1,182,183
 246 287 246 287 287 287 c 256,184,185
 328 287 328 287 328 287 c 257,162,163
266 205 m 1,186,187
 266 205 266 205 253 205 c 0,188,189
 241 205 241 205 225 205 c 0,190,191
 195 205 195 205 195 246 c 256,192,193
 195 287 195 287 225 287 c 1,194,195
 239 259 239 259 266 205 c 1,186,187
EndSplineSet
EndChar

StartChar: B
Encoding: 66 66 18
Width: 451
GlyphClass: 1
Flags: W
LayerCount: 2
Fore
SplineSet
430 655 m 0,0,1
 430 636 430 636 430 604 c 0,2,3
 430 571 430 571 430 523 c 0,4,5
 430 454 430 454 430 350 c 0,6,7
 430 247 430 247 430 102 c 0,8,9
 430 87 430 87 410 51 c 0,10,11
 389 15 389 15 389 0 c 0,12,13
 389 -20 389 -20 389 -61 c 1,14,15
 294 -61 294 -61 102 -61 c 1,16,17
 102 -46 102 -46 102 -31 c 0,18,19
 102 -15 102 -15 102 0 c 0,20,21
 102 9 102 9 85 23 c 0,22,23
 67 38 67 38 49 55 c 0,24,25
 37 66 37 66 29 78 c 0,26,27
 20 90 20 90 20 102 c 0,28,29
 20 119 20 119 20 157 c 256,30,31
 20 195 20 195 20 225 c 0,32,33
 20 241 20 241 23 253 c 0,34,35
 26 266 26 266 41 266 c 0,36,37
 109 266 109 266 246 266 c 0,38,39
 257 266 257 266 266 263 c 0,40,41
 275 259 275 259 280 253 c 0,42,43
 298 236 298 236 289 210 c 256,44,45
 280 184 280 184 246 184 c 0,46,47
 245 184 245 184 215 184 c 0,48,49
 184 184 184 184 184 184 c 2,50,51
 154 184 154 184 138 177 c 0,52,53
 123 169 123 169 123 123 c 0,54,55
 123 108 123 108 133 108 c 256,56,57
 143 108 143 108 143 123 c 0,58,59
 143 154 143 154 148 159 c 0,60,61
 154 164 154 164 184 164 c 2,62,63
 184 164 184 164 215 164 c 0,64,65
 245 164 245 164 246 164 c 1,66,67
 246 164 246 164 246 164 c 257,68,69
 246 164 246 164 246 164 c 1,70,71
 276 164 276 164 292 179 c 0,72,73
 307 195 307 195 307 225 c 0,74,75
 307 241 307 241 305 253 c 0,76,77
 302 266 302 266 287 266 c 1,78,79
 287 266 287 266 310 266 c 256,80,81
 333 266 333 266 348 266 c 0,82,83
 364 266 364 266 364 276 c 0,84,85
 364 287 364 287 348 287 c 0,86,87
 339 287 339 287 297 287 c 256,88,89
 255 287 255 287 205 287 c 0,90,91
 144 287 144 287 91 287 c 0,92,93
 39 287 39 287 41 287 c 1,94,95
 41 305 41 305 41 346 c 256,96,97
 41 387 41 387 41 435 c 0,98,99
 40 507 40 507 40 575 c 0,100,101
 40 642 40 642 41 655 c 0,102,103
 41 686 41 686 82 686 c 256,104,105
 123 686 123 686 123 655 c 2,106,107
 123 655 123 655 123 609 c 256,108,109
 123 563 123 563 123 510 c 0,110,111
 122 467 122 467 123 431 c 0,112,113
 123 396 123 396 123 389 c 0,114,115
 123 374 123 374 133 374 c 256,116,117
 143 374 143 374 143 389 c 0,118,119
 143 399 143 399 143 445 c 0,120,121
 143 492 143 492 143 546 c 0,122,123
 143 575 143 575 143 604 c 0,124,125
 143 632 143 632 143 655 c 0,126,127
 143 686 143 686 184 686 c 256,128,129
 225 686 225 686 225 655 c 0,130,131
 225 648 225 648 225 615 c 256,132,133
 225 582 225 582 225 541 c 0,134,135
 225 490 225 490 225 444 c 256,136,137
 225 398 225 398 225 389 c 0,138,139
 225 374 225 374 236 374 c 0,140,141
 246 374 246 374 246 389 c 2,142,143
 246 389 246 389 246 423 c 0,144,145
 246 458 246 458 246 502 c 0,146,147
 246 557 246 557 246 606 c 256,148,149
 246 655 246 655 246 655 c 2,150,151
 246 686 246 686 287 686 c 256,152,153
 328 686 328 686 328 655 c 0,154,155
 328 645 328 645 328 598 c 0,156,157
 328 550 328 550 328 496 c 0,158,159
 328 466 328 466 328 438 c 0,160,161
 328 411 328 411 328 389 c 0,162,163
 328 374 328 374 338 374 c 256,164,165
 348 374 348 374 348 389 c 1,166,167
 348 382 348 382 348 415 c 256,168,169
 348 448 348 448 348 494 c 0,170,171
 348 550 348 550 348 603 c 0,172,173
 348 655 348 655 348 655 c 2,174,175
 348 686 348 686 389 686 c 256,176,177
 430 686 430 686 430 655 c 0,0,1
EndSplineSet
EndChar

StartChar: C
Encoding: 67 67 19
Width: 574
GlyphClass: 1
Flags: W
LayerCount: 2
Fore
SplineSet
369 594 m 257,0,1
 369 594 369 594 334 594 c 256,2,3
 299 594 299 594 254 594 c 0,4,5
 197 594 197 594 144 594 c 0,6,7
 90 594 90 594 82 594 c 1,8,9
 82 594 82 594 82 594 c 1,10,11
 51 594 51 594 51 635 c 256,12,13
 51 676 51 676 82 676 c 0,14,15
 89 676 89 676 138 676 c 256,16,17
 187 676 187 676 249 676 c 0,18,19
 324 676 324 676 393 676 c 0,20,21
 463 676 463 676 471 676 c 0,22,23
 517 676 517 676 535 650 c 0,24,25
 553 625 553 625 553 594 c 0,26,27
 553 574 553 574 553 518 c 256,28,29
 553 462 553 462 553 397 c 0,30,31
 553 363 553 363 553 329 c 256,32,33
 553 295 553 295 553 266 c 0,34,35
 553 235 553 235 540 199 c 256,36,37
 527 163 527 163 510 128 c 0,38,39
 483 76 483 76 457 38 c 0,40,41
 430 0 430 0 430 0 c 1,42,43
 430 -20 430 -20 430 -61 c 1,44,45
 419 -61 419 -61 399 -61 c 0,46,47
 380 -61 380 -61 354 -61 c 0,48,49
 306 -61 306 -61 248 -61 c 256,50,51
 190 -61 190 -61 143 -61 c 1,52,53
 143 -41 143 -41 143 0 c 1,54,55
 143 0 143 0 117 38 c 0,56,57
 90 77 90 77 64 128 c 0,58,59
 46 163 46 163 33 199 c 0,60,61
 20 236 20 236 20 266 c 2,62,63
 20 266 20 266 20 307 c 256,64,65
 20 348 20 348 20 348 c 2,66,67
 20 357 20 357 23 365 c 0,68,69
 26 372 26 372 31 378 c 0,70,71
 51 400 51 400 87 392 c 0,72,73
 123 385 123 385 123 348 c 0,74,75
 123 333 123 333 123 300 c 256,76,77
 123 267 123 267 123 266 c 0,78,79
 124 222 124 222 144 213 c 0,80,81
 164 205 164 205 164 205 c 2,82,83
 171 205 171 205 199 205 c 0,84,85
 226 205 226 205 259 205 c 0,86,87
 299 205 299 205 334 205 c 256,88,89
 369 205 369 205 369 205 c 257,90,91
 369 205 369 205 361 194 c 0,92,93
 353 184 353 184 343 170 c 0,94,95
 330 153 330 153 319 138 c 0,96,97
 307 123 307 123 307 123 c 257,98,99
 307 123 307 123 310 113 c 0,100,101
 312 102 312 102 328 102 c 1,102,103
 328 102 328 102 339 118 c 0,104,105
 350 133 350 133 363 149 c 0,106,107
 373 163 373 163 381 174 c 0,108,109
 389 184 389 184 389 184 c 257,110,111
 389 184 389 184 399 200 c 0,112,113
 410 215 410 215 410 246 c 2,114,115
 410 246 410 246 410 256 c 256,116,117
 410 266 410 266 410 266 c 257,118,119
 410 266 410 266 410 303 c 256,120,121
 410 340 410 340 410 388 c 0,122,123
 410 447 410 447 410 500 c 256,124,125
 410 553 410 553 410 553 c 2,126,127
 410 584 410 584 389 589 c 0,128,129
 369 594 369 594 369 594 c 257,0,1
EndSplineSet
EndChar

StartChar: D
Encoding: 68 68 20
Width: 512
GlyphClass: 1
Flags: W
LayerCount: 2
Fore
SplineSet
41 471 m 1,0,1
 41 471 41 471 82 471 c 256,2,3
 123 471 123 471 123 471 c 257,4,5
 123 471 123 471 123 468 c 0,6,7
 123 466 123 466 123 451 c 0,8,9
 123 420 123 420 143 415 c 0,10,11
 164 410 164 410 164 410 c 2,12,13
 179 410 179 410 210 410 c 256,14,15
 241 410 241 410 266 410 c 1,16,17
 251 389 251 389 228 358 c 0,18,19
 205 328 205 328 205 328 c 257,20,21
 205 328 205 328 207 317 c 0,22,23
 210 307 210 307 225 307 c 1,24,25
 233 321 233 321 260 355 c 256,26,27
 287 389 287 389 287 389 c 257,28,29
 287 389 287 389 283 407 c 0,30,31
 279 424 279 424 285 437 c 0,32,33
 287 443 287 443 293 447 c 0,34,35
 298 451 298 451 307 451 c 1,36,37
 307 451 307 451 307 461 c 256,38,39
 307 471 307 471 307 471 c 257,40,41
 307 471 307 471 306 491 c 0,42,43
 304 512 304 512 287 512 c 256,44,45
 270 512 270 512 248 512 c 0,46,47
 225 512 225 512 225 512 c 1,48,49
 241 512 241 512 225 502 c 0,50,51
 210 492 210 492 225 492 c 0,52,53
 235 492 235 492 245 492 c 0,54,55
 256 492 256 492 266 492 c 0,56,57
 282 492 282 492 282 461 c 256,58,59
 282 430 282 430 266 430 c 0,60,61
 236 430 236 430 187 430 c 256,62,63
 138 430 138 430 164 430 c 1,64,65
 164 430 164 430 154 433 c 0,66,67
 143 435 143 435 143 451 c 0,68,69
 143 481 143 481 143 502 c 256,70,71
 143 523 143 523 143 553 c 0,72,73
 144 567 144 567 164 570 c 256,74,75
 184 573 184 573 184 573 c 1,76,77
 225 573 225 573 236 573 c 0,78,79
 246 573 246 573 266 573 c 0,80,81
 282 573 282 573 282 584 c 0,82,83
 282 594 282 594 266 594 c 0,84,85
 258 594 258 594 231 594 c 256,86,87
 204 594 204 594 177 594 c 0,88,89
 155 594 155 594 139 594 c 256,90,91
 123 594 123 594 123 594 c 1,92,93
 123 625 123 625 144 650 c 0,94,95
 165 676 165 676 205 676 c 0,96,97
 222 676 222 676 264 661 c 0,98,99
 307 645 307 645 348 629 c 0,100,101
 382 615 382 615 406 604 c 0,102,103
 430 594 430 594 430 594 c 257,104,105
 430 594 430 594 435 592 c 0,106,107
 440 589 440 589 447 584 c 0,108,109
 461 573 461 573 476 547 c 0,110,111
 492 521 492 521 492 471 c 1,112,113
 492 471 492 471 481 437 c 0,114,115
 470 402 470 402 457 358 c 0,116,117
 440 303 440 303 425 254 c 0,118,119
 410 204 410 204 410 205 c 1,120,121
 410 116 410 116 410 -61 c 1,122,123
 399 -61 399 -61 379 -61 c 256,124,125
 359 -61 359 -61 333 -61 c 0,126,127
 286 -61 286 -61 228 -61 c 0,128,129
 169 -61 169 -61 123 -61 c 1,130,131
 123 27 123 27 123 205 c 1,132,133
 123 205 123 205 103 249 c 0,134,135
 82 293 82 293 64 351 c 0,136,137
 54 382 54 382 48 413 c 0,138,139
 41 444 41 444 41 471 c 1,0,1
20 512 m 2,140,141
 20 512 20 512 20 532 c 0,142,143
 20 553 20 553 20 553 c 257,144,145
 20 553 20 553 23 563 c 256,146,147
 26 573 26 573 41 573 c 2,148,149
 41 573 41 573 72 573 c 0,150,151
 102 573 102 573 102 573 c 257,152,153
 102 573 102 573 113 571 c 0,154,155
 123 568 123 568 123 553 c 2,156,157
 123 553 123 553 123 532 c 0,158,159
 123 512 123 512 123 512 c 2,160,161
 123 498 123 498 110 490 c 0,162,163
 96 483 96 483 79 482 c 0,164,165
 58 480 58 480 39 488 c 0,166,167
 20 495 20 495 20 512 c 2,140,141
EndSplineSet
EndChar

StartChar: E
Encoding: 69 69 21
Width: 450
GlyphClass: 1
Flags: W
LayerCount: 2
Fore
SplineSet
61 -62 m 1,0,1
 61 -48 61 -48 61 -32 c 0,2,3
 61 -15 61 -15 61 0 c 256,4,5
 61 15 61 15 41 51 c 0,6,7
 20 87 20 87 20 102 c 0,8,9
 20 163 20 163 20 215 c 0,10,11
 20 266 20 266 20 266 c 2,12,13
 20 287 20 287 20 320 c 256,14,15
 20 353 20 353 20 391 c 0,16,17
 20 462 20 462 20 537 c 0,18,19
 20 613 20 613 20 655 c 0,20,21
 20 686 20 686 61 686 c 256,22,23
 102 686 102 686 102 655 c 0,24,25
 102 566 102 566 102 389 c 0,26,27
 102 373 102 373 113 373 c 0,28,29
 123 373 123 373 123 389 c 0,30,31
 123 455 123 455 123 524 c 256,32,33
 123 593 123 593 123 655 c 0,34,35
 123 686 123 686 164 686 c 256,36,37
 205 686 205 686 205 655 c 0,38,39
 205 566 205 566 205 389 c 0,40,41
 205 373 205 373 215 373 c 256,42,43
 225 373 225 373 225 389 c 0,44,45
 225 477 225 477 225 655 c 0,46,47
 225 686 225 686 266 686 c 256,48,49
 307 686 307 686 307 655 c 0,50,51
 307 632 307 632 307 603 c 0,52,53
 307 575 307 575 307 545 c 0,54,55
 307 491 307 491 307 445 c 256,56,57
 307 399 307 399 307 389 c 0,58,59
 307 373 307 373 317 373 c 0,60,61
 328 373 328 373 328 389 c 0,62,63
 328 419 328 419 369 419 c 256,64,65
 410 419 410 419 410 389 c 2,66,67
 410 389 410 389 410 335 c 256,68,69
 410 281 410 281 410 266 c 1,70,71
 425 266 425 266 428 253 c 0,72,73
 430 240 430 240 430 225 c 0,74,75
 430 194 430 194 430 163 c 0,76,77
 430 133 430 133 430 102 c 0,78,79
 430 90 430 90 422 78 c 0,80,81
 413 66 413 66 401 54 c 0,82,83
 384 37 384 37 366 23 c 256,84,85
 348 9 348 9 348 0 c 0,86,87
 348 -21 348 -21 348 -62 c 1,88,89
 273 -62 273 -62 203 -62 c 256,90,91
 133 -62 133 -62 61 -62 c 1,0,1
EndSplineSet
EndChar

StartChar: F
Encoding: 70 70 22
Width: 451
GlyphClass: 1
Flags: W
LayerCount: 2
Fore
SplineSet
61 -62 m 1,0,1
 61 -48 61 -48 61 -32 c 0,2,3
 61 -15 61 -15 61 0 c 256,4,5
 61 15 61 15 41 51 c 0,6,7
 20 87 20 87 20 102 c 0,8,9
 20 163 20 163 20 215 c 0,10,11
 20 266 20 266 20 266 c 2,12,13
 20 327 20 327 20 348 c 0,14,15
 20 368 20 368 20 368 c 2,16,17
 20 399 20 399 61 401 c 0,18,19
 102 404 102 404 102 389 c 1,20,21
 102 389 102 389 102 389 c 257,22,23
 102 389 102 389 102 389 c 1,24,25
 102 373 102 373 113 373 c 0,26,27
 123 373 123 373 123 389 c 0,28,29
 123 419 123 419 164 419 c 256,30,31
 205 419 205 419 205 389 c 0,32,33
 205 373 205 373 215 373 c 256,34,35
 225 373 225 373 225 389 c 0,36,37
 225 477 225 477 225 655 c 0,38,39
 225 686 225 686 266 686 c 256,40,41
 307 686 307 686 307 655 c 0,42,43
 307 632 307 632 307 603 c 0,44,45
 307 575 307 575 307 545 c 0,46,47
 307 491 307 491 307 445 c 256,48,49
 307 399 307 399 307 389 c 0,50,51
 307 373 307 373 317 373 c 0,52,53
 328 373 328 373 328 389 c 0,54,55
 328 396 328 396 328 429 c 256,56,57
 328 462 328 462 328 502 c 0,58,59
 328 550 328 550 328 592 c 256,60,61
 328 634 328 634 328 634 c 2,62,63
 328 665 328 665 369 665 c 256,64,65
 410 665 410 665 410 634 c 2,66,67
 410 634 410 634 410 589 c 256,68,69
 410 544 410 544 410 485 c 0,70,71
 410 437 410 437 410 390 c 0,72,73
 410 342 410 342 410 309 c 0,74,75
 410 292 410 292 410 280 c 0,76,77
 410 269 410 269 410 266 c 1,78,79
 425 266 425 266 428 253 c 0,80,81
 430 240 430 240 430 225 c 0,82,83
 430 194 430 194 430 163 c 0,84,85
 430 133 430 133 430 102 c 0,86,87
 430 90 430 90 422 78 c 0,88,89
 413 66 413 66 401 54 c 0,90,91
 384 37 384 37 366 23 c 256,92,93
 348 9 348 9 348 0 c 0,94,95
 348 -21 348 -21 348 -62 c 1,96,97
 273 -62 273 -62 203 -62 c 256,98,99
 133 -62 133 -62 61 -62 c 1,0,1
EndSplineSet
EndChar

StartChar: G
Encoding: 71 71 23
Width: 451
GlyphClass: 1
Flags: W
LayerCount: 2
Fore
SplineSet
61 -61 m 1,0,1
 61 -48 61 -48 61 -31 c 0,2,3
 61 -15 61 -15 61 0 c 256,4,5
 61 15 61 15 41 51 c 0,6,7
 20 87 20 87 20 102 c 0,8,9
 20 164 20 164 20 215 c 256,10,11
 20 266 20 266 20 266 c 2,12,13
 20 328 20 328 20 348 c 0,14,15
 20 369 20 369 20 369 c 2,16,17
 20 399 20 399 61 402 c 0,18,19
 102 404 102 404 102 389 c 1,20,21
 102 389 102 389 102 389 c 257,22,23
 102 389 102 389 102 389 c 1,24,25
 102 374 102 374 113 374 c 0,26,27
 123 374 123 374 123 389 c 0,28,29
 123 420 123 420 164 420 c 256,30,31
 205 420 205 420 205 389 c 0,32,33
 205 374 205 374 215 374 c 256,34,35
 225 374 225 374 225 389 c 0,36,37
 225 420 225 420 266 420 c 256,38,39
 307 420 307 420 307 389 c 0,40,41
 307 374 307 374 317 374 c 0,42,43
 328 374 328 374 328 389 c 0,44,45
 328 396 328 396 328 432 c 256,46,47
 328 468 328 468 328 511 c 0,48,49
 328 563 328 563 328 609 c 256,50,51
 328 655 328 655 328 655 c 2,52,53
 328 686 328 686 369 686 c 256,54,55
 410 686 410 686 410 655 c 2,56,57
 410 655 410 655 410 608 c 0,58,59
 410 560 410 560 410 497 c 0,60,61
 410 447 410 447 410 396 c 0,62,63
 410 346 410 346 410 312 c 0,64,65
 410 293 410 293 410 281 c 256,66,67
 410 269 410 269 410 266 c 1,68,69
 425 266 425 266 428 253 c 0,70,71
 430 241 430 241 430 225 c 0,72,73
 430 195 430 195 430 164 c 256,74,75
 430 133 430 133 430 102 c 0,76,77
 430 90 430 90 422 78 c 0,78,79
 413 66 413 66 401 55 c 0,80,81
 384 38 384 38 366 23 c 0,82,83
 348 9 348 9 348 0 c 0,84,85
 348 -20 348 -20 348 -61 c 1,86,87
 273 -61 273 -61 203 -61 c 256,88,89
 133 -61 133 -61 61 -61 c 1,0,1
EndSplineSet
EndChar

StartChar: H
Encoding: 72 72 24
Width: 451
GlyphClass: 1
Flags: W
LayerCount: 2
Fore
SplineSet
246 389 m 2,0,1
 246 420 246 420 287 420 c 256,2,3
 328 420 328 420 328 389 c 0,4,5
 328 374 328 374 338 374 c 256,6,7
 348 374 348 374 348 389 c 256,8,9
 348 404 348 404 389 402 c 0,10,11
 430 399 430 399 430 369 c 0,12,13
 430 343 430 343 430 332 c 0,14,15
 430 322 430 322 430 266 c 0,16,17
 430 236 430 236 389 236 c 256,18,19
 348 236 348 236 348 266 c 2,20,21
 348 266 348 266 348 287 c 0,22,23
 348 307 348 307 348 307 c 2,24,25
 348 323 348 323 338 323 c 256,26,27
 328 323 328 323 328 307 c 2,28,29
 328 307 328 307 328 284 c 256,30,31
 328 261 328 261 328 246 c 0,32,33
 328 232 328 232 317 229 c 0,34,35
 307 225 307 225 307 225 c 1,36,37
 307 256 307 256 284 271 c 0,38,39
 261 287 261 287 246 287 c 1,40,41
 246 287 246 287 246 300 c 256,42,43
 246 313 246 313 246 330 c 0,44,45
 246 351 246 351 246 370 c 256,46,47
 246 389 246 389 246 389 c 2,0,1
389 -61 m 1,48,49
 294 -61 294 -61 102 -61 c 1,50,51
 102 -41 102 -41 102 0 c 0,52,53
 102 9 102 9 85 23 c 0,54,55
 67 38 67 38 49 55 c 0,56,57
 37 66 37 66 29 78 c 0,58,59
 20 90 20 90 20 102 c 0,60,61
 20 118 20 118 20 156 c 0,62,63
 20 195 20 195 20 225 c 0,64,65
 20 241 20 241 23 253 c 0,66,67
 26 266 26 266 41 266 c 0,68,69
 109 266 109 266 246 266 c 0,70,71
 257 266 257 266 266 263 c 0,72,73
 275 259 275 259 280 253 c 0,74,75
 298 236 298 236 289 210 c 256,76,77
 280 184 280 184 246 184 c 0,78,79
 245 184 245 184 223 184 c 0,80,81
 200 184 200 184 184 184 c 0,82,83
 154 184 154 184 138 177 c 0,84,85
 123 169 123 169 123 123 c 0,86,87
 123 108 123 108 133 108 c 256,88,89
 143 108 143 108 143 123 c 0,90,91
 143 154 143 154 148 159 c 0,92,93
 154 164 154 164 184 164 c 0,94,95
 205 164 205 164 246 164 c 0,96,97
 266 164 266 164 280 179 c 0,98,99
 295 194 295 194 311 208 c 0,100,101
 319 215 319 215 328 220 c 256,102,103
 337 225 337 225 348 225 c 0,104,105
 371 225 371 225 383 225 c 0,106,107
 394 225 394 225 410 225 c 1,108,109
 410 225 410 225 420 228 c 0,110,111
 430 230 430 230 430 246 c 1,112,113
 430 200 430 200 430 148 c 0,114,115
 430 97 430 97 430 82 c 256,116,117
 430 67 430 67 410 41 c 0,118,119
 389 15 389 15 389 0 c 256,120,121
 389 -15 389 -15 389 -31 c 256,122,123
 389 -47 389 -47 389 -61 c 1,48,49
225 287 m 1,124,125
 164 287 164 287 41 287 c 1,126,127
 41 287 41 287 41 303 c 0,128,129
 41 318 41 318 41 339 c 0,130,131
 41 364 41 364 41 387 c 256,132,133
 41 410 41 410 41 410 c 2,134,135
 41 492 41 492 41 655 c 0,136,137
 41 686 41 686 82 686 c 256,138,139
 123 686 123 686 123 655 c 0,140,141
 123 594 123 594 123 522 c 0,142,143
 123 451 123 451 123 389 c 0,144,145
 123 374 123 374 133 374 c 256,146,147
 143 374 143 374 143 389 c 0,148,149
 143 451 143 451 143 520 c 256,150,151
 143 589 143 589 143 655 c 0,152,153
 143 686 143 686 184 686 c 256,154,155
 225 686 225 686 225 655 c 0,156,157
 225 486 225 486 225 386 c 0,158,159
 225 287 225 287 225 287 c 1,124,125
EndSplineSet
EndChar

StartChar: I
Encoding: 73 73 25
Width: 451
GlyphClass: 1
Flags: W
LayerCount: 2
Fore
SplineSet
246 307 m 2,0,1
 246 323 246 323 236 323 c 0,2,3
 225 323 225 323 225 307 c 0,4,5
 225 292 225 292 225 289 c 0,6,7
 225 287 225 287 225 287 c 1,8,9
 198 287 198 287 143 287 c 1,10,11
 143 287 143 287 143 297 c 256,12,13
 143 307 143 307 143 307 c 257,14,15
 143 307 143 307 143 348 c 256,16,17
 143 389 143 389 143 389 c 2,18,19
 143 420 143 420 184 420 c 256,20,21
 225 420 225 420 225 389 c 0,22,23
 225 374 225 374 235 374 c 0,24,25
 246 374 246 374 246 389 c 0,26,27
 246 420 246 420 287 420 c 256,28,29
 328 420 328 420 328 389 c 0,30,31
 328 374 328 374 338 374 c 256,32,33
 348 374 348 374 348 389 c 256,34,35
 348 404 348 404 389 402 c 0,36,37
 430 399 430 399 430 369 c 0,38,39
 430 343 430 343 430 332 c 0,40,41
 430 322 430 322 430 266 c 0,42,43
 430 236 430 236 389 236 c 256,44,45
 348 236 348 236 348 266 c 0,46,47
 348 276 348 276 348 292 c 0,48,49
 348 307 348 307 348 307 c 2,50,51
 348 323 348 323 338 323 c 256,52,53
 328 323 328 323 328 307 c 2,54,55
 328 307 328 307 328 284 c 256,56,57
 328 261 328 261 328 246 c 0,58,59
 328 232 328 232 317 229 c 0,60,61
 307 225 307 225 307 225 c 1,62,63
 307 256 307 256 284 271 c 0,64,65
 261 287 261 287 246 287 c 1,66,67
 246 287 246 287 246 297 c 256,68,69
 246 307 246 307 246 307 c 2,0,1
389 -61 m 1,70,71
 294 -61 294 -61 102 -61 c 1,72,73
 102 -41 102 -41 102 0 c 0,74,75
 102 9 102 9 85 23 c 0,76,77
 67 38 67 38 49 55 c 0,78,79
 37 66 37 66 29 78 c 0,80,81
 20 90 20 90 20 102 c 0,82,83
 20 118 20 118 20 156 c 0,84,85
 20 195 20 195 20 225 c 0,86,87
 20 241 20 241 23 253 c 0,88,89
 26 266 26 266 41 266 c 0,90,91
 109 266 109 266 246 266 c 0,92,93
 257 266 257 266 266 263 c 0,94,95
 275 259 275 259 280 253 c 0,96,97
 298 236 298 236 289 210 c 256,98,99
 280 184 280 184 246 184 c 0,100,101
 245 184 245 184 223 184 c 0,102,103
 200 184 200 184 184 184 c 0,104,105
 154 184 154 184 138 177 c 0,106,107
 123 169 123 169 123 123 c 0,108,109
 123 108 123 108 133 108 c 256,110,111
 143 108 143 108 143 123 c 0,112,113
 143 154 143 154 148 159 c 0,114,115
 154 164 154 164 184 164 c 0,116,117
 205 164 205 164 246 164 c 0,118,119
 266 164 266 164 280 179 c 0,120,121
 295 194 295 194 311 208 c 0,122,123
 319 215 319 215 328 220 c 256,124,125
 337 225 337 225 348 225 c 2,126,127
 348 225 348 225 379 225 c 256,128,129
 410 225 410 225 410 225 c 257,130,131
 410 225 410 225 420 229 c 256,132,133
 430 233 430 233 430 246 c 1,134,135
 430 246 430 246 430 227 c 256,136,137
 430 208 430 208 430 183 c 0,138,139
 430 152 430 152 430 121 c 256,140,141
 430 90 430 90 430 82 c 0,142,143
 430 67 430 67 410 41 c 0,144,145
 389 15 389 15 389 0 c 256,146,147
 389 -15 389 -15 389 -31 c 256,148,149
 389 -47 389 -47 389 -61 c 1,70,71
123 287 m 1,150,151
 96 287 96 287 41 287 c 1,152,153
 41 287 41 287 41 304 c 256,154,155
 41 321 41 321 41 397 c 0,156,157
 41 438 41 438 41 501 c 256,158,159
 41 564 41 564 41 655 c 0,160,161
 41 686 41 686 82 686 c 256,162,163
 123 686 123 686 123 655 c 2,164,165
 123 655 123 655 123 608 c 0,166,167
 123 560 123 560 123 499 c 0,168,169
 123 472 123 472 123 446 c 0,170,171
 123 419 123 419 123 394 c 0,172,173
 123 349 123 349 123 318 c 256,174,175
 123 287 123 287 123 287 c 1,150,151
EndSplineSet
EndChar

StartChar: J
Encoding: 74 74 26
Width: 533
GlyphClass: 1
Flags: W
LayerCount: 2
Fore
SplineSet
41 266 m 1,0,1
 41 266 41 266 82 266 c 256,2,3
 123 266 123 266 123 266 c 257,4,5
 123 266 123 266 123 264 c 0,6,7
 123 261 123 261 123 246 c 0,8,9
 123 215 123 215 143 210 c 0,10,11
 164 205 164 205 164 205 c 2,12,13
 179 205 179 205 210 205 c 256,14,15
 241 205 241 205 266 205 c 1,16,17
 266 205 266 205 258 194 c 0,18,19
 250 184 250 184 240 170 c 0,20,21
 228 153 228 153 216 138 c 0,22,23
 205 123 205 123 205 123 c 257,24,25
 205 123 205 123 207 113 c 0,26,27
 210 102 210 102 225 102 c 1,28,29
 225 102 225 102 237 118 c 0,30,31
 248 133 248 133 261 149 c 0,32,33
 271 163 271 163 279 174 c 0,34,35
 287 184 287 184 287 184 c 257,36,37
 287 184 287 184 283 202 c 0,38,39
 279 219 279 219 285 232 c 0,40,41
 287 238 287 238 293 242 c 0,42,43
 298 246 298 246 307 246 c 1,44,45
 307 246 307 246 307 256 c 256,46,47
 307 266 307 266 307 266 c 257,48,49
 307 266 307 266 306 287 c 0,50,51
 304 307 304 307 287 307 c 0,52,53
 270 308 270 308 248 307 c 0,54,55
 225 307 225 307 225 307 c 1,56,57
 241 307 241 307 225 297 c 0,58,59
 210 287 210 287 225 287 c 0,60,61
 235 287 235 287 245 287 c 0,62,63
 256 287 256 287 266 287 c 0,64,65
 282 287 282 287 282 256 c 256,66,67
 282 225 282 225 266 225 c 0,68,69
 236 225 236 225 187 225 c 256,70,71
 138 225 138 225 164 225 c 1,72,73
 164 225 164 225 154 228 c 0,74,75
 143 230 143 230 143 246 c 0,76,77
 143 276 143 276 143 297 c 256,78,79
 143 318 143 318 143 348 c 0,80,81
 144 363 144 363 164 366 c 256,82,83
 184 369 184 369 184 369 c 1,84,85
 225 369 225 369 236 369 c 0,86,87
 246 369 246 369 266 369 c 2,88,89
 266 369 266 369 300 369 c 0,90,91
 333 369 333 369 374 369 c 0,92,93
 402 369 402 369 428 369 c 256,94,95
 454 369 454 369 471 369 c 1,96,97
 471 369 471 369 481 365 c 0,98,99
 492 362 492 362 500 341 c 0,100,101
 505 329 505 329 509 311 c 0,102,103
 512 293 512 293 512 266 c 0,104,105
 512 236 512 236 501 199 c 0,106,107
 491 163 491 163 476 128 c 0,108,109
 454 76 454 76 432 38 c 256,110,111
 410 0 410 0 410 0 c 1,112,113
 410 -20 410 -20 410 -61 c 1,114,115
 399 -61 399 -61 379 -61 c 256,116,117
 359 -61 359 -61 333 -61 c 0,118,119
 286 -61 286 -61 228 -61 c 0,120,121
 169 -61 169 -61 123 -61 c 1,122,123
 123 -41 123 -41 123 0 c 1,124,125
 123 0 123 0 103 44 c 0,126,127
 82 88 82 88 64 146 c 0,128,129
 54 177 54 177 48 208 c 0,130,131
 41 239 41 239 41 266 c 1,0,1
20 307 m 2,132,133
 20 307 20 307 20 328 c 0,134,135
 20 348 20 348 20 348 c 257,136,137
 20 348 20 348 21 351 c 0,138,139
 21 355 21 355 23 358 c 0,140,141
 25 362 25 362 29 365 c 0,142,143
 33 369 33 369 41 369 c 2,144,145
 41 369 41 369 72 369 c 0,146,147
 102 369 102 369 102 369 c 257,148,149
 102 369 102 369 113 366 c 0,150,151
 123 364 123 364 123 348 c 2,152,153
 123 348 123 348 123 328 c 0,154,155
 123 307 123 307 123 307 c 2,156,157
 123 293 123 293 110 286 c 0,158,159
 96 278 96 278 79 277 c 0,160,161
 58 275 58 275 39 283 c 0,162,163
 20 290 20 290 20 307 c 2,132,133
430 389 m 257,164,165
 430 389 430 389 411 389 c 256,166,167
 392 389 392 389 371 389 c 0,168,169
 354 389 354 389 341 389 c 256,170,171
 328 389 328 389 328 389 c 257,172,173
 328 389 328 389 328 410 c 256,174,175
 328 431 328 431 328 459 c 0,176,177
 328 492 328 492 328 523 c 0,178,179
 328 553 328 553 328 553 c 2,180,181
 328 584 328 584 307 589 c 0,182,183
 287 594 287 594 287 594 c 257,184,185
 287 594 287 594 271 594 c 256,186,187
 255 594 255 594 234 594 c 0,188,189
 209 594 209 594 187 594 c 0,190,191
 164 594 164 594 164 594 c 257,192,193
 164 594 164 594 143 589 c 0,194,195
 123 584 123 584 123 553 c 1,196,197
 123 553 123 553 123 553 c 257,198,199
 123 553 123 553 123 553 c 1,200,201
 123 522 123 522 82 522 c 256,202,203
 41 522 41 522 39 553 c 1,204,205
 41 553 41 553 41 563 c 256,206,207
 41 573 41 573 41 573 c 2,208,209
 41 620 41 620 69 648 c 256,210,211
 97 676 97 676 143 676 c 2,212,213
 143 676 143 676 170 676 c 0,214,215
 196 676 196 676 230 676 c 0,216,217
 272 676 272 676 310 676 c 256,218,219
 348 676 348 676 348 676 c 2,220,221
 393 676 393 676 411 651 c 0,222,223
 430 626 430 626 430 596 c 2,224,225
 430 596 430 596 430 595 c 256,226,227
 430 594 430 594 430 594 c 257,228,229
 430 594 430 594 430 567 c 0,230,231
 430 541 430 541 430 507 c 0,232,233
 430 465 430 465 430 427 c 256,234,235
 430 389 430 389 430 389 c 257,164,165
EndSplineSet
EndChar

StartChar: K
Encoding: 75 75 27
Width: 676
GlyphClass: 1
Flags: W
LayerCount: 2
Fore
SplineSet
256 266 m 1,0,1
 256 266 256 266 266 266 c 256,2,3
 276 266 276 266 276 266 c 257,4,5
 276 266 276 266 276 264 c 0,6,7
 276 261 276 261 276 246 c 0,8,9
 276 215 276 215 297 210 c 0,10,11
 317 205 317 205 317 205 c 2,12,13
 333 205 333 205 364 205 c 0,14,15
 394 205 394 205 420 205 c 1,16,17
 404 184 404 184 381 154 c 0,18,19
 358 123 358 123 358 123 c 257,20,21
 358 123 358 123 361 113 c 0,22,23
 364 102 364 102 379 102 c 1,24,25
 387 116 387 116 414 150 c 0,26,27
 440 184 440 184 440 184 c 257,28,29
 440 184 440 184 436 202 c 0,30,31
 432 219 432 219 438 232 c 0,32,33
 441 238 441 238 446 242 c 0,34,35
 452 246 452 246 461 246 c 1,36,37
 461 246 461 246 461 256 c 256,38,39
 461 266 461 266 461 266 c 257,40,41
 461 266 461 266 459 287 c 0,42,43
 458 307 458 307 440 307 c 0,44,45
 425 307 425 307 410 307 c 0,46,47
 394 307 394 307 379 307 c 256,48,49
 364 307 364 307 364 297 c 256,50,51
 364 287 364 287 379 287 c 256,52,53
 394 287 394 287 399 287 c 256,54,55
 404 287 404 287 420 287 c 0,56,57
 435 287 435 287 435 256 c 256,58,59
 435 225 435 225 420 225 c 0,60,61
 389 225 389 225 340 225 c 0,62,63
 292 225 292 225 317 225 c 1,64,65
 317 225 317 225 307 228 c 0,66,67
 297 230 297 230 297 246 c 0,68,69
 297 276 297 276 297 297 c 256,70,71
 297 318 297 318 297 348 c 0,72,73
 297 363 297 363 318 366 c 0,74,75
 338 369 338 369 338 369 c 2,76,77
 339 369 339 369 385 369 c 0,78,79
 430 369 430 369 483 369 c 0,80,81
 519 369 519 369 552 369 c 256,82,83
 585 369 585 369 604 369 c 1,84,85
 604 369 604 369 614 365 c 0,86,87
 625 362 625 362 634 341 c 0,88,89
 639 329 639 329 642 311 c 256,90,91
 645 293 645 293 645 266 c 0,92,93
 645 252 645 252 635 214 c 0,94,95
 624 175 624 175 611 132 c 0,96,97
 594 80 594 80 579 38 c 0,98,99
 564 -5 564 -5 563 0 c 1,100,101
 563 -20 563 -20 563 -61 c 1,102,103
 543 -61 543 -61 494 -61 c 256,104,105
 445 -61 445 -61 390 -61 c 0,106,107
 360 -61 360 -61 331 -61 c 256,108,109
 302 -61 302 -61 276 -61 c 1,110,111
 276 -41 276 -41 276 0 c 1,112,113
 276 0 276 0 271 44 c 256,114,115
 266 88 266 88 262 146 c 0,116,117
 259 177 259 177 258 208 c 0,118,119
 256 239 256 239 256 266 c 1,0,1
256 389 m 257,120,121
 256 389 256 389 256 410 c 0,122,123
 256 430 256 430 256 430 c 2,124,125
 256 455 256 455 292 462 c 256,126,127
 328 469 328 469 348 453 c 0,128,129
 353 448 353 448 356 443 c 0,130,131
 358 437 358 437 358 430 c 2,132,133
 358 430 358 430 358 410 c 0,134,135
 358 389 358 389 358 389 c 257,136,137
 358 389 358 389 345 389 c 256,138,139
 332 389 332 389 315 389 c 0,140,141
 294 389 294 389 275 389 c 256,142,143
 256 389 256 389 256 389 c 257,120,121
461 389 m 1,144,145
 461 389 461 389 461 423 c 0,146,147
 461 458 461 458 461 502 c 0,148,149
 461 557 461 557 461 606 c 256,150,151
 461 655 461 655 461 655 c 2,152,153
 461 686 461 686 502 686 c 256,154,155
 543 686 543 686 543 655 c 2,156,157
 543 655 543 655 543 621 c 256,158,159
 543 587 543 587 543 542 c 0,160,161
 543 488 543 488 543 438 c 0,162,163
 543 389 543 389 543 389 c 257,164,165
 543 389 543 389 502 389 c 0,166,167
 460 389 460 389 461 389 c 1,144,145
51 287 m 2,168,169
 20 287 20 287 20 328 c 256,170,171
 20 369 20 369 51 369 c 2,172,173
 51 369 51 369 80 369 c 256,174,175
 109 369 109 369 147 369 c 0,176,177
 193 369 193 369 235 369 c 0,178,179
 276 369 276 369 276 369 c 257,180,181
 276 369 276 369 276 328 c 256,182,183
 276 287 276 287 276 287 c 257,184,185
 276 287 276 287 247 287 c 256,186,187
 218 287 218 287 181 287 c 0,188,189
 135 287 135 287 93 287 c 256,190,191
 51 287 51 287 51 287 c 2,168,169
EndSplineSet
EndChar

StartChar: L
Encoding: 76 76 28
Width: 656
GlyphClass: 1
Flags: W
LayerCount: 2
Fore
SplineSet
594 -61 m 1,0,1
 498 -61 498 -61 307 -61 c 1,2,3
 307 -41 307 -41 307 0 c 0,4,5
 307 7 307 7 270 35 c 256,6,7
 233 63 233 63 185 95 c 0,8,9
 127 136 127 136 74 170 c 0,10,11
 20 205 20 205 20 205 c 1,12,13
 20 220 20 220 28 243 c 256,14,15
 36 266 36 266 82 266 c 0,16,17
 88 266 88 266 101 260 c 0,18,19
 114 253 114 253 130 245 c 0,20,21
 154 231 154 231 180 218 c 0,22,23
 207 205 207 205 225 205 c 0,24,25
 241 205 241 205 243 215 c 0,26,27
 246 225 246 225 246 225 c 257,28,29
 246 225 246 225 246 281 c 0,30,31
 246 336 246 336 246 408 c 0,32,33
 246 439 246 439 246 470 c 256,34,35
 246 501 246 501 246 530 c 0,36,37
 246 583 246 583 246 619 c 256,38,39
 246 655 246 655 246 655 c 2,40,41
 246 686 246 686 287 686 c 256,42,43
 328 686 328 686 328 655 c 2,44,45
 328 655 328 655 327 602 c 0,46,47
 327 550 327 550 327 481 c 0,48,49
 327 452 327 452 328 422 c 0,50,51
 328 393 328 393 328 365 c 0,52,53
 328 315 328 315 328 280 c 0,54,55
 328 246 328 246 328 246 c 2,56,57
 328 215 328 215 348 210 c 0,58,59
 369 205 369 205 369 205 c 2,60,61
 384 205 384 205 433 205 c 0,62,63
 481 205 481 205 512 205 c 256,64,65
 543 205 543 205 548 215 c 256,66,67
 553 225 553 225 553 225 c 257,68,69
 553 225 553 225 556 225 c 0,70,71
 558 225 558 225 573 225 c 2,72,73
 573 225 573 225 594 225 c 0,74,75
 614 225 614 225 614 225 c 257,76,77
 614 225 614 225 625 228 c 0,78,79
 635 230 635 230 635 246 c 1,80,81
 635 246 635 246 635 228 c 0,82,83
 635 209 635 209 635 186 c 0,84,85
 635 157 635 157 635 130 c 256,86,87
 635 103 635 103 635 102 c 0,88,89
 635 87 635 87 614 51 c 0,90,91
 594 15 594 15 594 0 c 256,92,93
 594 -15 594 -15 594 -31 c 256,94,95
 594 -47 594 -47 594 -61 c 1,0,1
430 389 m 0,96,97
 430 374 430 374 440 374 c 0,98,99
 451 374 451 374 451 389 c 0,100,101
 451 420 451 420 492 420 c 0,102,103
 532 420 532 420 532 389 c 0,104,105
 532 374 532 374 543 374 c 0,106,107
 553 374 553 374 553 389 c 256,108,109
 553 404 553 404 594 402 c 0,110,111
 635 399 635 399 635 369 c 2,112,113
 635 369 635 369 635 353 c 256,114,115
 635 337 635 337 635 317 c 0,116,117
 635 298 635 298 635 282 c 256,118,119
 635 266 635 266 635 266 c 2,120,121
 635 236 635 236 594 236 c 256,122,123
 553 236 553 236 553 266 c 2,124,125
 553 266 553 266 553 287 c 0,126,127
 553 307 553 307 553 307 c 2,128,129
 553 323 553 323 543 323 c 0,130,131
 532 323 532 323 532 307 c 2,132,133
 532 307 532 307 532 276 c 0,134,135
 532 246 532 246 532 246 c 2,136,137
 532 215 532 215 492 215 c 0,138,139
 451 215 451 215 451 246 c 2,140,141
 451 246 451 246 451 276 c 0,142,143
 451 307 451 307 451 307 c 2,144,145
 451 322 451 322 441 323 c 0,146,147
 431 323 431 323 430 309 c 0,148,149
 430 308 430 308 430 308 c 257,150,151
 430 308 430 308 430 307 c 2,152,153
 430 307 430 307 430 276 c 0,154,155
 430 246 430 246 430 246 c 2,156,157
 430 215 430 215 389 215 c 256,158,159
 348 215 348 215 348 246 c 2,160,161
 348 246 348 246 348 264 c 0,162,163
 348 283 348 283 348 307 c 0,164,165
 348 336 348 336 348 363 c 0,166,167
 348 389 348 389 348 389 c 2,168,169
 348 420 348 420 389 420 c 256,170,171
 430 420 430 420 430 389 c 0,96,97
EndSplineSet
EndChar

StartChar: M
Encoding: 77 77 29
Width: 451
GlyphClass: 1
Flags: W
LayerCount: 2
Fore
SplineSet
225 553 m 2,0,1
 225 553 225 553 225 515 c 0,2,3
 225 476 225 476 225 451 c 0,4,5
 225 420 225 420 184 420 c 256,6,7
 143 420 143 420 143 451 c 2,8,9
 143 451 143 451 143 464 c 256,10,11
 143 477 143 477 143 494 c 0,12,13
 143 515 143 515 143 534 c 256,14,15
 143 553 143 553 143 553 c 2,16,17
 143 568 143 568 133 568 c 256,18,19
 123 568 123 568 123 553 c 2,20,21
 123 553 123 553 123 540 c 256,22,23
 123 527 123 527 123 509 c 0,24,25
 123 489 123 489 123 470 c 256,26,27
 123 451 123 451 123 451 c 2,28,29
 123 420 123 420 82 420 c 256,30,31
 41 420 41 420 41 451 c 0,32,33
 41 519 41 519 41 655 c 0,34,35
 41 686 41 686 82 686 c 256,36,37
 123 686 123 686 123 655 c 0,38,39
 123 640 123 640 133 640 c 256,40,41
 143 640 143 640 143 655 c 0,42,43
 143 686 143 686 184 686 c 256,44,45
 225 686 225 686 225 655 c 0,46,47
 225 640 225 640 236 640 c 0,48,49
 246 640 246 640 246 655 c 0,50,51
 246 686 246 686 287 686 c 256,52,53
 328 686 328 686 328 655 c 0,54,55
 328 587 328 587 328 451 c 0,56,57
 328 420 328 420 287 420 c 256,58,59
 246 420 246 420 246 451 c 2,60,61
 246 451 246 451 246 464 c 256,62,63
 246 477 246 477 246 494 c 0,64,65
 246 515 246 515 246 534 c 256,66,67
 246 553 246 553 246 553 c 2,68,69
 246 568 246 568 236 568 c 0,70,71
 225 568 225 568 225 553 c 2,0,1
389 -61 m 1,72,73
 294 -61 294 -61 102 -61 c 1,74,75
 102 20 102 20 102 184 c 0,76,77
 102 194 102 194 85 208 c 0,78,79
 67 222 67 222 49 239 c 0,80,81
 37 250 37 250 29 262 c 0,82,83
 20 274 20 274 20 287 c 0,84,85
 20 302 20 302 20 348 c 256,86,87
 20 394 20 394 20 430 c 1,88,89
 20 415 20 415 31 412 c 0,90,91
 41 410 41 410 41 410 c 2,92,93
 59 410 59 410 86 410 c 256,94,95
 113 410 113 410 143 410 c 0,96,97
 198 410 198 410 253 410 c 0,98,99
 307 410 307 410 328 410 c 1,100,101
 328 410 328 410 323 389 c 0,102,103
 317 369 317 369 287 369 c 2,104,105
 287 369 287 369 243 369 c 0,106,107
 200 369 200 369 184 369 c 0,108,109
 154 369 154 369 138 361 c 0,110,111
 123 353 123 353 123 307 c 0,112,113
 123 292 123 292 133 292 c 256,114,115
 143 292 143 292 143 307 c 0,116,117
 143 338 143 338 148 343 c 0,118,119
 154 348 154 348 184 348 c 0,120,121
 218 348 218 348 287 348 c 0,122,123
 298 348 298 348 307 353 c 256,124,125
 316 358 316 358 324 365 c 0,126,127
 340 379 340 379 354 394 c 0,128,129
 369 410 369 410 389 410 c 2,130,131
 389 410 389 410 399 410 c 0,132,133
 410 410 410 410 410 410 c 257,134,135
 410 410 410 410 420 414 c 256,136,137
 430 418 430 418 430 430 c 1,138,139
 430 430 430 430 430 411 c 0,140,141
 430 393 430 393 430 367 c 0,142,143
 430 336 430 336 430 305 c 0,144,145
 430 275 430 275 430 266 c 0,146,147
 430 251 430 251 410 225 c 0,148,149
 389 200 389 200 389 184 c 0,150,151
 389 178 389 178 389 147 c 256,152,153
 389 116 389 116 389 78 c 0,154,155
 389 32 389 32 389 -11 c 0,156,157
 389 -53 389 -53 389 -61 c 1,72,73
430 553 m 0,158,159
 430 541 430 541 430 533 c 0,160,161
 430 524 430 524 430 518 c 0,162,163
 430 482 430 482 430 490 c 0,164,165
 430 497 430 497 430 451 c 0,166,167
 430 420 430 420 389 420 c 256,168,169
 348 420 348 420 348 451 c 2,170,171
 348 451 348 451 348 466 c 0,172,173
 348 482 348 482 348 503 c 0,174,175
 348 528 348 528 348 551 c 0,176,177
 348 573 348 573 348 573 c 2,178,179
 348 589 348 589 389 586 c 0,180,181
 430 584 430 584 430 553 c 0,158,159
EndSplineSet
EndChar

StartChar: N
Encoding: 78 78 30
Width: 451
GlyphClass: 1
Flags: W
LayerCount: 2
Fore
SplineSet
225 451 m 2,0,1
 225 420 225 420 184 420 c 256,2,3
 143 420 143 420 143 451 c 2,4,5
 143 451 143 451 143 464 c 256,6,7
 143 477 143 477 143 494 c 0,8,9
 143 515 143 515 143 534 c 256,10,11
 143 553 143 553 143 553 c 2,12,13
 143 568 143 568 133 568 c 256,14,15
 123 568 123 568 123 553 c 2,16,17
 123 553 123 553 123 540 c 256,18,19
 123 527 123 527 123 509 c 0,20,21
 123 489 123 489 123 470 c 256,22,23
 123 451 123 451 123 451 c 2,24,25
 123 420 123 420 82 420 c 256,26,27
 41 420 41 420 41 451 c 0,28,29
 41 519 41 519 41 655 c 0,30,31
 41 686 41 686 82 686 c 256,32,33
 123 686 123 686 123 655 c 0,34,35
 123 640 123 640 133 640 c 256,36,37
 143 640 143 640 143 655 c 0,38,39
 143 686 143 686 184 686 c 256,40,41
 225 686 225 686 225 655 c 2,42,43
 225 655 225 655 225 629 c 0,44,45
 225 602 225 602 225 568 c 0,46,47
 225 526 225 526 225 489 c 0,48,49
 225 451 225 451 225 451 c 2,0,1
389 -61 m 1,50,51
 294 -61 294 -61 102 -61 c 1,52,53
 102 20 102 20 102 184 c 0,54,55
 102 194 102 194 85 208 c 0,56,57
 67 222 67 222 49 239 c 0,58,59
 37 250 37 250 29 262 c 0,60,61
 20 274 20 274 20 287 c 0,62,63
 20 294 20 294 20 314 c 0,64,65
 20 333 20 333 20 356 c 0,66,67
 20 384 20 384 20 407 c 256,68,69
 20 430 20 430 20 430 c 1,70,71
 21 414 21 414 31 412 c 256,72,73
 41 410 41 410 41 410 c 257,74,75
 41 410 41 410 71 410 c 0,76,77
 102 410 102 410 135 410 c 0,78,79
 162 410 162 410 184 410 c 0,80,81
 205 410 205 410 205 410 c 2,82,83
 220 410 220 410 233 422 c 0,84,85
 246 435 246 435 246 451 c 1,86,87
 257 451 257 451 266 447 c 0,88,89
 275 444 275 444 280 438 c 0,90,91
 298 420 298 420 289 395 c 0,92,93
 280 369 280 369 246 369 c 2,94,95
 246 369 246 369 223 369 c 256,96,97
 200 369 200 369 184 369 c 0,98,99
 154 369 154 369 138 361 c 0,100,101
 123 353 123 353 123 307 c 0,102,103
 123 292 123 292 133 292 c 256,104,105
 143 292 143 292 143 307 c 0,106,107
 143 338 143 338 148 343 c 0,108,109
 154 348 154 348 184 348 c 0,110,111
 205 348 205 348 246 348 c 0,112,113
 266 348 266 348 280 363 c 0,114,115
 295 378 295 378 311 392 c 0,116,117
 319 400 319 400 328 405 c 256,118,119
 337 410 337 410 348 410 c 2,120,121
 348 410 348 410 379 410 c 256,122,123
 410 410 410 410 410 410 c 257,124,125
 410 410 410 410 420 414 c 256,126,127
 430 418 430 418 430 430 c 1,128,129
 430 430 430 430 430 411 c 0,130,131
 430 393 430 393 430 367 c 0,132,133
 430 336 430 336 430 305 c 0,134,135
 430 275 430 275 430 266 c 0,136,137
 430 251 430 251 410 225 c 0,138,139
 389 200 389 200 389 184 c 0,140,141
 389 178 389 178 389 147 c 256,142,143
 389 116 389 116 389 78 c 0,144,145
 389 32 389 32 389 -11 c 0,146,147
 389 -53 389 -53 389 -61 c 1,50,51
246 492 m 257,148,149
 246 492 246 492 246 533 c 0,150,151
 246 573 246 573 246 573 c 2,152,153
 246 604 246 604 287 604 c 256,154,155
 328 604 328 604 328 573 c 0,156,157
 328 558 328 558 338 558 c 256,158,159
 348 558 348 558 348 573 c 0,160,161
 348 589 348 589 389 586 c 0,162,163
 430 584 430 584 430 553 c 0,164,165
 430 527 430 527 430 517 c 0,166,167
 430 506 430 506 430 451 c 0,168,169
 430 420 430 420 389 420 c 256,170,171
 348 420 348 420 348 451 c 2,172,173
 348 451 348 451 348 471 c 0,174,175
 348 492 348 492 348 492 c 2,176,177
 348 507 348 507 338 507 c 256,178,179
 328 507 328 507 328 492 c 2,180,181
 328 492 328 492 328 468 c 0,182,183
 328 445 328 445 328 430 c 0,184,185
 328 417 328 417 317 413 c 0,186,187
 307 410 307 410 307 410 c 1,188,189
 307 440 307 440 284 456 c 0,190,191
 261 471 261 471 246 471 c 1,192,193
 246 471 246 471 246 481 c 0,194,195
 246 492 246 492 246 492 c 257,148,149
EndSplineSet
EndChar

StartChar: O
Encoding: 79 79 31
Width: 553
GlyphClass: 1
Flags: W
LayerCount: 2
Fore
SplineSet
20 266 m 2,0,1
 20 266 20 266 20 290 c 256,2,3
 20 314 20 314 20 345 c 0,4,5
 20 382 20 382 20 416 c 0,6,7
 20 451 20 451 20 451 c 2,8,9
 20 460 20 460 24 467 c 0,10,11
 28 473 28 473 34 477 c 0,12,13
 48 488 48 488 65 490 c 256,14,15
 82 492 82 492 82 492 c 1,16,17
 82 509 82 509 82 526 c 256,18,19
 82 543 82 543 82 573 c 0,20,21
 82 635 82 635 119 655 c 0,22,23
 155 676 155 676 184 676 c 2,24,25
 184 676 184 676 219 676 c 0,26,27
 253 676 253 676 298 676 c 0,28,29
 352 676 352 676 401 676 c 0,30,31
 451 676 451 676 451 676 c 2,32,33
 497 676 497 676 515 650 c 0,34,35
 532 625 532 625 532 594 c 0,36,37
 532 574 532 574 532 518 c 256,38,39
 532 462 532 462 532 397 c 0,40,41
 532 363 532 363 532 329 c 256,42,43
 532 295 532 295 532 266 c 0,44,45
 532 236 532 236 522 199 c 0,46,47
 511 163 511 163 496 128 c 0,48,49
 474 76 474 76 452 38 c 256,50,51
 430 0 430 0 430 0 c 1,52,53
 430 -20 430 -20 430 -61 c 1,54,55
 419 -61 419 -61 399 -61 c 0,56,57
 380 -61 380 -61 354 -61 c 0,58,59
 306 -61 306 -61 248 -61 c 256,60,61
 190 -61 190 -61 143 -61 c 1,62,63
 143 -41 143 -41 143 0 c 1,64,65
 143 0 143 0 117 38 c 0,66,67
 90 77 90 77 64 128 c 0,68,69
 46 163 46 163 33 199 c 0,70,71
 20 236 20 236 20 266 c 2,0,1
348 594 m 257,72,73
 348 594 348 594 330 594 c 0,74,75
 311 594 311 594 287 594 c 0,76,77
 258 594 258 594 231 594 c 0,78,79
 205 594 205 594 205 594 c 257,80,81
 205 594 205 594 184 589 c 0,82,83
 164 584 164 584 164 553 c 0,84,85
 164 538 164 538 164 511 c 0,86,87
 164 483 164 483 164 471 c 0,88,89
 164 456 164 456 151 453 c 0,90,91
 138 451 138 451 123 451 c 1,92,93
 123 431 123 431 123 395 c 0,94,95
 123 360 123 360 123 327 c 0,96,97
 123 308 123 308 123 293 c 0,98,99
 123 277 123 277 123 266 c 0,100,101
 123 220 123 220 143 212 c 0,102,103
 164 205 164 205 164 205 c 2,104,105
 171 205 171 205 196 205 c 256,106,107
 221 205 221 205 251 205 c 0,108,109
 287 205 287 205 317 205 c 0,110,111
 348 205 348 205 348 205 c 257,112,113
 348 205 348 205 340 194 c 0,114,115
 332 184 332 184 322 170 c 0,116,117
 309 153 309 153 298 138 c 256,118,119
 287 123 287 123 287 123 c 257,120,121
 287 123 287 123 289 113 c 0,122,123
 292 102 292 102 307 102 c 1,124,125
 307 102 307 102 319 118 c 0,126,127
 330 133 330 133 343 149 c 0,128,129
 353 163 353 163 361 174 c 0,130,131
 369 184 369 184 369 184 c 257,132,133
 369 184 369 184 379 200 c 0,134,135
 389 215 389 215 389 246 c 2,136,137
 389 246 389 246 389 256 c 256,138,139
 389 266 389 266 389 266 c 257,140,141
 389 266 389 266 389 303 c 256,142,143
 389 340 389 340 389 388 c 0,144,145
 389 447 389 447 389 500 c 256,146,147
 389 553 389 553 389 553 c 2,148,149
 389 584 389 584 369 589 c 0,150,151
 348 594 348 594 348 594 c 257,72,73
EndSplineSet
EndChar

StartChar: P
Encoding: 80 80 32
Width: 492
GlyphClass: 1
Flags: W
LayerCount: 2
Fore
SplineSet
102 676 m 1,0,1
 102 696 102 696 102 737 c 1,2,3
 127 737 127 737 157 737 c 0,4,5
 186 737 186 737 216 737 c 0,6,7
 271 737 271 737 320 737 c 256,8,9
 369 737 369 737 389 737 c 1,10,11
 389 717 389 717 389 676 c 1,12,13
 389 676 389 676 409 658 c 0,14,15
 430 640 430 640 448 609 c 0,16,17
 458 593 458 593 464 574 c 0,18,19
 471 554 471 554 471 532 c 0,20,21
 471 488 471 488 471 433 c 256,22,23
 471 378 471 378 471 322 c 0,24,25
 471 218 471 218 471 129 c 256,26,27
 471 40 471 40 471 20 c 0,28,29
 471 -10 471 -10 430 -10 c 256,30,31
 389 -10 389 -10 389 20 c 2,32,33
 389 20 389 20 389 60 c 256,34,35
 389 100 389 100 389 153 c 0,36,37
 389 217 389 217 389 279 c 0,38,39
 389 340 389 340 389 348 c 0,40,41
 389 364 389 364 379 364 c 256,42,43
 369 364 369 364 369 348 c 0,44,45
 369 345 369 345 369 305 c 0,46,47
 369 264 369 264 369 212 c 0,48,49
 369 148 369 148 369 89 c 0,50,51
 369 29 369 29 369 20 c 0,52,53
 369 -10 369 -10 328 -10 c 256,54,55
 287 -10 287 -10 287 20 c 0,56,57
 287 27 287 27 287 58 c 256,58,59
 287 89 287 89 287 127 c 0,60,61
 287 173 287 173 287 215 c 0,62,63
 287 258 287 258 287 266 c 0,64,65
 287 282 287 282 276 282 c 0,66,67
 266 282 266 282 266 266 c 0,68,69
 266 262 266 262 266 232 c 256,70,71
 266 202 266 202 266 164 c 0,72,73
 266 117 266 117 266 73 c 256,74,75
 266 29 266 29 266 20 c 0,76,77
 266 -10 266 -10 225 -10 c 256,78,79
 184 -10 184 -10 184 20 c 0,80,81
 184 27 184 27 184 61 c 0,82,83
 184 94 184 94 184 133 c 0,84,85
 184 182 184 182 184 224 c 256,86,87
 184 266 184 266 184 266 c 1,88,89
 138 266 138 266 110 294 c 0,90,91
 82 323 82 323 82 369 c 1,92,93
 82 369 82 369 65 370 c 0,94,95
 48 372 48 372 34 383 c 0,96,97
 28 387 28 387 24 394 c 0,98,99
 20 400 20 400 20 410 c 2,100,101
 20 410 20 410 20 425 c 0,102,103
 20 441 20 441 20 462 c 0,104,105
 20 487 20 487 20 510 c 0,106,107
 20 532 20 532 20 532 c 2,108,109
 20 559 20 559 27 580 c 0,110,111
 34 602 34 602 44 618 c 0,112,113
 62 648 62 648 82 662 c 256,114,115
 102 676 102 676 102 676 c 1,0,1
287 389 m 2,116,117
 287 389 287 389 287 408 c 0,118,119
 287 426 287 426 287 450 c 0,120,121
 287 479 287 479 287 506 c 0,122,123
 287 532 287 532 287 532 c 257,124,125
 287 532 287 532 287 543 c 0,126,127
 287 553 287 553 287 553 c 2,128,129
 287 584 287 584 266 589 c 256,130,131
 245 594 245 594 246 594 c 1,132,133
 246 594 246 594 212 594 c 0,134,135
 179 594 179 594 164 594 c 1,136,137
 164 594 164 594 143 586 c 0,138,139
 123 579 123 579 123 532 c 0,140,141
 123 502 123 502 123 471 c 256,142,143
 123 440 123 440 123 410 c 1,144,145
 138 410 138 410 151 407 c 256,146,147
 164 404 164 404 164 389 c 0,148,149
 164 358 164 358 184 353 c 0,150,151
 205 348 205 348 205 348 c 257,152,153
 205 348 205 348 225 348 c 0,154,155
 246 348 246 348 246 348 c 257,156,157
 246 348 246 348 266 353 c 0,158,159
 287 358 287 358 287 389 c 2,116,117
EndSplineSet
EndChar

StartChar: Q
Encoding: 81 81 33
Width: 901
GlyphClass: 1
Flags: W
LayerCount: 2
Fore
SplineSet
614 41 m 1,0,1
 614 41 614 41 614 82 c 256,2,3
 614 123 614 123 614 123 c 257,4,5
 614 123 614 123 617 123 c 256,6,7
 620 123 620 123 635 123 c 0,8,9
 666 123 666 123 671 143 c 0,10,11
 676 164 676 164 676 164 c 1,12,13
 691 164 691 164 684 202 c 0,14,15
 676 241 676 241 676 266 c 1,16,17
 676 266 676 266 686 258 c 0,18,19
 697 250 697 250 711 240 c 0,20,21
 727 228 727 228 743 216 c 0,22,23
 758 205 758 205 758 205 c 257,24,25
 758 205 758 205 768 207 c 0,26,27
 778 210 778 210 778 225 c 1,28,29
 778 225 778 225 768 233 c 0,30,31
 757 241 757 241 743 251 c 0,32,33
 727 264 727 264 711 275 c 0,34,35
 696 287 696 287 696 287 c 257,36,37
 696 287 696 287 650 297 c 256,38,39
 604 307 604 307 635 307 c 1,40,41
 635 307 635 307 625 307 c 0,42,43
 614 307 614 307 614 307 c 257,44,45
 614 307 614 307 594 306 c 0,46,47
 574 304 574 304 573 287 c 0,48,49
 573 270 573 270 573 248 c 0,50,51
 573 225 573 225 573 225 c 1,52,53
 589 225 589 225 591 218 c 0,54,55
 594 210 594 210 594 225 c 0,56,57
 594 235 594 235 594 245 c 0,58,59
 594 256 594 256 594 266 c 0,60,61
 594 282 594 282 625 282 c 0,62,63
 655 282 655 282 655 266 c 0,64,65
 655 257 655 257 653 247 c 0,66,67
 651 236 651 236 649 226 c 0,68,69
 643 202 643 202 640 183 c 256,70,71
 637 164 637 164 655 164 c 1,72,73
 655 164 655 164 653 154 c 0,74,75
 650 143 650 143 635 143 c 0,76,77
 604 143 604 143 583 143 c 0,78,79
 563 143 563 143 532 143 c 0,80,81
 518 144 518 144 515 164 c 256,82,83
 512 184 512 184 512 184 c 1,84,85
 512 219 512 219 512 247 c 0,86,87
 512 274 512 274 512 348 c 0,88,89
 512 354 512 354 513 361 c 0,90,91
 513 368 513 368 516 375 c 0,92,93
 523 388 523 388 544 399 c 256,94,95
 565 410 565 410 614 410 c 0,96,97
 627 410 627 410 651 410 c 0,98,99
 676 410 676 410 704 410 c 0,100,101
 746 410 746 410 783 410 c 256,102,103
 820 410 820 410 819 410 c 1,104,105
 840 410 840 410 881 410 c 1,106,107
 881 390 881 390 881 341 c 256,108,109
 881 292 881 292 881 236 c 0,110,111
 881 206 881 206 881 177 c 256,112,113
 881 148 881 148 881 123 c 1,114,115
 881 123 881 123 881 123 c 1,116,117
 860 123 860 123 819 123 c 1,118,119
 819 123 819 123 790 102 c 0,120,121
 761 82 761 82 718 64 c 0,122,123
 694 54 694 54 667 48 c 0,124,125
 641 41 641 41 614 41 c 1,0,1
573 41 m 2,126,127
 573 41 573 41 553 41 c 0,128,129
 532 41 532 41 532 41 c 257,130,131
 532 41 532 41 522 44 c 0,132,133
 512 46 512 46 512 61 c 2,134,135
 512 61 512 61 512 82 c 0,136,137
 512 102 512 102 512 102 c 257,138,139
 512 102 512 102 515 113 c 0,140,141
 517 123 517 123 532 123 c 2,142,143
 532 123 532 123 553 123 c 0,144,145
 573 123 573 123 573 123 c 2,146,147
 604 123 604 123 604 82 c 256,148,149
 604 41 604 41 573 41 c 2,126,127
348 0 m 1,150,151
 348 -20 348 -20 348 -61 c 1,152,153
 323 -61 323 -61 294 -61 c 256,154,155
 265 -61 265 -61 235 -61 c 0,156,157
 179 -61 179 -61 130 -61 c 256,158,159
 81 -61 81 -61 61 -61 c 1,160,161
 61 -41 61 -41 61 0 c 1,162,163
 61 0 61 0 56 34 c 256,164,165
 51 68 51 68 44 113 c 0,166,167
 36 167 36 167 28 217 c 0,168,169
 20 266 20 266 20 266 c 2,170,171
 20 280 20 280 20 342 c 0,172,173
 20 405 20 405 20 469 c 0,174,175
 20 512 20 512 20 547 c 256,176,177
 20 582 20 582 20 594 c 0,178,179
 20 625 20 625 38 650 c 0,180,181
 56 676 56 676 102 676 c 2,182,183
 102 676 102 676 124 676 c 0,184,185
 145 676 145 676 172 676 c 0,186,187
 206 676 206 676 236 676 c 256,188,189
 266 676 266 676 266 676 c 2,190,191
 295 676 295 676 332 655 c 0,192,193
 369 635 369 635 369 573 c 0,194,195
 369 543 369 543 369 526 c 256,196,197
 369 509 369 509 369 492 c 1,198,199
 369 492 369 492 386 490 c 256,200,201
 403 488 403 488 417 477 c 0,202,203
 422 473 422 473 426 467 c 0,204,205
 430 460 430 460 430 451 c 2,206,207
 430 451 430 451 430 427 c 256,208,209
 430 403 430 403 430 372 c 0,210,211
 430 335 430 335 430 300 c 0,212,213
 430 266 430 266 430 266 c 2,214,215
 430 239 430 239 423 208 c 0,216,217
 417 177 417 177 407 146 c 0,218,219
 389 88 389 88 369 44 c 0,220,221
 348 0 348 0 348 0 c 1,150,151
164 553 m 2,222,223
 164 553 164 553 164 516 c 256,224,225
 164 479 164 479 164 431 c 0,226,227
 164 372 164 372 164 319 c 256,228,229
 164 266 164 266 164 266 c 257,230,231
 164 266 164 266 164 256 c 256,232,233
 164 246 164 246 164 246 c 2,234,235
 164 215 164 215 174 200 c 0,236,237
 184 184 184 184 184 184 c 257,238,239
 184 184 184 184 192 174 c 0,240,241
 200 163 200 163 210 149 c 0,242,243
 223 133 223 133 234 118 c 0,244,245
 246 102 246 102 246 102 c 1,246,247
 261 102 261 102 264 113 c 0,248,249
 266 123 266 123 266 123 c 257,250,251
 266 123 266 123 258 133 c 0,252,253
 250 144 250 144 240 158 c 0,254,255
 228 174 228 174 216 190 c 0,256,257
 205 205 205 205 205 205 c 257,258,259
 205 205 205 205 238 205 c 256,260,261
 271 205 271 205 287 205 c 1,262,263
 287 205 287 205 307 212 c 0,264,265
 328 220 328 220 328 266 c 0,266,267
 328 277 328 277 328 293 c 0,268,269
 328 308 328 308 328 327 c 0,270,271
 328 360 328 360 328 395 c 0,272,273
 328 431 328 431 328 451 c 1,274,275
 312 451 312 451 300 453 c 0,276,277
 287 456 287 456 287 471 c 0,278,279
 287 483 287 483 287 511 c 0,280,281
 287 538 287 538 287 553 c 0,282,283
 287 584 287 584 266 589 c 0,284,285
 246 594 246 594 246 594 c 257,286,287
 246 594 246 594 225 594 c 0,288,289
 205 594 205 594 205 594 c 257,290,291
 205 594 205 594 184 589 c 0,292,293
 164 584 164 584 164 553 c 2,222,223
451 348 m 1,294,295
 467 348 467 348 479 348 c 0,296,297
 492 348 492 348 492 348 c 1,298,299
 492 349 492 349 492 307 c 0,300,301
 492 266 492 266 492 266 c 257,302,303
 492 266 492 266 479 266 c 0,304,305
 467 266 467 266 451 266 c 1,306,307
 451 294 451 294 451 348 c 1,294,295
307 266 m 1,308,309
 294 266 294 266 266 266 c 0,310,311
 236 266 236 266 236 307 c 256,312,313
 236 348 236 348 266 348 c 0,314,315
 276 348 276 348 283 348 c 256,316,317
 290 348 290 348 307 348 c 1,318,319
 307 348 307 348 307 317 c 0,320,321
 307 287 307 287 307 266 c 1,308,309
EndSplineSet
EndChar

StartChar: R
Encoding: 82 82 34
Width: 656
GlyphClass: 1
Flags: W
LayerCount: 2
Fore
SplineSet
635 205 m 1,0,1
 635 205 635 205 598 181 c 256,2,3
 561 157 561 157 513 125 c 0,4,5
 454 86 454 86 401 47 c 0,6,7
 348 9 348 9 348 0 c 0,8,9
 348 -15 348 -15 348 -30 c 256,10,11
 348 -45 348 -45 348 -61 c 1,12,13
 252 -61 252 -61 61 -61 c 1,14,15
 61 -55 61 -55 61 -35 c 256,16,17
 61 -15 61 -15 61 0 c 256,18,19
 61 15 61 15 41 51 c 0,20,21
 20 87 20 87 20 102 c 0,22,23
 20 164 20 164 20 236 c 0,24,25
 20 307 20 307 20 369 c 0,26,27
 20 399 20 399 61 402 c 0,28,29
 102 404 102 404 102 389 c 256,30,31
 102 374 102 374 113 374 c 0,32,33
 123 374 123 374 123 389 c 0,34,35
 123 420 123 420 164 420 c 256,36,37
 205 420 205 420 205 389 c 0,38,39
 205 374 205 374 215 374 c 256,40,41
 225 374 225 374 225 389 c 0,42,43
 225 420 225 420 266 420 c 256,44,45
 307 420 307 420 307 389 c 0,46,47
 307 379 307 379 317 376 c 0,48,49
 328 374 328 374 328 389 c 2,50,51
 328 389 328 389 328 421 c 256,52,53
 328 453 328 453 328 495 c 0,54,55
 328 547 328 547 328 597 c 256,56,57
 328 647 328 647 328 655 c 0,58,59
 328 686 328 686 369 686 c 256,60,61
 410 686 410 686 410 655 c 0,62,63
 410 648 410 648 410 594 c 0,64,65
 410 539 410 539 410 471 c 0,66,67
 410 442 410 442 410 412 c 256,68,69
 410 382 410 382 410 355 c 0,70,71
 410 304 410 304 410 267 c 0,72,73
 410 231 410 231 410 225 c 2,74,75
 410 225 410 225 412 215 c 0,76,77
 415 205 415 205 430 205 c 0,78,79
 441 205 441 205 453 210 c 256,80,81
 465 215 465 215 479 222 c 0,82,83
 503 236 503 236 528 251 c 256,84,85
 553 266 553 266 573 266 c 0,86,87
 623 266 623 266 629 243 c 256,88,89
 635 220 635 220 635 205 c 1,0,1
EndSplineSet
EndChar

StartChar: S
Encoding: 83 83 35
Width: 574
GlyphClass: 1
Flags: W
LayerCount: 2
Fore
SplineSet
133 512 m 0,0,1
 118 512 118 512 115 522 c 0,2,3
 113 532 113 532 113 532 c 2,4,5
 113 548 113 548 125 561 c 0,6,7
 138 573 138 573 154 573 c 0,8,9
 161 573 161 573 194 573 c 256,10,11
 227 573 227 573 266 573 c 0,12,13
 315 573 315 573 357 573 c 256,14,15
 399 573 399 573 399 573 c 2,16,17
 415 573 415 573 415 584 c 0,18,19
 415 594 415 594 399 594 c 2,20,21
 399 594 399 594 368 594 c 0,22,23
 336 594 336 594 295 594 c 0,24,25
 245 594 245 594 199 594 c 0,26,27
 154 594 154 594 154 594 c 2,28,29
 115 594 115 594 103 571 c 0,30,31
 92 548 92 548 92 532 c 1,32,33
 92 532 92 532 72 532 c 0,34,35
 51 532 51 532 51 532 c 2,36,37
 20 532 20 532 20 573 c 256,38,39
 20 614 20 614 51 614 c 2,40,41
 51 614 51 614 102 614 c 0,42,43
 152 614 152 614 219 614 c 0,44,45
 247 614 247 614 276 614 c 256,46,47
 305 614 305 614 332 614 c 0,48,49
 383 614 383 614 419 614 c 256,50,51
 455 614 455 614 461 614 c 0,52,53
 492 614 492 614 527 591 c 0,54,55
 563 568 563 568 563 492 c 0,56,57
 563 478 563 478 558 440 c 0,58,59
 553 403 553 403 546 361 c 0,60,61
 537 310 537 310 530 267 c 0,62,63
 522 225 522 225 522 225 c 1,64,65
 522 130 522 130 522 -61 c 1,66,67
 502 -61 502 -61 453 -61 c 256,68,69
 404 -61 404 -61 349 -61 c 0,70,71
 319 -61 319 -61 290 -61 c 256,72,73
 261 -61 261 -61 236 -61 c 1,74,75
 236 34 236 34 236 225 c 1,76,77
 236 225 236 225 230 269 c 0,78,79
 225 314 225 314 221 371 c 0,80,81
 218 402 218 402 217 433 c 0,82,83
 215 465 215 465 215 492 c 1,84,85
 249 492 249 492 317 492 c 1,86,87
 317 492 317 492 317 471 c 0,88,89
 317 451 317 451 317 451 c 257,90,91
 317 451 317 451 348 453 c 0,92,93
 379 456 379 456 379 471 c 0,94,95
 379 480 379 480 380 484 c 0,96,97
 381 489 381 489 383 489 c 0,98,99
 388 490 388 490 394 481 c 0,100,101
 399 471 399 471 399 471 c 1,102,103
 399 456 399 456 389 443 c 256,104,105
 379 430 379 430 379 430 c 257,106,107
 379 430 379 430 371 420 c 0,108,109
 363 409 363 409 353 395 c 0,110,111
 340 379 340 379 329 363 c 0,112,113
 317 348 317 348 317 348 c 257,114,115
 317 348 317 348 320 338 c 256,116,117
 323 328 323 328 338 328 c 1,118,119
 338 328 338 328 346 338 c 0,120,121
 354 349 354 349 364 363 c 0,122,123
 377 379 377 379 388 394 c 0,124,125
 399 410 399 410 399 410 c 257,126,127
 399 410 399 410 410 425 c 0,128,129
 420 440 420 440 420 471 c 256,130,131
 420 502 420 502 399 507 c 0,132,133
 379 512 379 512 379 512 c 1,134,135
 278 512 278 512 228 512 c 0,136,137
 179 512 179 512 133 512 c 0,0,1
215 635 m 257,138,139
 215 635 215 635 215 655 c 0,140,141
 215 676 215 676 215 676 c 2,142,143
 215 701 215 701 251 708 c 0,144,145
 263 710 263 710 272 710 c 0,146,147
 293 710 293 710 307 698 c 0,148,149
 312 694 312 694 315 689 c 0,150,151
 317 683 317 683 317 676 c 2,152,153
 317 676 317 676 317 655 c 0,154,155
 317 635 317 635 317 635 c 257,156,157
 317 635 317 635 304 635 c 256,158,159
 291 635 291 635 274 635 c 0,160,161
 253 635 253 635 234 635 c 256,162,163
 215 635 215 635 215 635 c 257,138,139
EndSplineSet
EndChar

StartChar: T
Encoding: 84 84 36
Width: 758
GlyphClass: 1
Flags: W
LayerCount: 2
Fore
SplineSet
82 389 m 1,0,1
 61 389 61 389 20 389 c 1,2,3
 20 436 20 436 20 494 c 256,4,5
 20 552 20 552 20 600 c 0,6,7
 20 625 20 625 20 645 c 256,8,9
 20 665 20 665 20 676 c 1,10,11
 41 676 41 676 82 676 c 2,12,13
 82 676 82 676 118 676 c 0,14,15
 155 676 155 676 197 676 c 0,16,17
 225 676 225 676 250 676 c 0,18,19
 274 676 274 676 287 676 c 0,20,21
 364 676 364 676 376 676 c 0,22,23
 389 676 389 676 389 676 c 1,24,25
 389 641 389 641 389 589 c 256,26,27
 389 537 389 537 389 451 c 1,28,29
 389 451 389 451 386 430 c 0,30,31
 383 410 383 410 369 410 c 0,32,33
 338 409 338 409 318 409 c 0,34,35
 297 410 297 410 266 410 c 0,36,37
 251 410 251 410 248 420 c 0,38,39
 246 430 246 430 246 430 c 1,40,41
 246 456 246 456 246 479 c 256,42,43
 246 502 246 502 246 532 c 0,44,45
 246 548 246 548 276 548 c 0,46,47
 307 548 307 548 307 532 c 0,48,49
 307 522 307 522 307 501 c 0,50,51
 307 481 307 481 307 471 c 0,52,53
 307 456 307 456 317 455 c 0,54,55
 328 454 328 454 328 471 c 0,56,57
 328 498 328 498 328 553 c 0,58,59
 327 570 327 570 307 572 c 0,60,61
 287 573 287 573 287 573 c 257,62,63
 287 573 287 573 276 573 c 0,64,65
 266 573 266 573 266 573 c 2,66,67
 236 573 236 573 220 563 c 0,68,69
 205 553 205 553 205 553 c 257,70,71
 205 553 205 553 194 545 c 0,72,73
 184 537 184 537 170 527 c 0,74,75
 153 514 153 514 138 503 c 256,76,77
 123 492 123 492 123 492 c 1,78,79
 123 476 123 476 133 474 c 0,80,81
 143 471 143 471 143 471 c 257,82,83
 143 471 143 471 154 479 c 256,84,85
 165 487 165 487 178 497 c 0,86,87
 195 510 195 510 210 521 c 256,88,89
 225 532 225 532 225 532 c 1,90,91
 225 507 225 507 225 477 c 0,92,93
 224 446 224 446 225 430 c 2,94,95
 225 430 225 430 230 410 c 0,96,97
 236 389 236 389 266 389 c 0,98,99
 282 389 282 389 284 389 c 0,100,101
 287 389 287 389 287 389 c 257,102,103
 287 389 287 389 287 348 c 256,104,105
 287 307 287 307 287 307 c 1,106,107
 260 307 260 307 234 314 c 0,108,109
 207 320 207 320 184 330 c 0,110,111
 140 348 140 348 111 369 c 0,112,113
 82 389 82 389 82 389 c 1,0,1
328 389 m 2,114,115
 328 389 328 389 348 389 c 0,116,117
 369 389 369 389 369 389 c 2,118,119
 384 389 384 389 387 379 c 0,120,121
 389 369 389 369 389 369 c 257,122,123
 389 369 389 369 389 348 c 0,124,125
 389 328 389 328 389 328 c 2,126,127
 389 312 389 312 379 310 c 0,128,129
 369 307 369 307 369 307 c 257,130,131
 369 307 369 307 348 307 c 0,132,133
 328 307 328 307 328 307 c 2,134,135
 297 307 297 307 297 348 c 256,136,137
 297 389 297 389 328 389 c 2,114,115
532 676 m 2,138,139
 563 676 563 676 614 676 c 0,140,141
 666 676 666 676 696 676 c 0,142,143
 706 676 706 676 712 672 c 0,144,145
 719 669 719 669 723 663 c 0,146,147
 731 653 731 653 731 639 c 0,148,149
 731 630 731 630 728 620 c 0,150,151
 719 594 719 594 696 594 c 0,152,153
 650 594 650 594 586 594 c 256,154,155
 522 594 522 594 492 594 c 2,156,157
 492 594 492 594 451 594 c 256,158,159
 410 594 410 594 410 594 c 257,160,161
 410 594 410 594 410 635 c 256,162,163
 410 676 410 676 410 676 c 257,164,165
 410 676 410 676 425 676 c 0,166,167
 441 676 441 676 462 676 c 0,168,169
 487 676 487 676 510 676 c 0,170,171
 532 676 532 676 532 676 c 2,138,139
307 184 m 1,172,173
 307 184 307 184 348 184 c 256,174,175
 389 184 389 184 389 184 c 257,176,177
 389 184 389 184 389 182 c 0,178,179
 389 179 389 179 389 164 c 0,180,181
 389 133 389 133 410 128 c 0,182,183
 430 123 430 123 430 123 c 1,184,185
 452 122 452 122 479 122 c 0,186,187
 507 123 507 123 532 123 c 1,188,189
 532 123 532 123 521 108 c 256,190,191
 510 93 510 93 497 76 c 0,192,193
 487 62 487 62 479 52 c 0,194,195
 471 41 471 41 471 41 c 257,196,197
 471 41 471 41 474 31 c 0,198,199
 476 20 476 20 492 20 c 1,200,201
 492 20 492 20 499 31 c 0,202,203
 507 42 507 42 518 55 c 0,204,205
 530 72 530 72 542 87 c 0,206,207
 553 102 553 102 553 102 c 257,208,209
 553 102 553 102 562 118 c 0,210,211
 572 135 572 135 573 164 c 2,212,213
 573 164 573 164 573 174 c 256,214,215
 573 184 573 184 573 184 c 257,216,217
 573 184 573 184 572 205 c 0,218,219
 570 225 570 225 553 225 c 0,220,221
 536 226 536 226 514 225 c 0,222,223
 492 225 492 225 492 225 c 2,224,225
 476 225 476 225 476 215 c 256,226,227
 476 205 476 205 492 205 c 0,228,229
 501 205 501 205 512 205 c 0,230,231
 522 205 522 205 532 205 c 0,232,233
 548 205 548 205 548 174 c 256,234,235
 548 143 548 143 532 143 c 0,236,237
 502 143 502 143 453 143 c 256,238,239
 404 143 404 143 430 143 c 1,240,241
 430 143 430 143 420 146 c 0,242,243
 410 148 410 148 410 164 c 0,244,245
 410 195 410 195 409 215 c 0,246,247
 409 236 409 236 410 266 c 0,248,249
 410 281 410 281 430 284 c 0,250,251
 451 287 451 287 451 287 c 1,252,253
 485 287 485 287 513 287 c 256,254,255
 541 287 541 287 614 287 c 0,256,257
 620 287 620 287 627 286 c 0,258,259
 634 286 634 286 641 282 c 0,260,261
 654 276 654 276 665 255 c 256,262,263
 676 234 676 234 676 184 c 0,264,265
 676 172 676 172 676 150 c 0,266,267
 676 127 676 127 676 102 c 0,268,269
 676 64 676 64 676 32 c 256,270,271
 676 0 676 0 676 0 c 2,272,273
 676 -20 676 -20 676 -61 c 1,274,275
 656 -61 656 -61 607 -61 c 256,276,277
 558 -61 558 -61 503 -61 c 0,278,279
 473 -61 473 -61 443 -61 c 0,280,281
 414 -61 414 -61 389 -61 c 1,282,283
 389 -61 389 -61 389 -61 c 1,284,285
 389 -41 389 -41 389 0 c 1,286,287
 389 0 389 0 369 24 c 256,288,289
 349 48 349 48 330 87 c 0,290,291
 321 108 321 108 314 133 c 0,292,293
 307 157 307 157 307 184 c 1,172,173
307 225 m 2,294,295
 307 225 307 225 307 246 c 0,296,297
 307 266 307 266 307 266 c 257,298,299
 307 266 307 266 310 276 c 0,300,301
 312 287 312 287 328 287 c 2,302,303
 328 287 328 287 348 287 c 0,304,305
 369 287 369 287 369 287 c 257,306,307
 369 287 369 287 379 284 c 0,308,309
 389 282 389 282 389 266 c 2,310,311
 389 266 389 266 389 246 c 0,312,313
 389 225 389 225 389 225 c 2,314,315
 389 195 389 195 348 195 c 256,316,317
 307 195 307 195 307 225 c 2,294,295
532 307 m 257,318,319
 532 307 532 307 532 339 c 256,320,321
 532 371 532 371 532 412 c 0,322,323
 532 462 532 462 532 507 c 0,324,325
 532 553 532 553 532 553 c 2,326,327
 532 584 532 584 573 584 c 256,328,329
 614 584 614 584 614 553 c 2,330,331
 614 553 614 553 614 521 c 0,332,333
 614 490 614 490 614 448 c 0,334,335
 614 398 614 398 614 353 c 0,336,337
 614 307 614 307 614 307 c 1,338,339
 615 307 615 307 574 307 c 0,340,341
 532 307 532 307 532 307 c 257,318,319
EndSplineSet
EndChar

StartChar: U
Encoding: 85 85 37
Width: 656
GlyphClass: 1
Flags: W
LayerCount: 2
Fore
SplineSet
635 655 m 0,0,1
 635 609 635 609 635 479 c 0,2,3
 635 348 635 348 635 102 c 0,4,5
 635 87 635 87 614 51 c 0,6,7
 594 15 594 15 594 0 c 0,8,9
 594 -20 594 -20 594 -61 c 1,10,11
 498 -61 498 -61 307 -61 c 1,12,13
 307 -46 307 -46 307 -31 c 0,14,15
 307 -15 307 -15 307 0 c 0,16,17
 307 7 307 7 270 35 c 256,18,19
 233 63 233 63 185 95 c 0,20,21
 127 136 127 136 74 170 c 0,22,23
 20 205 20 205 20 205 c 1,24,25
 20 222 20 222 28 244 c 256,26,27
 36 266 36 266 82 266 c 0,28,29
 91 266 91 266 114 253 c 256,30,31
 137 240 137 240 163 226 c 0,32,33
 180 218 180 218 197 211 c 0,34,35
 213 205 213 205 225 205 c 0,36,37
 241 205 241 205 241 212 c 0,38,39
 241 220 241 220 246 225 c 1,40,41
 246 225 246 225 246 246 c 0,42,43
 246 266 246 266 246 266 c 1,44,45
 287 266 287 266 319 266 c 256,46,47
 351 266 351 266 377 266 c 0,48,49
 425 266 425 266 463 266 c 256,50,51
 501 266 501 266 553 266 c 0,52,53
 568 266 568 266 568 276 c 0,54,55
 568 287 568 287 553 287 c 0,56,57
 546 287 546 287 505 287 c 256,58,59
 464 287 464 287 414 287 c 0,60,61
 353 287 353 287 299 287 c 0,62,63
 246 287 246 287 246 287 c 1,64,65
 246 305 246 305 246 346 c 0,66,67
 245 387 245 387 245 435 c 0,68,69
 245 507 245 507 245 575 c 0,70,71
 245 642 245 642 246 655 c 0,72,73
 246 686 246 686 287 686 c 256,74,75
 328 686 328 686 328 655 c 2,76,77
 328 655 328 655 328 609 c 0,78,79
 327 563 327 563 327 510 c 0,80,81
 327 467 327 467 327 431 c 0,82,83
 327 396 327 396 328 389 c 0,84,85
 328 374 328 374 338 374 c 256,86,87
 348 374 348 374 348 389 c 0,88,89
 348 399 348 399 348 445 c 0,90,91
 348 492 348 492 348 546 c 0,92,93
 348 575 348 575 348 604 c 0,94,95
 348 632 348 632 348 655 c 0,96,97
 348 686 348 686 389 686 c 256,98,99
 430 686 430 686 430 655 c 0,100,101
 430 647 430 647 429 599 c 256,102,103
 428 551 428 551 428 500 c 0,104,105
 427 459 427 459 428 426 c 0,106,107
 428 393 428 393 430 389 c 0,108,109
 430 374 430 374 440 374 c 0,110,111
 451 374 451 374 451 389 c 2,112,113
 451 389 451 389 451 423 c 0,114,115
 451 458 451 458 451 502 c 0,116,117
 451 557 451 557 451 606 c 256,118,119
 451 655 451 655 451 655 c 2,120,121
 451 686 451 686 492 686 c 0,122,123
 532 686 532 686 532 655 c 0,124,125
 532 645 532 645 532 598 c 0,126,127
 532 550 532 550 532 496 c 0,128,129
 532 466 532 466 532 438 c 0,130,131
 532 411 532 411 532 389 c 0,132,133
 532 374 532 374 543 374 c 0,134,135
 553 374 553 374 553 389 c 1,136,137
 553 382 553 382 553 415 c 256,138,139
 553 448 553 448 553 494 c 0,140,141
 553 550 553 550 553 603 c 0,142,143
 553 655 553 655 553 655 c 2,144,145
 553 686 553 686 594 686 c 256,146,147
 635 686 635 686 635 655 c 0,0,1
EndSplineSet
EndChar

StartChar: V
Encoding: 86 86 38
Width: 574
GlyphClass: 1
Flags: W
LayerCount: 2
Fore
SplineSet
307 389 m 2,0,1
 307 420 307 420 348 420 c 256,2,3
 389 420 389 420 389 389 c 0,4,5
 389 374 389 374 399 374 c 0,6,7
 410 374 410 374 410 389 c 256,8,9
 410 404 410 404 451 402 c 0,10,11
 492 399 492 399 492 369 c 0,12,13
 492 343 492 343 492 332 c 0,14,15
 492 322 492 322 492 266 c 0,16,17
 492 236 492 236 451 236 c 256,18,19
 410 236 410 236 410 266 c 2,20,21
 410 266 410 266 410 287 c 0,22,23
 410 307 410 307 410 307 c 2,24,25
 410 323 410 323 399 323 c 0,26,27
 389 323 389 323 389 307 c 2,28,29
 389 307 389 307 389 284 c 256,30,31
 389 261 389 261 389 246 c 0,32,33
 389 232 389 232 379 229 c 0,34,35
 369 225 369 225 369 225 c 1,36,37
 369 256 369 256 346 271 c 0,38,39
 323 287 323 287 307 287 c 1,40,41
 307 287 307 287 307 300 c 256,42,43
 307 313 307 313 307 330 c 0,44,45
 307 351 307 351 307 370 c 256,46,47
 307 389 307 389 307 389 c 2,0,1
451 -61 m 1,48,49
 355 -61 355 -61 164 -61 c 1,50,51
 164 -41 164 -41 164 0 c 0,52,53
 164 9 164 9 146 23 c 0,54,55
 128 38 128 38 111 55 c 0,56,57
 99 66 99 66 90 78 c 0,58,59
 82 90 82 90 82 102 c 0,60,61
 82 118 82 118 82 156 c 0,62,63
 82 195 82 195 82 225 c 0,64,65
 82 241 82 241 84 253 c 0,66,67
 87 266 87 266 102 266 c 0,68,69
 171 266 171 266 307 266 c 0,70,71
 319 266 319 266 327 263 c 0,72,73
 336 259 336 259 342 253 c 0,74,75
 359 236 359 236 350 210 c 0,76,77
 342 184 342 184 307 184 c 2,78,79
 307 184 307 184 284 184 c 256,80,81
 261 184 261 184 246 184 c 0,82,83
 215 184 215 184 200 177 c 0,84,85
 184 169 184 169 184 123 c 0,86,87
 184 108 184 108 195 108 c 0,88,89
 205 108 205 108 205 123 c 0,90,91
 205 154 205 154 210 159 c 256,92,93
 215 164 215 164 246 164 c 0,94,95
 266 164 266 164 307 164 c 0,96,97
 327 164 327 164 342 179 c 256,98,99
 357 194 357 194 372 208 c 0,100,101
 380 215 380 215 390 220 c 0,102,103
 399 225 399 225 410 225 c 0,104,105
 433 225 433 225 444 225 c 0,106,107
 456 225 456 225 471 225 c 1,108,109
 471 225 471 225 481 228 c 0,110,111
 492 230 492 230 492 246 c 1,112,113
 492 200 492 200 492 148 c 0,114,115
 492 97 492 97 492 82 c 256,116,117
 492 67 492 67 471 41 c 0,118,119
 451 15 451 15 451 0 c 256,120,121
 451 -15 451 -15 451 -31 c 256,122,123
 451 -47 451 -47 451 -61 c 1,48,49
307 430 m 1,124,125
 292 430 292 430 289 410 c 0,126,127
 287 389 287 389 287 389 c 257,128,129
 287 389 287 389 287 376 c 256,130,131
 287 363 287 363 287 346 c 0,132,133
 287 325 287 325 287 306 c 256,134,135
 287 287 287 287 287 287 c 1,136,137
 225 287 225 287 102 287 c 1,138,139
 102 287 102 287 92 332 c 0,140,141
 81 377 81 377 67 435 c 0,142,143
 62 460 62 460 56 485 c 256,144,145
 50 510 50 510 44 533 c 0,146,147
 34 576 34 576 27 605 c 0,148,149
 20 635 20 635 20 635 c 1,150,151
 20 666 20 666 61 668 c 0,152,153
 67 669 67 669 72 669 c 0,154,155
 102 669 102 669 102 655 c 1,156,157
 102 655 102 655 113 621 c 0,158,159
 123 587 123 587 137 542 c 0,160,161
 154 488 154 488 169 439 c 0,162,163
 184 389 184 389 184 389 c 1,164,165
 184 374 184 374 195 374 c 0,166,167
 205 374 205 374 205 389 c 1,168,169
 205 389 205 389 215 423 c 0,170,171
 226 458 226 458 240 502 c 0,172,173
 256 556 256 556 271 606 c 0,174,175
 287 655 287 655 287 655 c 1,176,177
 287 671 287 671 328 668 c 0,178,179
 369 666 369 666 369 635 c 1,180,181
 369 635 369 635 361 608 c 0,182,183
 353 582 353 582 343 548 c 0,184,185
 330 506 330 506 319 468 c 0,186,187
 307 430 307 430 307 430 c 1,124,125
EndSplineSet
EndChar

StartChar: W
Encoding: 87 87 39
Width: 492
GlyphClass: 1
Flags: W
LayerCount: 2
Fore
SplineSet
389 389 m 2,0,1
 389 404 389 404 430 402 c 0,2,3
 471 399 471 399 471 369 c 0,4,5
 471 343 471 343 471 332 c 0,6,7
 471 322 471 322 471 266 c 0,8,9
 471 236 471 236 430 236 c 256,10,11
 389 236 389 236 389 266 c 0,12,13
 389 282 389 282 389 335 c 0,14,15
 389 389 389 389 389 389 c 2,0,1
430 -61 m 1,16,17
 335 -61 335 -61 143 -61 c 1,18,19
 143 -41 143 -41 143 0 c 0,20,21
 143 9 143 9 126 23 c 0,22,23
 108 38 108 38 90 55 c 0,24,25
 78 66 78 66 70 78 c 0,26,27
 61 90 61 90 61 102 c 0,28,29
 61 118 61 118 61 156 c 0,30,31
 61 195 61 195 61 225 c 0,32,33
 61 241 61 241 64 253 c 0,34,35
 67 266 67 266 82 266 c 0,36,37
 150 266 150 266 287 266 c 0,38,39
 298 266 298 266 307 263 c 0,40,41
 316 259 316 259 321 253 c 0,42,43
 339 236 339 236 330 210 c 256,44,45
 321 184 321 184 287 184 c 0,46,47
 286 184 286 184 263 184 c 0,48,49
 241 184 241 184 225 184 c 0,50,51
 195 184 195 184 179 177 c 0,52,53
 164 169 164 169 164 123 c 0,54,55
 164 108 164 108 174 108 c 256,56,57
 184 108 184 108 184 123 c 0,58,59
 184 154 184 154 189 159 c 0,60,61
 195 164 195 164 225 164 c 0,62,63
 246 164 246 164 287 164 c 0,64,65
 309 164 309 164 329 187 c 0,66,67
 348 210 348 210 348 225 c 1,68,69
 355 230 355 230 349 248 c 256,70,71
 343 266 343 266 328 266 c 1,72,73
 343 266 343 266 348 266 c 256,74,75
 353 266 353 266 369 266 c 1,76,77
 369 244 369 244 381 235 c 0,78,79
 394 225 394 225 409 225 c 2,80,81
 409 225 409 225 410 225 c 1,82,83
 410 225 410 225 410 225 c 257,84,85
 410 225 410 225 430 225 c 0,86,87
 451 225 451 225 451 225 c 257,88,89
 451 225 451 225 461 228 c 0,90,91
 471 230 471 230 471 246 c 1,92,93
 471 200 471 200 471 148 c 0,94,95
 471 97 471 97 471 82 c 256,96,97
 471 67 471 67 451 41 c 0,98,99
 430 15 430 15 430 0 c 256,100,101
 430 -15 430 -15 430 -31 c 256,102,103
 430 -47 430 -47 430 -61 c 1,16,17
369 389 m 1,104,105
 369 389 369 389 369 376 c 256,106,107
 369 363 369 363 369 346 c 0,108,109
 369 325 369 325 369 306 c 256,110,111
 369 287 369 287 369 287 c 1,112,113
 273 287 273 287 82 287 c 1,114,115
 82 287 82 287 74 332 c 0,116,117
 66 376 66 376 56 435 c 0,118,119
 47 481 47 481 39 527 c 0,120,121
 31 572 31 572 26 601 c 0,122,123
 23 617 23 617 22 626 c 0,124,125
 20 635 20 635 20 635 c 1,126,127
 20 666 20 666 61 668 c 0,128,129
 102 671 102 671 102 655 c 2,130,131
 102 655 102 655 110 621 c 0,132,133
 118 586 118 586 129 542 c 0,134,135
 141 488 141 488 152 438 c 0,136,137
 164 389 164 389 164 389 c 2,138,139
 164 374 164 374 174 374 c 256,140,141
 184 374 184 374 184 389 c 2,142,143
 184 389 184 389 184 423 c 0,144,145
 184 458 184 458 184 502 c 0,146,147
 184 557 184 557 184 606 c 256,148,149
 184 655 184 655 184 655 c 2,150,151
 184 686 184 686 225 686 c 256,152,153
 266 686 266 686 266 655 c 2,154,155
 266 655 266 655 266 621 c 256,156,157
 266 587 266 587 266 542 c 0,158,159
 266 488 266 488 266 438 c 0,160,161
 266 389 266 389 266 389 c 2,162,163
 266 374 266 374 276 374 c 0,164,165
 287 374 287 374 287 389 c 2,166,167
 287 389 287 389 295 424 c 0,168,169
 303 458 303 458 313 502 c 0,170,171
 325 557 325 557 337 606 c 0,172,173
 348 655 348 655 348 655 c 2,174,175
 348 671 348 671 389 668 c 0,176,177
 430 666 430 666 430 635 c 1,178,179
 430 635 430 635 422 603 c 0,180,181
 414 572 414 572 404 530 c 0,182,183
 391 480 391 480 380 435 c 0,184,185
 368 389 368 389 369 389 c 1,104,105
EndSplineSet
EndChar

StartChar: X
Encoding: 88 88 40
Width: 1065
GlyphClass: 1
Flags: W
LayerCount: 2
Fore
SplineSet
599 102 m 1,0,1
 599 102 599 102 628 131 c 256,2,3
 657 160 657 160 657 160 c 257,4,5
 657 160 657 160 659 158 c 0,6,7
 660 156 660 156 671 145 c 0,8,9
 693 124 693 124 711 134 c 0,10,11
 729 145 729 145 729 145 c 1,12,13
 745 161 745 161 764 180 c 0,14,15
 784 200 784 200 802 218 c 1,16,17
 802 218 802 218 804 199 c 0,18,19
 807 181 807 181 810 159 c 0,20,21
 812 143 812 143 814 130 c 0,22,23
 816 116 816 116 816 116 c 257,24,25
 816 116 816 116 825 111 c 0,26,27
 834 105 834 105 845 116 c 1,28,29
 845 116 845 116 843 130 c 0,30,31
 841 143 841 143 839 159 c 0,32,33
 836 181 836 181 833 199 c 0,34,35
 831 218 831 218 831 218 c 257,36,37
 831 218 831 218 828 235 c 256,38,39
 825 252 825 252 802 276 c 2,40,41
 802 276 802 276 794 283 c 0,42,43
 787 290 787 290 787 290 c 257,44,45
 787 290 787 290 772 303 c 0,46,47
 756 317 756 317 744 305 c 256,48,49
 732 293 732 293 716 277 c 256,50,51
 700 261 700 261 700 261 c 2,52,53
 691 251 691 251 697 249 c 0,54,55
 704 247 704 247 715 247 c 1,56,57
 715 247 715 247 729 261 c 0,58,59
 744 276 744 276 744 276 c 2,60,61
 755 286 755 286 776 265 c 0,62,63
 798 243 798 243 787 232 c 0,64,65
 765 210 765 210 753 197 c 0,66,67
 740 184 740 184 715 160 c 1,68,69
 715 160 715 160 706 154 c 0,70,71
 697 149 697 149 686 160 c 0,72,73
 664 181 664 181 649 196 c 0,74,75
 635 210 635 210 613 232 c 0,76,77
 603 243 603 243 616 259 c 0,78,79
 628 276 628 276 628 276 c 1,80,81
 648 295 648 295 683 331 c 0,82,83
 719 367 719 367 744 391 c 1,84,85
 744 391 744 391 757 400 c 0,86,87
 770 408 770 408 795 403 c 0,88,89
 808 400 808 400 824 391 c 0,90,91
 841 382 841 382 860 363 c 0,92,93
 874 349 874 349 907 315 c 0,94,95
 941 281 941 281 969 253 c 0,96,97
 984 238 984 238 994 228 c 256,98,99
 1004 218 1004 218 1004 218 c 2,100,101
 1019 203 1019 203 1048 174 c 1,102,103
 1034 160 1034 160 999 126 c 0,104,105
 965 91 965 91 925 52 c 0,106,107
 904 31 904 31 884 10 c 0,108,109
 863 -11 863 -11 845 -28 c 1,110,111
 831 -14 831 -14 802 15 c 1,112,113
 802 15 802 15 767 21 c 256,114,115
 732 27 732 27 688 45 c 0,116,117
 664 55 664 55 641 69 c 256,118,119
 618 83 618 83 599 102 c 1,0,1
570 131 m 2,120,121
 570 131 570 131 555 145 c 0,122,123
 541 160 541 160 541 160 c 257,124,125
 541 160 541 160 536 169 c 0,126,127
 530 178 530 178 541 189 c 2,128,129
 541 189 541 189 555 203 c 0,130,131
 570 218 570 218 570 218 c 257,132,133
 570 218 570 218 579 223 c 0,134,135
 588 229 588 229 599 218 c 2,136,137
 599 218 599 218 613 203 c 0,138,139
 628 189 628 189 628 189 c 2,140,141
 650 167 650 167 621 138 c 256,142,143
 592 109 592 109 570 131 c 2,120,121
729 406 m 257,144,145
 729 406 729 406 700 377 c 256,146,147
 671 348 671 348 671 348 c 257,148,149
 671 348 671 348 642 377 c 256,150,151
 613 406 613 406 613 406 c 2,152,153
 595 424 595 424 572 447 c 0,154,155
 550 470 550 470 527 492 c 0,156,157
 484 535 484 535 449 570 c 256,158,159
 414 605 414 605 411 609 c 0,160,161
 389 630 389 630 418 659 c 0,162,163
 434 676 434 676 448 676 c 0,164,165
 459 676 459 676 469 667 c 0,166,167
 550 585 550 585 592 544 c 0,168,169
 633 502 633 502 642 493 c 2,170,171
 642 493 642 493 654 482 c 0,172,173
 665 470 665 470 679 456 c 0,174,175
 697 438 697 438 713 422 c 256,176,177
 729 406 729 406 729 406 c 257,144,145
251 15 m 1,178,179
 237 0 237 0 208 -28 c 1,180,181
 190 -11 190 -11 170 10 c 0,182,183
 149 31 149 31 128 52 c 0,184,185
 89 91 89 91 54 126 c 0,186,187
 19 160 19 160 5 174 c 1,188,189
 20 189 20 189 49 218 c 2,190,191
 49 218 49 218 59 228 c 256,192,193
 69 238 69 238 84 253 c 0,194,195
 112 281 112 281 146 315 c 256,196,197
 180 349 180 349 193 363 c 0,198,199
 212 382 212 382 229 391 c 0,200,201
 245 400 245 400 258 403 c 0,202,203
 283 408 283 408 296 400 c 0,204,205
 309 391 309 391 309 391 c 1,206,207
 334 367 334 367 360 341 c 0,208,209
 387 314 387 314 425 276 c 1,210,211
 425 276 425 276 437 259 c 0,212,213
 450 243 450 243 440 232 c 0,214,215
 419 210 419 210 404 196 c 0,216,217
 389 181 389 181 367 160 c 0,218,219
 356 149 356 149 347 154 c 0,220,221
 338 160 338 160 338 160 c 1,222,223
 322 176 322 176 305 193 c 256,224,225
 288 210 288 210 266 232 c 0,226,227
 255 243 255 243 277 265 c 0,228,229
 298 286 298 286 309 276 c 2,230,231
 309 276 309 276 324 261 c 0,232,233
 338 247 338 247 338 247 c 2,234,235
 348 239 348 239 357 245 c 0,236,237
 366 252 366 252 353 261 c 2,238,239
 353 261 353 261 337 277 c 256,240,241
 321 293 321 293 309 305 c 256,242,243
 297 317 297 317 281 303 c 0,244,245
 266 290 266 290 266 290 c 257,246,247
 266 290 266 290 259 283 c 0,248,249
 251 276 251 276 251 276 c 2,250,251
 231 256 231 256 227 237 c 0,252,253
 222 218 222 218 222 218 c 257,254,255
 222 218 222 218 220 199 c 0,256,257
 217 181 217 181 214 159 c 0,258,259
 212 143 212 143 210 130 c 0,260,261
 208 116 208 116 208 116 c 1,262,263
 219 105 219 105 228 111 c 0,264,265
 237 116 237 116 237 116 c 257,266,267
 237 116 237 116 239 130 c 0,268,269
 241 143 241 143 243 159 c 0,270,271
 246 181 246 181 249 199 c 0,272,273
 251 218 251 218 251 218 c 1,274,275
 269 200 269 200 288 180 c 0,276,277
 307 159 307 159 324 145 c 2,278,279
 324 145 324 145 342 134 c 0,280,281
 360 124 360 124 382 145 c 0,282,283
 393 156 393 156 394 158 c 0,284,285
 396 160 396 160 396 160 c 257,286,287
 396 160 396 160 425 131 c 256,288,289
 454 102 454 102 454 102 c 1,290,291
 435 83 435 83 412 69 c 256,292,293
 389 55 389 55 365 45 c 0,294,295
 321 27 321 27 286 21 c 256,296,297
 251 15 251 15 251 15 c 1,178,179
425 189 m 2,298,299
 425 189 425 189 440 203 c 0,300,301
 454 218 454 218 454 218 c 2,302,303
 465 229 465 229 474 223 c 0,304,305
 483 218 483 218 483 218 c 257,306,307
 483 218 483 218 498 203 c 0,308,309
 512 189 512 189 512 189 c 2,310,311
 523 178 523 178 517 169 c 0,312,313
 512 160 512 160 512 160 c 257,314,315
 512 160 512 160 498 145 c 0,316,317
 483 131 483 131 483 131 c 2,318,319
 461 109 461 109 432 138 c 256,320,321
 403 167 403 167 425 189 c 2,298,299
584 667 m 0,322,323
 606 688 606 688 635 659 c 256,324,325
 664 630 664 630 642 609 c 0,326,327
 628 594 628 594 599 565 c 1,328,329
 580 585 580 585 541 623 c 1,330,331
 555 638 555 638 584 667 c 0,322,323
454 536 m 1,332,333
 473 517 473 517 512 478 c 1,334,335
 451 417 451 417 423 390 c 0,336,337
 396 362 396 362 382 348 c 1,338,339
 382 348 382 348 353 377 c 256,340,341
 324 406 324 406 324 406 c 1,342,343
 373 455 373 455 405 487 c 0,344,345
 436 518 436 518 454 536 c 1,332,333
EndSplineSet
EndChar

StartChar: Y
Encoding: 89 89 41
Width: 717
GlyphClass: 1
Flags: W
LayerCount: 2
Fore
SplineSet
594 -61 m 1,0,1
 498 -61 498 -61 307 -61 c 1,2,3
 307 -20 307 -20 307 61 c 0,4,5
 307 68 307 68 270 96 c 256,6,7
 233 124 233 124 185 157 c 0,8,9
 127 197 127 197 74 232 c 0,10,11
 20 266 20 266 20 266 c 1,12,13
 20 282 20 282 28 305 c 256,14,15
 36 328 36 328 82 328 c 0,16,17
 88 328 88 328 101 321 c 0,18,19
 114 315 114 315 130 306 c 0,20,21
 154 293 154 293 180 279 c 0,22,23
 207 266 207 266 225 266 c 0,24,25
 261 266 261 266 290 266 c 0,26,27
 318 266 318 266 342 266 c 0,28,29
 387 266 387 266 425 266 c 0,30,31
 462 266 462 266 512 266 c 0,32,33
 543 266 543 266 548 287 c 0,34,35
 553 307 553 307 553 307 c 1,36,37
 553 343 553 343 553 389 c 256,38,39
 553 435 553 435 553 451 c 1,40,41
 553 451 553 451 561 480 c 256,42,43
 569 509 569 509 579 546 c 0,44,45
 592 593 592 593 603 634 c 0,46,47
 614 676 614 676 614 676 c 2,48,49
 614 689 614 689 643 689 c 0,50,51
 648 689 648 689 655 688 c 0,52,53
 695 685 695 685 696 655 c 1,54,55
 696 655 696 655 683 614 c 256,56,57
 670 573 670 573 657 523 c 0,58,59
 648 490 648 490 641 459 c 0,60,61
 635 428 635 428 635 410 c 0,62,63
 635 388 635 388 635 361 c 0,64,65
 635 333 635 333 635 305 c 0,66,67
 635 252 635 252 635 208 c 0,68,69
 635 165 635 165 635 164 c 0,70,71
 635 148 635 148 614 113 c 0,72,73
 594 77 594 77 594 61 c 0,74,75
 594 47 594 47 594 0 c 256,76,77
 594 -47 594 -47 594 -61 c 1,0,1
430 451 m 0,78,79
 430 435 430 435 440 435 c 0,80,81
 451 435 451 435 451 451 c 0,82,83
 451 481 451 481 492 481 c 0,84,85
 532 481 532 481 532 451 c 2,86,87
 532 451 532 451 532 430 c 256,88,89
 532 409 532 409 532 383 c 0,90,91
 532 351 532 351 532 325 c 256,92,93
 532 299 532 299 532 307 c 1,94,95
 532 276 532 276 492 276 c 0,96,97
 451 276 451 276 451 307 c 2,98,99
 451 307 451 307 451 338 c 256,100,101
 451 369 451 369 451 369 c 2,102,103
 451 384 451 384 441 384 c 256,104,105
 431 384 431 384 430 370 c 2,106,107
 430 370 430 370 430 369 c 1,108,109
 430 369 430 369 430 369 c 257,110,111
 430 369 430 369 430 338 c 256,112,113
 430 307 430 307 430 307 c 2,114,115
 430 276 430 276 389 276 c 256,116,117
 348 276 348 276 348 307 c 2,118,119
 348 307 348 307 348 338 c 256,120,121
 348 369 348 369 348 369 c 2,122,123
 348 384 348 384 338 384 c 256,124,125
 328 384 328 384 328 369 c 2,126,127
 328 369 328 369 328 338 c 256,128,129
 328 307 328 307 328 307 c 2,130,131
 328 276 328 276 287 276 c 256,132,133
 246 276 246 276 246 307 c 2,134,135
 246 307 246 307 246 332 c 256,136,137
 246 357 246 357 246 385 c 0,138,139
 246 408 246 408 246 428 c 0,140,141
 246 447 246 447 246 451 c 0,142,143
 246 481 246 481 287 481 c 256,144,145
 328 481 328 481 328 451 c 0,146,147
 328 435 328 435 338 435 c 256,148,149
 348 435 348 435 348 451 c 0,150,151
 348 481 348 481 389 481 c 256,152,153
 430 481 430 481 430 451 c 0,78,79
EndSplineSet
EndChar

StartChar: Z
Encoding: 90 90 42
Width: 451
GlyphClass: 1
Flags: W
LayerCount: 2
Fore
SplineSet
61 -61 m 1,0,1
 61 -48 61 -48 61 -31 c 0,2,3
 61 -15 61 -15 61 0 c 256,4,5
 61 15 61 15 41 51 c 0,6,7
 20 87 20 87 20 102 c 0,8,9
 20 164 20 164 20 215 c 256,10,11
 20 266 20 266 20 266 c 2,12,13
 20 291 20 291 20 338 c 0,14,15
 20 386 20 386 20 439 c 0,16,17
 20 490 20 490 20 539 c 0,18,19
 20 589 20 589 20 620 c 0,20,21
 20 636 20 636 20 646 c 0,22,23
 20 655 20 655 20 655 c 2,24,25
 20 679 20 679 61 682 c 0,26,27
 102 686 102 686 102 655 c 2,28,29
 102 655 102 655 102 621 c 256,30,31
 102 587 102 587 102 542 c 0,32,33
 102 488 102 488 102 438 c 0,34,35
 102 389 102 389 102 389 c 257,36,37
 102 389 102 389 102 389 c 257,38,39
 102 389 102 389 102 389 c 1,40,41
 102 374 102 374 113 374 c 0,42,43
 123 374 123 374 123 389 c 0,44,45
 123 420 123 420 164 420 c 256,46,47
 205 420 205 420 205 389 c 0,48,49
 205 374 205 374 215 374 c 256,50,51
 225 374 225 374 225 389 c 0,52,53
 225 420 225 420 266 420 c 256,54,55
 307 420 307 420 307 389 c 0,56,57
 307 374 307 374 317 374 c 0,58,59
 328 374 328 374 328 389 c 0,60,61
 328 396 328 396 328 432 c 256,62,63
 328 468 328 468 328 511 c 0,64,65
 328 563 328 563 328 609 c 256,66,67
 328 655 328 655 328 655 c 2,68,69
 328 686 328 686 369 686 c 256,70,71
 410 686 410 686 410 655 c 2,72,73
 410 655 410 655 410 608 c 0,74,75
 410 560 410 560 410 497 c 0,76,77
 410 447 410 447 410 396 c 0,78,79
 410 346 410 346 410 312 c 0,80,81
 410 293 410 293 410 281 c 256,82,83
 410 269 410 269 410 266 c 1,84,85
 425 266 425 266 428 253 c 0,86,87
 430 241 430 241 430 225 c 0,88,89
 430 195 430 195 430 164 c 256,90,91
 430 133 430 133 430 102 c 0,92,93
 430 90 430 90 422 78 c 0,94,95
 413 66 413 66 401 55 c 0,96,97
 384 38 384 38 366 23 c 0,98,99
 348 9 348 9 348 0 c 0,100,101
 348 -20 348 -20 348 -61 c 1,102,103
 273 -61 273 -61 203 -61 c 256,104,105
 133 -61 133 -61 61 -61 c 1,0,1
EndSplineSet
EndChar

StartChar: backslash
Encoding: 92 92 43
Width: 574
GlyphClass: 1
Flags: W
LayerCount: 2
Fore
SplineSet
20 676 m 1,0,1
 41 676 41 676 82 676 c 1,2,3
 239 451 239 451 553 0 c 1,4,5
 532 0 532 0 492 0 c 1,6,7
 335 225 335 225 20 676 c 1,0,1
EndSplineSet
EndChar

StartChar: a
Encoding: 97 97 44
Width: 532
GlyphClass: 1
Flags: W
LayerCount: 2
Fore
SplineSet
236 614 m 1,0,1
 236 614 236 614 259 577 c 0,2,3
 283 540 283 540 315 492 c 0,4,5
 355 434 355 434 393 381 c 256,6,7
 431 328 431 328 440 328 c 0,8,9
 456 328 456 328 470 328 c 0,10,11
 485 328 485 328 502 328 c 1,12,13
 502 232 502 232 502 41 c 1,14,15
 495 41 495 41 475 41 c 0,16,17
 456 41 456 41 440 41 c 0,18,19
 425 41 425 41 389 20 c 0,20,21
 353 0 353 0 338 0 c 0,22,23
 276 0 276 0 205 0 c 0,24,25
 133 0 133 0 72 0 c 0,26,27
 41 0 41 0 38 41 c 0,28,29
 36 82 36 82 51 82 c 0,30,31
 67 82 67 82 67 92 c 256,32,33
 67 102 67 102 51 102 c 0,34,35
 20 102 20 102 20 143 c 256,36,37
 20 184 20 184 51 184 c 0,38,39
 67 184 67 184 67 195 c 0,40,41
 67 205 67 205 51 205 c 0,42,43
 20 205 20 205 20 246 c 256,44,45
 20 287 20 287 51 287 c 0,46,47
 67 287 67 287 67 297 c 256,48,49
 67 307 67 307 51 307 c 0,50,51
 20 307 20 307 20 348 c 256,52,53
 20 389 20 389 51 389 c 0,54,55
 60 389 60 389 92 389 c 0,56,57
 123 389 123 389 154 389 c 0,58,59
 175 389 175 389 192 389 c 256,60,61
 209 389 209 389 215 389 c 2,62,63
 215 389 215 389 225 392 c 0,64,65
 236 394 236 394 236 410 c 0,66,67
 236 420 236 420 231 433 c 0,68,69
 226 445 226 445 218 458 c 0,70,71
 205 483 205 483 189 508 c 0,72,73
 174 533 174 533 174 553 c 0,74,75
 174 603 174 603 197 609 c 0,76,77
 221 614 221 614 236 614 c 1,0,1
EndSplineSet
EndChar

StartChar: b
Encoding: 98 98 45
Width: 450
GlyphClass: 1
Flags: W
LayerCount: 2
Fore
SplineSet
430 635 m 0,0,1
 430 589 430 589 430 468 c 0,2,3
 430 348 430 348 430 102 c 0,4,5
 430 87 430 87 410 51 c 0,6,7
 389 15 389 15 389 0 c 0,8,9
 389 -20 389 -20 389 -61 c 1,10,11
 294 -61 294 -61 102 -61 c 1,12,13
 102 -46 102 -46 102 -31 c 0,14,15
 102 -15 102 -15 102 0 c 0,16,17
 102 9 102 9 85 23 c 0,18,19
 67 38 67 38 49 55 c 0,20,21
 37 66 37 66 29 78 c 0,22,23
 20 90 20 90 20 102 c 0,24,25
 20 119 20 119 20 157 c 256,26,27
 20 195 20 195 20 225 c 0,28,29
 20 241 20 241 23 253 c 0,30,31
 26 266 26 266 41 266 c 0,32,33
 109 266 109 266 246 266 c 0,34,35
 257 266 257 266 266 263 c 0,36,37
 275 259 275 259 280 253 c 0,38,39
 298 236 298 236 289 210 c 256,40,41
 280 184 280 184 246 184 c 0,42,43
 245 184 245 184 215 184 c 0,44,45
 184 184 184 184 184 184 c 2,46,47
 154 184 154 184 138 177 c 0,48,49
 123 169 123 169 123 123 c 0,50,51
 123 108 123 108 133 108 c 256,52,53
 143 108 143 108 143 123 c 0,54,55
 143 154 143 154 148 159 c 0,56,57
 154 164 154 164 184 164 c 2,58,59
 184 164 184 164 215 164 c 0,60,61
 245 164 245 164 246 164 c 1,62,63
 246 164 246 164 246 164 c 257,64,65
 246 164 246 164 246 164 c 1,66,67
 276 164 276 164 292 179 c 0,68,69
 307 195 307 195 307 225 c 0,70,71
 307 241 307 241 305 253 c 0,72,73
 302 266 302 266 287 266 c 1,74,75
 287 266 287 266 310 266 c 256,76,77
 333 266 333 266 348 266 c 0,78,79
 364 266 364 266 364 276 c 0,80,81
 364 287 364 287 348 287 c 0,82,83
 339 287 339 287 297 287 c 256,84,85
 255 287 255 287 205 287 c 0,86,87
 144 287 144 287 91 287 c 0,88,89
 39 287 39 287 41 287 c 1,90,91
 41 305 41 305 41 344 c 0,92,93
 41 382 41 382 41 427 c 0,94,95
 40 495 40 495 40 558 c 0,96,97
 40 622 40 622 41 635 c 0,98,99
 41 666 41 666 82 666 c 256,100,101
 123 666 123 666 123 635 c 2,102,103
 123 635 123 635 123 605 c 0,104,105
 123 576 123 576 123 537 c 0,106,107
 122 489 122 489 122 443 c 0,108,109
 123 397 123 397 123 389 c 0,110,111
 123 374 123 374 133 374 c 256,112,113
 143 374 143 374 143 389 c 0,114,115
 143 399 143 399 143 445 c 0,116,117
 143 492 143 492 143 546 c 0,118,119
 143 575 143 575 143 604 c 0,120,121
 143 632 143 632 143 655 c 0,122,123
 143 686 143 686 184 686 c 256,124,125
 225 686 225 686 225 655 c 0,126,127
 225 647 225 647 224 599 c 256,128,129
 223 551 223 551 223 500 c 0,130,131
 223 459 223 459 223 426 c 256,132,133
 223 393 223 393 225 389 c 0,134,135
 225 374 225 374 236 374 c 0,136,137
 246 374 246 374 246 389 c 2,138,139
 246 389 246 389 246 423 c 0,140,141
 246 458 246 458 246 502 c 0,142,143
 246 557 246 557 246 606 c 256,144,145
 246 655 246 655 246 655 c 2,146,147
 246 686 246 686 287 686 c 256,148,149
 328 686 328 686 328 655 c 0,150,151
 328 645 328 645 328 598 c 0,152,153
 328 550 328 550 328 496 c 0,154,155
 328 466 328 466 328 438 c 0,156,157
 328 411 328 411 328 389 c 0,158,159
 328 374 328 374 338 374 c 256,160,161
 348 374 348 374 348 389 c 1,162,163
 348 382 348 382 348 413 c 0,164,165
 348 443 348 443 348 485 c 0,166,167
 348 537 348 537 348 586 c 256,168,169
 348 635 348 635 348 635 c 2,170,171
 348 666 348 666 389 666 c 256,172,173
 430 666 430 666 430 635 c 0,0,1
EndSplineSet
EndChar

StartChar: c
Encoding: 99 99 46
Width: 450
GlyphClass: 1
Flags: W
LayerCount: 2
Fore
SplineSet
246 451 m 257,0,1
 246 451 246 451 227 451 c 256,2,3
 208 451 208 451 183 451 c 0,4,5
 152 451 152 451 121 451 c 256,6,7
 90 451 90 451 82 451 c 1,8,9
 82 451 82 451 82 451 c 1,10,11
 51 451 51 451 51 492 c 0,12,13
 51 532 51 532 82 532 c 0,14,15
 89 532 89 532 122 532 c 0,16,17
 156 532 156 532 197 532 c 0,18,19
 247 532 247 532 293 532 c 0,20,21
 340 532 340 532 348 532 c 0,22,23
 394 532 394 532 412 507 c 0,24,25
 430 481 430 481 430 451 c 0,26,27
 430 440 430 440 430 423 c 0,28,29
 430 407 430 407 430 388 c 0,30,31
 430 352 430 352 430 316 c 0,32,33
 430 281 430 281 430 266 c 2,34,35
 430 266 430 266 425 232 c 0,36,37
 420 197 420 197 413 153 c 0,38,39
 404 98 404 98 397 49 c 0,40,41
 389 0 389 0 389 0 c 2,42,43
 389 -20 389 -20 389 -61 c 1,44,45
 369 -61 369 -61 320 -61 c 256,46,47
 271 -61 271 -61 216 -61 c 0,48,49
 186 -61 186 -61 157 -61 c 0,50,51
 127 -61 127 -61 102 -61 c 1,52,53
 102 -41 102 -41 102 0 c 1,54,55
 102 0 102 0 82 44 c 256,56,57
 62 88 62 88 44 146 c 0,58,59
 34 177 34 177 27 208 c 256,60,61
 20 239 20 239 20 266 c 2,62,63
 20 266 20 266 20 307 c 256,64,65
 20 348 20 348 20 348 c 2,66,67
 20 357 20 357 23 365 c 0,68,69
 26 372 26 372 31 378 c 0,70,71
 51 400 51 400 87 392 c 0,72,73
 123 385 123 385 123 348 c 0,74,75
 123 333 123 333 123 300 c 256,76,77
 123 267 123 267 123 266 c 0,78,79
 124 222 124 222 144 213 c 0,80,81
 164 205 164 205 164 205 c 1,82,83
 179 205 179 205 212 205 c 0,84,85
 246 205 246 205 246 205 c 257,86,87
 246 205 246 205 238 194 c 0,88,89
 230 184 230 184 220 170 c 0,90,91
 207 153 207 153 196 138 c 0,92,93
 184 123 184 123 184 123 c 257,94,95
 184 123 184 123 187 113 c 0,96,97
 189 102 189 102 205 102 c 1,98,99
 205 102 205 102 216 118 c 0,100,101
 228 133 228 133 240 149 c 0,102,103
 250 163 250 163 258 174 c 0,104,105
 266 184 266 184 266 184 c 257,106,107
 266 184 266 184 276 200 c 0,108,109
 287 215 287 215 287 246 c 2,110,111
 287 246 287 246 287 256 c 256,112,113
 287 266 287 266 287 266 c 257,114,115
 287 266 287 266 287 293 c 0,116,117
 287 319 287 319 287 349 c 0,118,119
 287 373 287 373 287 391 c 0,120,121
 287 410 287 410 287 410 c 2,122,123
 287 440 287 440 266 445 c 0,124,125
 246 451 246 451 246 451 c 257,0,1
EndSplineSet
EndChar

StartChar: d
Encoding: 100 100 47
Width: 512
GlyphClass: 1
Flags: W
LayerCount: 2
Fore
SplineSet
41 266 m 1,0,1
 41 266 41 266 82 266 c 256,2,3
 123 266 123 266 123 266 c 257,4,5
 123 266 123 266 123 264 c 0,6,7
 123 261 123 261 123 246 c 0,8,9
 123 215 123 215 143 210 c 0,10,11
 164 205 164 205 164 205 c 2,12,13
 179 205 179 205 210 205 c 256,14,15
 241 205 241 205 266 205 c 1,16,17
 251 184 251 184 228 154 c 0,18,19
 205 123 205 123 205 123 c 257,20,21
 205 123 205 123 207 113 c 0,22,23
 210 102 210 102 225 102 c 1,24,25
 233 116 233 116 260 150 c 256,26,27
 287 184 287 184 287 184 c 257,28,29
 287 184 287 184 297 200 c 0,30,31
 307 215 307 215 307 246 c 2,32,33
 307 246 307 246 307 256 c 256,34,35
 307 266 307 266 307 266 c 257,36,37
 307 266 307 266 306 287 c 0,38,39
 304 307 304 307 287 307 c 0,40,41
 286 307 286 307 260 307 c 0,42,43
 233 307 233 307 225 307 c 0,44,45
 210 307 210 307 210 297 c 256,46,47
 210 287 210 287 225 287 c 0,48,49
 235 287 235 287 245 287 c 0,50,51
 256 287 256 287 266 287 c 0,52,53
 282 287 282 287 282 256 c 256,54,55
 282 225 282 225 266 225 c 0,56,57
 236 225 236 225 212 225 c 0,58,59
 189 225 189 225 164 225 c 1,60,61
 164 225 164 225 154 228 c 0,62,63
 143 230 143 230 143 246 c 0,64,65
 143 276 143 276 143 297 c 256,66,67
 143 318 143 318 143 348 c 0,68,69
 144 363 144 363 164 366 c 256,70,71
 184 369 184 369 184 369 c 1,72,73
 225 369 225 369 236 369 c 0,74,75
 246 369 246 369 266 369 c 0,76,77
 282 369 282 369 282 379 c 256,78,79
 282 389 282 389 266 389 c 0,80,81
 258 389 258 389 231 389 c 256,82,83
 204 389 204 389 177 389 c 0,84,85
 155 389 155 389 139 389 c 256,86,87
 123 389 123 389 123 389 c 1,88,89
 123 420 123 420 144 445 c 0,90,91
 165 471 165 471 205 471 c 0,92,93
 222 471 222 471 264 456 c 0,94,95
 307 441 307 441 348 424 c 0,96,97
 382 410 382 410 406 400 c 0,98,99
 430 389 430 389 430 389 c 257,100,101
 430 389 430 389 445 381 c 0,102,103
 461 372 461 372 474 346 c 0,104,105
 482 333 482 333 487 313 c 256,106,107
 492 293 492 293 492 266 c 1,108,109
 492 266 492 266 481 232 c 0,110,111
 470 197 470 197 457 153 c 0,112,113
 440 98 440 98 425 49 c 256,114,115
 410 0 410 0 410 0 c 1,116,117
 410 -20 410 -20 410 -61 c 1,118,119
 390 -61 390 -61 341 -61 c 256,120,121
 292 -61 292 -61 236 -61 c 0,122,123
 206 -61 206 -61 177 -61 c 256,124,125
 148 -61 148 -61 123 -61 c 1,126,127
 123 -41 123 -41 123 0 c 1,128,129
 123 0 123 0 103 44 c 0,130,131
 82 88 82 88 64 146 c 0,132,133
 54 177 54 177 48 208 c 0,134,135
 41 239 41 239 41 266 c 1,0,1
20 307 m 2,136,137
 20 307 20 307 20 328 c 0,138,139
 20 348 20 348 20 348 c 257,140,141
 20 348 20 348 23 358 c 0,142,143
 26 369 26 369 41 369 c 2,144,145
 41 369 41 369 72 369 c 0,146,147
 102 369 102 369 102 369 c 257,148,149
 102 369 102 369 113 366 c 0,150,151
 123 364 123 364 123 348 c 2,152,153
 123 348 123 348 123 328 c 0,154,155
 123 307 123 307 123 307 c 2,156,157
 123 293 123 293 110 286 c 0,158,159
 96 278 96 278 79 277 c 0,160,161
 58 275 58 275 39 283 c 0,162,163
 20 290 20 290 20 307 c 2,136,137
EndSplineSet
EndChar

StartChar: e
Encoding: 101 101 48
Width: 778
GlyphClass: 1
Flags: W
LayerCount: 2
Fore
SplineSet
768 41 m 1,0,1
 754 41 754 41 738 41 c 256,2,3
 722 41 722 41 706 41 c 0,4,5
 691 41 691 41 655 20 c 0,6,7
 620 0 620 0 604 0 c 0,8,9
 543 0 543 0 492 0 c 0,10,11
 440 0 440 0 440 0 c 2,12,13
 419 0 419 0 388 0 c 256,14,15
 357 0 357 0 321 0 c 0,16,17
 254 0 254 0 184 0 c 256,18,19
 114 0 114 0 72 0 c 0,20,21
 41 0 41 0 41 41 c 256,22,23
 41 82 41 82 72 82 c 0,24,25
 154 82 154 82 317 82 c 0,26,27
 333 82 333 82 333 92 c 256,28,29
 333 102 333 102 317 102 c 0,30,31
 251 102 251 102 182 102 c 256,32,33
 113 102 113 102 51 102 c 0,34,35
 20 102 20 102 20 143 c 256,36,37
 20 184 20 184 51 184 c 0,38,39
 140 184 140 184 317 184 c 0,40,41
 333 184 333 184 333 195 c 0,42,43
 333 205 333 205 317 205 c 0,44,45
 229 205 229 205 51 205 c 0,46,47
 20 205 20 205 20 246 c 256,48,49
 20 287 20 287 51 287 c 0,50,51
 74 287 74 287 103 287 c 0,52,53
 131 287 131 287 161 287 c 0,54,55
 215 287 215 287 261 287 c 256,56,57
 307 287 307 287 317 287 c 0,58,59
 333 287 333 287 333 297 c 256,60,61
 333 307 333 307 317 307 c 0,62,63
 287 307 287 307 287 348 c 256,64,65
 287 389 287 389 317 389 c 2,66,67
 317 389 317 389 371 389 c 256,68,69
 425 389 425 389 440 389 c 1,70,71
 440 404 440 404 453 407 c 256,72,73
 466 410 466 410 481 410 c 0,74,75
 512 410 512 410 543 410 c 0,76,77
 573 410 573 410 604 410 c 0,78,79
 616 410 616 410 629 401 c 0,80,81
 641 393 641 393 652 381 c 0,82,83
 669 363 669 363 683 345 c 0,84,85
 697 328 697 328 707 328 c 0,86,87
 727 328 727 328 768 328 c 1,88,89
 768 252 768 252 768 182 c 0,90,91
 768 113 768 113 768 41 c 1,0,1
EndSplineSet
EndChar

StartChar: f
Encoding: 102 102 49
Width: 799
GlyphClass: 1
Flags: W
LayerCount: 2
Fore
SplineSet
768 41 m 1,0,1
 754 41 754 41 738 41 c 256,2,3
 722 41 722 41 706 41 c 0,4,5
 691 41 691 41 655 20 c 0,6,7
 620 0 620 0 604 0 c 0,8,9
 543 0 543 0 492 0 c 0,10,11
 440 0 440 0 440 0 c 2,12,13
 379 0 379 0 358 0 c 0,14,15
 338 0 338 0 338 0 c 2,16,17
 307 0 307 0 305 41 c 0,18,19
 302 82 302 82 317 82 c 1,20,21
 317 82 317 82 317 82 c 257,22,23
 317 82 317 82 317 82 c 1,24,25
 333 82 333 82 333 92 c 256,26,27
 333 102 333 102 317 102 c 0,28,29
 287 102 287 102 287 143 c 256,30,31
 287 184 287 184 317 184 c 0,32,33
 333 184 333 184 333 195 c 0,34,35
 333 205 333 205 317 205 c 0,36,37
 229 205 229 205 51 205 c 0,38,39
 20 205 20 205 20 246 c 256,40,41
 20 287 20 287 51 287 c 0,42,43
 74 287 74 287 103 287 c 0,44,45
 131 287 131 287 161 287 c 0,46,47
 215 287 215 287 261 287 c 256,48,49
 307 287 307 287 317 287 c 0,50,51
 333 287 333 287 333 297 c 256,52,53
 333 307 333 307 317 307 c 0,54,55
 311 307 311 307 277 307 c 0,56,57
 244 307 244 307 205 307 c 0,58,59
 156 307 156 307 114 307 c 256,60,61
 72 307 72 307 72 307 c 2,62,63
 41 307 41 307 41 348 c 256,64,65
 41 389 41 389 72 389 c 2,66,67
 72 389 72 389 117 389 c 256,68,69
 162 389 162 389 222 389 c 0,70,71
 247 389 247 389 273 389 c 0,72,73
 300 389 300 389 324 389 c 0,74,75
 369 389 369 389 402 389 c 256,76,77
 435 389 435 389 440 389 c 1,78,79
 440 404 440 404 453 407 c 256,80,81
 466 410 466 410 481 410 c 0,82,83
 512 410 512 410 543 410 c 0,84,85
 573 410 573 410 604 410 c 0,86,87
 616 410 616 410 629 401 c 0,88,89
 641 393 641 393 652 381 c 0,90,91
 669 363 669 363 683 345 c 0,92,93
 697 328 697 328 707 328 c 0,94,95
 727 328 727 328 768 328 c 1,96,97
 768 252 768 252 768 182 c 0,98,99
 768 113 768 113 768 41 c 1,0,1
EndSplineSet
EndChar

StartChar: g
Encoding: 103 103 50
Width: 798
GlyphClass: 1
Flags: W
LayerCount: 2
Fore
SplineSet
768 41 m 1,0,1
 754 41 754 41 738 41 c 256,2,3
 722 41 722 41 706 41 c 0,4,5
 691 41 691 41 655 20 c 0,6,7
 620 0 620 0 604 0 c 0,8,9
 543 0 543 0 492 0 c 0,10,11
 440 0 440 0 440 0 c 2,12,13
 379 0 379 0 358 0 c 0,14,15
 338 0 338 0 338 0 c 2,16,17
 307 0 307 0 305 41 c 0,18,19
 302 82 302 82 317 82 c 1,20,21
 317 82 317 82 317 82 c 257,22,23
 317 82 317 82 317 82 c 1,24,25
 333 82 333 82 333 92 c 256,26,27
 333 102 333 102 317 102 c 0,28,29
 287 102 287 102 287 143 c 256,30,31
 287 184 287 184 317 184 c 0,32,33
 333 184 333 184 333 195 c 0,34,35
 333 205 333 205 317 205 c 0,36,37
 287 205 287 205 287 246 c 256,38,39
 287 287 287 287 317 287 c 0,40,41
 333 287 333 287 333 297 c 256,42,43
 333 307 333 307 317 307 c 0,44,45
 311 307 311 307 275 307 c 256,46,47
 239 307 239 307 196 307 c 0,48,49
 143 307 143 307 97 307 c 256,50,51
 51 307 51 307 51 307 c 2,52,53
 20 307 20 307 20 348 c 256,54,55
 20 389 20 389 51 389 c 2,56,57
 51 389 51 389 99 389 c 256,58,59
 147 389 147 389 210 389 c 0,60,61
 237 389 237 389 264 389 c 0,62,63
 292 389 292 389 318 389 c 0,64,65
 365 389 365 389 400 389 c 256,66,67
 435 389 435 389 440 389 c 1,68,69
 440 404 440 404 453 407 c 256,70,71
 466 410 466 410 481 410 c 0,72,73
 512 410 512 410 543 410 c 0,74,75
 573 410 573 410 604 410 c 0,76,77
 616 410 616 410 629 401 c 0,78,79
 641 393 641 393 652 381 c 0,80,81
 669 363 669 363 683 345 c 0,82,83
 697 328 697 328 707 328 c 0,84,85
 727 328 727 328 768 328 c 1,86,87
 768 252 768 252 768 182 c 0,88,89
 768 113 768 113 768 41 c 1,0,1
EndSplineSet
EndChar

StartChar: h
Encoding: 104 104 51
Width: 451
GlyphClass: 1
Flags: W
LayerCount: 2
Fore
SplineSet
246 389 m 2,0,1
 246 420 246 420 287 420 c 256,2,3
 328 420 328 420 328 389 c 0,4,5
 328 374 328 374 338 374 c 256,6,7
 348 374 348 374 348 389 c 256,8,9
 348 404 348 404 389 402 c 0,10,11
 430 399 430 399 430 369 c 0,12,13
 430 343 430 343 430 332 c 0,14,15
 430 322 430 322 430 266 c 0,16,17
 430 236 430 236 389 236 c 256,18,19
 348 236 348 236 348 266 c 2,20,21
 348 266 348 266 348 287 c 0,22,23
 348 307 348 307 348 307 c 2,24,25
 348 323 348 323 338 323 c 256,26,27
 328 323 328 323 328 307 c 2,28,29
 328 307 328 307 328 284 c 256,30,31
 328 261 328 261 328 246 c 0,32,33
 328 232 328 232 317 229 c 0,34,35
 307 225 307 225 307 225 c 1,36,37
 307 256 307 256 284 271 c 0,38,39
 261 287 261 287 246 287 c 1,40,41
 246 287 246 287 246 300 c 256,42,43
 246 313 246 313 246 330 c 0,44,45
 246 351 246 351 246 370 c 256,46,47
 246 389 246 389 246 389 c 2,0,1
389 -61 m 1,48,49
 294 -61 294 -61 102 -61 c 1,50,51
 102 -41 102 -41 102 0 c 0,52,53
 102 9 102 9 85 23 c 0,54,55
 67 38 67 38 49 55 c 0,56,57
 37 66 37 66 29 78 c 0,58,59
 20 90 20 90 20 102 c 0,60,61
 20 118 20 118 20 156 c 0,62,63
 20 195 20 195 20 225 c 0,64,65
 20 241 20 241 23 253 c 0,66,67
 26 266 26 266 41 266 c 0,68,69
 109 266 109 266 246 266 c 0,70,71
 257 266 257 266 266 263 c 0,72,73
 275 259 275 259 280 253 c 0,74,75
 298 236 298 236 289 210 c 256,76,77
 280 184 280 184 246 184 c 0,78,79
 245 184 245 184 223 184 c 0,80,81
 200 184 200 184 184 184 c 0,82,83
 154 184 154 184 138 177 c 0,84,85
 123 169 123 169 123 123 c 0,86,87
 123 108 123 108 133 108 c 256,88,89
 143 108 143 108 143 123 c 0,90,91
 143 154 143 154 148 159 c 0,92,93
 154 164 154 164 184 164 c 0,94,95
 205 164 205 164 246 164 c 0,96,97
 266 164 266 164 280 179 c 0,98,99
 295 194 295 194 311 208 c 0,100,101
 319 215 319 215 328 220 c 256,102,103
 337 225 337 225 348 225 c 0,104,105
 371 225 371 225 383 225 c 0,106,107
 394 225 394 225 410 225 c 1,108,109
 410 225 410 225 420 228 c 0,110,111
 430 230 430 230 430 246 c 1,112,113
 430 200 430 200 430 148 c 0,114,115
 430 97 430 97 430 82 c 256,116,117
 430 67 430 67 410 41 c 0,118,119
 389 15 389 15 389 0 c 256,120,121
 389 -15 389 -15 389 -31 c 256,122,123
 389 -47 389 -47 389 -61 c 1,48,49
225 287 m 1,124,125
 164 287 164 287 41 287 c 1,126,127
 41 287 41 287 41 303 c 0,128,129
 41 318 41 318 41 339 c 0,130,131
 41 364 41 364 41 387 c 256,132,133
 41 410 41 410 41 410 c 2,134,135
 41 485 41 485 41 635 c 0,136,137
 41 666 41 666 82 666 c 256,138,139
 123 666 123 666 123 635 c 0,140,141
 123 573 123 573 123 512 c 256,142,143
 123 451 123 451 123 389 c 0,144,145
 123 374 123 374 133 374 c 256,146,147
 143 374 143 374 143 389 c 0,148,149
 143 451 143 451 143 520 c 256,150,151
 143 589 143 589 143 655 c 0,152,153
 143 686 143 686 184 686 c 256,154,155
 225 686 225 686 225 655 c 0,156,157
 225 486 225 486 225 386 c 0,158,159
 225 287 225 287 225 287 c 1,124,125
EndSplineSet
EndChar

StartChar: i
Encoding: 105 105 52
Width: 451
GlyphClass: 1
Flags: W
LayerCount: 2
Fore
SplineSet
246 307 m 2,0,1
 246 323 246 323 236 323 c 0,2,3
 225 323 225 323 225 307 c 0,4,5
 225 292 225 292 225 289 c 0,6,7
 225 287 225 287 225 287 c 1,8,9
 198 287 198 287 143 287 c 1,10,11
 143 287 143 287 143 297 c 256,12,13
 143 307 143 307 143 307 c 257,14,15
 143 307 143 307 143 348 c 256,16,17
 143 389 143 389 143 389 c 2,18,19
 143 420 143 420 184 420 c 256,20,21
 225 420 225 420 225 389 c 0,22,23
 225 374 225 374 235 374 c 0,24,25
 246 374 246 374 246 389 c 0,26,27
 246 420 246 420 287 420 c 256,28,29
 328 420 328 420 328 389 c 0,30,31
 328 374 328 374 338 374 c 256,32,33
 348 374 348 374 348 389 c 256,34,35
 348 404 348 404 389 402 c 0,36,37
 430 399 430 399 430 369 c 0,38,39
 430 343 430 343 430 332 c 0,40,41
 430 322 430 322 430 266 c 0,42,43
 430 236 430 236 389 236 c 256,44,45
 348 236 348 236 348 266 c 0,46,47
 348 276 348 276 348 292 c 0,48,49
 348 307 348 307 348 307 c 2,50,51
 348 323 348 323 338 323 c 256,52,53
 328 323 328 323 328 307 c 2,54,55
 328 307 328 307 328 284 c 256,56,57
 328 261 328 261 328 246 c 0,58,59
 328 232 328 232 317 229 c 0,60,61
 307 225 307 225 307 225 c 1,62,63
 307 256 307 256 284 271 c 0,64,65
 261 287 261 287 246 287 c 1,66,67
 246 287 246 287 246 297 c 256,68,69
 246 307 246 307 246 307 c 2,0,1
389 -61 m 1,70,71
 294 -61 294 -61 102 -61 c 1,72,73
 102 -41 102 -41 102 0 c 0,74,75
 102 9 102 9 85 23 c 0,76,77
 67 38 67 38 49 55 c 0,78,79
 37 66 37 66 29 78 c 0,80,81
 20 90 20 90 20 102 c 0,82,83
 20 118 20 118 20 156 c 0,84,85
 20 195 20 195 20 225 c 0,86,87
 20 241 20 241 23 253 c 0,88,89
 26 266 26 266 41 266 c 0,90,91
 109 266 109 266 246 266 c 0,92,93
 257 266 257 266 266 263 c 0,94,95
 275 259 275 259 280 253 c 0,96,97
 298 236 298 236 289 210 c 256,98,99
 280 184 280 184 246 184 c 0,100,101
 245 184 245 184 223 184 c 0,102,103
 200 184 200 184 184 184 c 0,104,105
 154 184 154 184 138 177 c 0,106,107
 123 169 123 169 123 123 c 0,108,109
 123 108 123 108 133 108 c 256,110,111
 143 108 143 108 143 123 c 0,112,113
 143 154 143 154 148 159 c 0,114,115
 154 164 154 164 184 164 c 0,116,117
 205 164 205 164 246 164 c 0,118,119
 266 164 266 164 280 179 c 0,120,121
 295 194 295 194 311 208 c 0,122,123
 319 215 319 215 328 220 c 256,124,125
 337 225 337 225 348 225 c 2,126,127
 348 225 348 225 379 225 c 256,128,129
 410 225 410 225 410 225 c 257,130,131
 410 225 410 225 420 229 c 256,132,133
 430 233 430 233 430 246 c 1,134,135
 430 246 430 246 430 227 c 256,136,137
 430 208 430 208 430 183 c 0,138,139
 430 152 430 152 430 121 c 256,140,141
 430 90 430 90 430 82 c 0,142,143
 430 67 430 67 410 41 c 0,144,145
 389 15 389 15 389 0 c 256,146,147
 389 -15 389 -15 389 -31 c 256,148,149
 389 -47 389 -47 389 -61 c 1,70,71
123 287 m 1,150,151
 96 287 96 287 41 287 c 1,152,153
 41 287 41 287 41 292 c 256,154,155
 41 297 41 297 41 328 c 0,156,157
 41 341 41 341 41 360 c 256,158,159
 41 379 41 379 41 406 c 0,160,161
 41 445 41 445 41 501 c 256,162,163
 41 557 41 557 41 635 c 0,164,165
 41 666 41 666 82 666 c 256,166,167
 123 666 123 666 123 635 c 2,168,169
 123 635 123 635 123 590 c 256,170,171
 123 545 123 545 123 487 c 0,172,173
 123 441 123 441 123 395 c 256,174,175
 123 349 123 349 123 320 c 0,176,177
 123 305 123 305 123 296 c 256,178,179
 123 287 123 287 123 287 c 1,150,151
EndSplineSet
EndChar

StartChar: j
Encoding: 106 106 53
Width: 512
GlyphClass: 1
Flags: W
LayerCount: 2
Fore
SplineSet
41 266 m 1,0,1
 41 266 41 266 82 266 c 256,2,3
 123 266 123 266 123 266 c 257,4,5
 123 266 123 266 123 264 c 0,6,7
 123 261 123 261 123 246 c 0,8,9
 123 215 123 215 143 210 c 0,10,11
 164 205 164 205 164 205 c 2,12,13
 179 205 179 205 210 205 c 256,14,15
 241 205 241 205 266 205 c 1,16,17
 266 205 266 205 258 194 c 0,18,19
 250 184 250 184 240 170 c 0,20,21
 228 153 228 153 216 138 c 0,22,23
 205 123 205 123 205 123 c 257,24,25
 205 123 205 123 207 113 c 0,26,27
 210 102 210 102 225 102 c 1,28,29
 225 102 225 102 237 118 c 0,30,31
 248 133 248 133 261 149 c 0,32,33
 271 163 271 163 279 174 c 0,34,35
 287 184 287 184 287 184 c 257,36,37
 287 184 287 184 297 200 c 0,38,39
 307 215 307 215 307 246 c 2,40,41
 307 246 307 246 307 256 c 256,42,43
 307 266 307 266 307 266 c 257,44,45
 307 266 307 266 306 287 c 0,46,47
 304 307 304 307 287 307 c 0,48,49
 261 307 261 307 243 307 c 0,50,51
 226 307 226 307 225 307 c 0,52,53
 210 307 210 307 210 297 c 256,54,55
 210 287 210 287 225 287 c 0,56,57
 235 287 235 287 245 287 c 0,58,59
 256 287 256 287 266 287 c 0,60,61
 282 287 282 287 282 256 c 256,62,63
 282 225 282 225 266 225 c 0,64,65
 236 225 236 225 212 225 c 0,66,67
 189 225 189 225 164 225 c 1,68,69
 164 225 164 225 154 228 c 0,70,71
 143 230 143 230 143 246 c 0,72,73
 143 276 143 276 143 297 c 256,74,75
 143 318 143 318 143 348 c 0,76,77
 144 363 144 363 164 366 c 256,78,79
 184 369 184 369 184 369 c 1,80,81
 225 369 225 369 236 369 c 0,82,83
 246 369 246 369 266 369 c 2,84,85
 266 369 266 369 295 369 c 256,86,87
 324 369 324 369 361 369 c 0,88,89
 385 369 385 369 409 369 c 256,90,91
 433 369 433 369 451 369 c 1,92,93
 451 369 451 369 461 365 c 0,94,95
 471 362 471 362 480 341 c 0,96,97
 485 329 485 329 488 311 c 0,98,99
 492 293 492 293 492 266 c 0,100,101
 492 249 492 249 476 199 c 0,102,103
 461 149 461 149 444 99 c 0,104,105
 431 59 431 59 420 29 c 0,106,107
 410 0 410 0 410 0 c 1,108,109
 410 -20 410 -20 410 -61 c 1,110,111
 390 -61 390 -61 341 -61 c 256,112,113
 292 -61 292 -61 236 -61 c 0,114,115
 206 -61 206 -61 177 -61 c 256,116,117
 148 -61 148 -61 123 -61 c 1,118,119
 123 -41 123 -41 123 0 c 1,120,121
 123 0 123 0 103 44 c 0,122,123
 82 88 82 88 64 146 c 0,124,125
 54 177 54 177 48 208 c 0,126,127
 41 239 41 239 41 266 c 1,0,1
20 307 m 2,128,129
 20 307 20 307 20 328 c 0,130,131
 20 348 20 348 20 348 c 257,132,133
 20 348 20 348 23 358 c 0,134,135
 26 369 26 369 41 369 c 2,136,137
 41 369 41 369 72 369 c 0,138,139
 102 369 102 369 102 369 c 257,140,141
 102 369 102 369 113 366 c 0,142,143
 123 364 123 364 123 348 c 2,144,145
 123 348 123 348 123 328 c 0,146,147
 123 307 123 307 123 307 c 2,148,149
 123 293 123 293 110 286 c 0,150,151
 96 278 96 278 79 277 c 0,152,153
 58 275 58 275 39 283 c 0,154,155
 20 290 20 290 20 307 c 2,128,129
410 389 m 257,156,157
 410 389 410 389 396 389 c 0,158,159
 383 389 383 389 366 389 c 0,160,161
 345 389 345 389 326 389 c 256,162,163
 307 389 307 389 307 389 c 257,164,165
 307 389 307 389 307 430 c 256,166,167
 307 471 307 471 307 471 c 2,168,169
 307 502 307 502 287 507 c 0,170,171
 266 512 266 512 266 512 c 257,172,173
 266 512 266 512 246 512 c 0,174,175
 225 512 225 512 225 512 c 257,176,177
 225 512 225 512 205 507 c 0,178,179
 184 502 184 502 184 471 c 1,180,181
 184 471 184 471 184 471 c 257,182,183
 184 471 184 471 184 471 c 1,184,185
 184 440 184 440 143 440 c 256,186,187
 102 440 102 440 101 471 c 1,188,189
 102 471 102 471 102 481 c 0,190,191
 102 492 102 492 102 492 c 2,192,193
 102 538 102 538 131 566 c 0,194,195
 159 594 159 594 205 594 c 2,196,197
 205 594 205 594 221 594 c 256,198,199
 237 594 237 594 257 594 c 0,200,201
 282 594 282 594 305 594 c 256,202,203
 328 594 328 594 328 594 c 2,204,205
 374 594 374 594 392 568 c 0,206,207
 410 543 410 543 410 512 c 2,208,209
 410 512 410 512 410 496 c 256,210,211
 410 480 410 480 410 460 c 0,212,213
 410 435 410 435 410 412 c 256,214,215
 410 389 410 389 410 389 c 257,156,157
EndSplineSet
EndChar

StartChar: k
Encoding: 107 107 54
Width: 676
GlyphClass: 1
Flags: W
LayerCount: 2
Fore
SplineSet
256 266 m 1,0,1
 256 266 256 266 266 266 c 256,2,3
 276 266 276 266 276 266 c 257,4,5
 276 266 276 266 276 264 c 0,6,7
 276 261 276 261 276 246 c 0,8,9
 276 215 276 215 297 210 c 0,10,11
 317 205 317 205 317 205 c 2,12,13
 333 205 333 205 364 205 c 0,14,15
 394 205 394 205 420 205 c 1,16,17
 404 184 404 184 381 154 c 0,18,19
 358 123 358 123 358 123 c 257,20,21
 358 123 358 123 361 113 c 0,22,23
 364 102 364 102 379 102 c 1,24,25
 387 116 387 116 414 150 c 0,26,27
 440 184 440 184 440 184 c 257,28,29
 440 184 440 184 451 200 c 0,30,31
 461 215 461 215 461 246 c 2,32,33
 461 246 461 246 461 256 c 256,34,35
 461 266 461 266 461 266 c 257,36,37
 461 266 461 266 459 287 c 0,38,39
 458 307 458 307 440 307 c 0,40,41
 425 307 425 307 410 307 c 0,42,43
 394 307 394 307 379 307 c 256,44,45
 364 307 364 307 364 297 c 256,46,47
 364 287 364 287 379 287 c 256,48,49
 394 287 394 287 399 287 c 256,50,51
 404 287 404 287 420 287 c 0,52,53
 435 287 435 287 435 256 c 256,54,55
 435 225 435 225 420 225 c 0,56,57
 389 225 389 225 366 225 c 256,58,59
 343 225 343 225 317 225 c 1,60,61
 317 225 317 225 307 228 c 0,62,63
 297 230 297 230 297 246 c 0,64,65
 297 276 297 276 297 297 c 256,66,67
 297 318 297 318 297 348 c 0,68,69
 297 363 297 363 318 366 c 0,70,71
 338 369 338 369 338 369 c 2,72,73
 339 369 339 369 385 369 c 0,74,75
 430 369 430 369 483 369 c 0,76,77
 519 369 519 369 552 369 c 256,78,79
 585 369 585 369 604 369 c 1,80,81
 604 369 604 369 614 365 c 0,82,83
 625 362 625 362 634 341 c 0,84,85
 639 329 639 329 642 311 c 256,86,87
 645 293 645 293 645 266 c 0,88,89
 645 252 645 252 635 214 c 0,90,91
 624 175 624 175 611 132 c 0,92,93
 594 80 594 80 579 38 c 0,94,95
 564 -5 564 -5 563 0 c 1,96,97
 563 -20 563 -20 563 -61 c 1,98,99
 543 -61 543 -61 494 -61 c 256,100,101
 445 -61 445 -61 390 -61 c 0,102,103
 360 -61 360 -61 331 -61 c 256,104,105
 302 -61 302 -61 276 -61 c 1,106,107
 276 -41 276 -41 276 0 c 1,108,109
 276 0 276 0 271 44 c 256,110,111
 266 88 266 88 262 146 c 0,112,113
 259 177 259 177 258 208 c 0,114,115
 256 239 256 239 256 266 c 1,0,1
256 389 m 257,116,117
 256 389 256 389 256 410 c 0,118,119
 256 430 256 430 256 430 c 2,120,121
 256 455 256 455 292 462 c 256,122,123
 328 469 328 469 348 453 c 0,124,125
 353 448 353 448 356 443 c 0,126,127
 358 437 358 437 358 430 c 2,128,129
 358 430 358 430 358 410 c 0,130,131
 358 389 358 389 358 389 c 257,132,133
 358 389 358 389 345 389 c 256,134,135
 332 389 332 389 315 389 c 0,136,137
 294 389 294 389 275 389 c 256,138,139
 256 389 256 389 256 389 c 257,116,117
461 389 m 1,140,141
 461 389 461 389 461 423 c 0,142,143
 461 458 461 458 461 502 c 0,144,145
 461 557 461 557 461 606 c 256,146,147
 461 655 461 655 461 655 c 2,148,149
 461 686 461 686 502 686 c 256,150,151
 543 686 543 686 543 655 c 2,152,153
 543 655 543 655 543 621 c 256,154,155
 543 587 543 587 543 542 c 0,156,157
 543 488 543 488 543 438 c 0,158,159
 543 389 543 389 543 389 c 257,160,161
 543 389 543 389 502 389 c 0,162,163
 460 389 460 389 461 389 c 1,140,141
51 287 m 2,164,165
 20 287 20 287 20 328 c 256,166,167
 20 369 20 369 51 369 c 2,168,169
 51 369 51 369 80 369 c 256,170,171
 109 369 109 369 147 369 c 0,172,173
 193 369 193 369 235 369 c 0,174,175
 276 369 276 369 276 369 c 257,176,177
 276 369 276 369 276 328 c 256,178,179
 276 287 276 287 276 287 c 257,180,181
 276 287 276 287 247 287 c 256,182,183
 218 287 218 287 181 287 c 0,184,185
 135 287 135 287 93 287 c 256,186,187
 51 287 51 287 51 287 c 2,164,165
EndSplineSet
EndChar

StartChar: l
Encoding: 108 108 55
Width: 656
GlyphClass: 1
Flags: W
LayerCount: 2
Fore
SplineSet
594 -61 m 1,0,1
 498 -61 498 -61 307 -61 c 1,2,3
 307 -41 307 -41 307 0 c 0,4,5
 307 7 307 7 270 35 c 256,6,7
 233 63 233 63 185 95 c 0,8,9
 127 136 127 136 74 170 c 0,10,11
 20 205 20 205 20 205 c 1,12,13
 20 220 20 220 28 243 c 256,14,15
 36 266 36 266 82 266 c 0,16,17
 88 266 88 266 101 260 c 0,18,19
 114 253 114 253 130 245 c 0,20,21
 154 231 154 231 180 218 c 0,22,23
 207 205 207 205 225 205 c 0,24,25
 241 205 241 205 243 215 c 0,26,27
 246 225 246 225 246 225 c 257,28,29
 246 225 246 225 246 278 c 256,30,31
 246 331 246 331 246 399 c 0,32,33
 246 429 246 429 246 458 c 0,34,35
 246 488 246 488 246 515 c 0,36,37
 246 566 246 566 246 600 c 0,38,39
 246 635 246 635 246 635 c 2,40,41
 246 666 246 666 287 666 c 256,42,43
 328 666 328 666 328 635 c 2,44,45
 328 635 328 635 327 585 c 0,46,47
 327 534 327 534 327 469 c 0,48,49
 327 418 327 418 328 367 c 0,50,51
 328 316 328 316 328 283 c 0,52,53
 328 266 328 266 328 256 c 256,54,55
 328 246 328 246 328 246 c 2,56,57
 328 215 328 215 348 210 c 0,58,59
 369 205 369 205 369 205 c 2,60,61
 384 205 384 205 433 205 c 0,62,63
 481 205 481 205 512 205 c 256,64,65
 543 205 543 205 548 215 c 256,66,67
 553 225 553 225 553 225 c 257,68,69
 553 225 553 225 556 225 c 0,70,71
 558 225 558 225 573 225 c 2,72,73
 573 225 573 225 594 225 c 0,74,75
 614 225 614 225 614 225 c 257,76,77
 614 225 614 225 625 228 c 0,78,79
 635 230 635 230 635 246 c 1,80,81
 635 246 635 246 635 228 c 0,82,83
 635 209 635 209 635 186 c 0,84,85
 635 157 635 157 635 130 c 256,86,87
 635 103 635 103 635 102 c 0,88,89
 635 87 635 87 614 51 c 0,90,91
 594 15 594 15 594 0 c 256,92,93
 594 -15 594 -15 594 -31 c 256,94,95
 594 -47 594 -47 594 -61 c 1,0,1
430 389 m 0,96,97
 430 374 430 374 440 374 c 0,98,99
 451 374 451 374 451 389 c 0,100,101
 451 420 451 420 492 420 c 0,102,103
 532 420 532 420 532 389 c 0,104,105
 532 374 532 374 543 374 c 0,106,107
 553 374 553 374 553 389 c 256,108,109
 553 404 553 404 594 402 c 0,110,111
 635 399 635 399 635 369 c 2,112,113
 635 369 635 369 635 353 c 256,114,115
 635 337 635 337 635 317 c 0,116,117
 635 298 635 298 635 282 c 256,118,119
 635 266 635 266 635 266 c 2,120,121
 635 236 635 236 594 236 c 256,122,123
 553 236 553 236 553 266 c 2,124,125
 553 266 553 266 553 287 c 0,126,127
 553 307 553 307 553 307 c 2,128,129
 553 323 553 323 543 323 c 0,130,131
 532 323 532 323 532 307 c 2,132,133
 532 307 532 307 532 276 c 0,134,135
 532 246 532 246 532 246 c 2,136,137
 532 215 532 215 492 215 c 0,138,139
 451 215 451 215 451 246 c 2,140,141
 451 246 451 246 451 276 c 0,142,143
 451 307 451 307 451 307 c 2,144,145
 451 322 451 322 441 323 c 0,146,147
 431 323 431 323 430 309 c 0,148,149
 430 308 430 308 430 308 c 257,150,151
 430 308 430 308 430 307 c 2,152,153
 430 307 430 307 430 276 c 0,154,155
 430 246 430 246 430 246 c 2,156,157
 430 215 430 215 389 215 c 256,158,159
 348 215 348 215 348 246 c 2,160,161
 348 246 348 246 348 264 c 0,162,163
 348 283 348 283 348 307 c 0,164,165
 348 336 348 336 348 363 c 0,166,167
 348 389 348 389 348 389 c 2,168,169
 348 420 348 420 389 420 c 256,170,171
 430 420 430 420 430 389 c 0,96,97
EndSplineSet
EndChar

StartChar: m
Encoding: 109 109 56
Width: 450
GlyphClass: 1
Flags: W
LayerCount: 2
Fore
SplineSet
225 369 m 2,0,1
 225 369 225 369 225 330 c 0,2,3
 225 292 225 292 225 266 c 0,4,5
 225 236 225 236 184 236 c 256,6,7
 143 236 143 236 143 266 c 2,8,9
 143 266 143 266 143 279 c 0,10,11
 143 293 143 293 143 310 c 0,12,13
 143 331 143 331 143 350 c 256,14,15
 143 369 143 369 143 369 c 2,16,17
 143 384 143 384 133 384 c 256,18,19
 123 384 123 384 123 369 c 2,20,21
 123 369 123 369 123 355 c 0,22,23
 123 342 123 342 123 325 c 0,24,25
 123 304 123 304 123 285 c 256,26,27
 123 266 123 266 123 266 c 2,28,29
 123 236 123 236 82 236 c 256,30,31
 41 236 41 236 41 266 c 0,32,33
 41 335 41 335 41 471 c 0,34,35
 41 502 41 502 82 502 c 256,36,37
 123 502 123 502 123 471 c 0,38,39
 123 456 123 456 133 456 c 256,40,41
 143 456 143 456 143 471 c 0,42,43
 143 502 143 502 184 502 c 256,44,45
 225 502 225 502 225 471 c 0,46,47
 225 456 225 456 236 456 c 0,48,49
 246 456 246 456 246 471 c 0,50,51
 246 502 246 502 287 502 c 256,52,53
 328 502 328 502 328 471 c 0,54,55
 328 403 328 403 328 266 c 0,56,57
 328 236 328 236 287 236 c 256,58,59
 246 236 246 236 246 266 c 2,60,61
 246 266 246 266 246 279 c 0,62,63
 246 293 246 293 246 310 c 0,64,65
 246 331 246 331 246 350 c 256,66,67
 246 369 246 369 246 369 c 2,68,69
 246 384 246 384 236 384 c 0,70,71
 225 384 225 384 225 369 c 2,0,1
389 -61 m 1,72,73
 294 -61 294 -61 102 -61 c 1,74,75
 102 -41 102 -41 102 0 c 0,76,77
 102 9 102 9 85 23 c 0,78,79
 67 38 67 38 49 55 c 0,80,81
 37 66 37 66 29 78 c 0,82,83
 20 90 20 90 20 102 c 0,84,85
 20 118 20 118 20 164 c 256,86,87
 20 210 20 210 20 246 c 1,88,89
 20 230 20 230 31 228 c 0,90,91
 41 225 41 225 41 225 c 1,92,93
 59 225 59 225 86 225 c 256,94,95
 113 225 113 225 143 225 c 0,96,97
 198 225 198 225 253 225 c 0,98,99
 307 225 307 225 328 225 c 1,100,101
 328 225 328 225 323 205 c 0,102,103
 317 184 317 184 287 184 c 2,104,105
 287 184 287 184 243 184 c 0,106,107
 200 184 200 184 184 184 c 0,108,109
 154 184 154 184 138 177 c 0,110,111
 123 169 123 169 123 123 c 0,112,113
 123 108 123 108 133 108 c 256,114,115
 143 108 143 108 143 123 c 0,116,117
 143 154 143 154 148 159 c 0,118,119
 154 164 154 164 184 164 c 0,120,121
 218 164 218 164 287 164 c 0,122,123
 307 164 307 164 321 179 c 0,124,125
 336 194 336 194 352 208 c 0,126,127
 360 215 360 215 369 220 c 256,128,129
 378 225 378 225 389 225 c 2,130,131
 389 225 389 225 399 225 c 0,132,133
 410 225 410 225 410 225 c 257,134,135
 410 225 410 225 420 229 c 256,136,137
 430 233 430 233 430 246 c 1,138,139
 430 246 430 246 430 227 c 256,140,141
 430 208 430 208 430 183 c 0,142,143
 430 152 430 152 430 121 c 256,144,145
 430 90 430 90 430 82 c 0,146,147
 430 67 430 67 410 41 c 0,148,149
 389 15 389 15 389 0 c 256,150,151
 389 -15 389 -15 389 -31 c 256,152,153
 389 -47 389 -47 389 -61 c 1,72,73
430 369 m 0,154,155
 430 357 430 357 430 348 c 0,156,157
 430 340 430 340 430 333 c 0,158,159
 430 297 430 297 430 305 c 256,160,161
 430 313 430 313 430 266 c 0,162,163
 430 236 430 236 389 236 c 256,164,165
 348 236 348 236 348 266 c 2,166,167
 348 266 348 266 348 282 c 256,168,169
 348 298 348 298 348 318 c 0,170,171
 348 344 348 344 348 366 c 0,172,173
 348 389 348 389 348 389 c 2,174,175
 348 404 348 404 389 402 c 0,176,177
 430 399 430 399 430 369 c 0,154,155
EndSplineSet
EndChar

StartChar: n
Encoding: 110 110 57
Width: 450
GlyphClass: 1
Flags: W
LayerCount: 2
Fore
SplineSet
225 266 m 2,0,1
 225 236 225 236 184 236 c 256,2,3
 143 236 143 236 143 266 c 2,4,5
 143 266 143 266 143 279 c 0,6,7
 143 293 143 293 143 310 c 0,8,9
 143 331 143 331 143 350 c 256,10,11
 143 369 143 369 143 369 c 2,12,13
 143 384 143 384 133 384 c 256,14,15
 123 384 123 384 123 369 c 2,16,17
 123 369 123 369 123 355 c 0,18,19
 123 342 123 342 123 325 c 0,20,21
 123 304 123 304 123 285 c 256,22,23
 123 266 123 266 123 266 c 2,24,25
 123 236 123 236 82 236 c 256,26,27
 41 236 41 236 41 266 c 0,28,29
 41 335 41 335 41 471 c 0,30,31
 41 502 41 502 82 502 c 256,32,33
 123 502 123 502 123 471 c 0,34,35
 123 456 123 456 133 456 c 256,36,37
 143 456 143 456 143 471 c 0,38,39
 143 502 143 502 184 502 c 256,40,41
 225 502 225 502 225 471 c 2,42,43
 225 471 225 471 225 445 c 0,44,45
 225 418 225 418 225 384 c 0,46,47
 225 342 225 342 225 304 c 256,48,49
 225 266 225 266 225 266 c 2,0,1
389 -61 m 1,50,51
 294 -61 294 -61 102 -61 c 1,52,53
 102 -41 102 -41 102 0 c 0,54,55
 102 9 102 9 85 23 c 0,56,57
 67 38 67 38 49 55 c 0,58,59
 37 66 37 66 29 78 c 0,60,61
 20 90 20 90 20 102 c 0,62,63
 20 109 20 109 20 129 c 256,64,65
 20 149 20 149 20 172 c 0,66,67
 20 199 20 199 20 223 c 0,68,69
 20 246 20 246 20 246 c 1,70,71
 21 230 21 230 31 228 c 0,72,73
 41 225 41 225 41 225 c 257,74,75
 41 225 41 225 71 225 c 0,76,77
 102 225 102 225 135 225 c 0,78,79
 162 225 162 225 184 225 c 0,80,81
 205 225 205 225 205 225 c 2,82,83
 220 225 220 225 233 238 c 256,84,85
 246 251 246 251 246 266 c 1,86,87
 257 266 257 266 266 263 c 0,88,89
 275 259 275 259 280 253 c 0,90,91
 298 236 298 236 289 210 c 256,92,93
 280 184 280 184 246 184 c 2,94,95
 246 184 246 184 223 184 c 256,96,97
 200 184 200 184 184 184 c 0,98,99
 154 184 154 184 138 177 c 0,100,101
 123 169 123 169 123 123 c 0,102,103
 123 108 123 108 133 108 c 256,104,105
 143 108 143 108 143 123 c 0,106,107
 143 154 143 154 148 159 c 0,108,109
 154 164 154 164 184 164 c 0,110,111
 205 164 205 164 246 164 c 0,112,113
 266 164 266 164 280 179 c 0,114,115
 295 194 295 194 311 208 c 0,116,117
 319 215 319 215 328 220 c 256,118,119
 337 225 337 225 348 225 c 2,120,121
 348 225 348 225 379 225 c 256,122,123
 410 225 410 225 410 225 c 257,124,125
 410 225 410 225 420 229 c 256,126,127
 430 233 430 233 430 246 c 1,128,129
 430 246 430 246 430 227 c 256,130,131
 430 208 430 208 430 183 c 0,132,133
 430 152 430 152 430 121 c 256,134,135
 430 90 430 90 430 82 c 0,136,137
 430 67 430 67 410 41 c 0,138,139
 389 15 389 15 389 0 c 256,140,141
 389 -15 389 -15 389 -31 c 256,142,143
 389 -47 389 -47 389 -61 c 1,50,51
246 307 m 2,144,145
 246 308 246 308 246 348 c 0,146,147
 246 389 246 389 246 389 c 2,148,149
 246 420 246 420 287 420 c 256,150,151
 328 420 328 420 328 389 c 0,152,153
 328 374 328 374 338 374 c 256,154,155
 348 374 348 374 348 389 c 256,156,157
 348 404 348 404 389 402 c 0,158,159
 430 399 430 399 430 369 c 0,160,161
 430 343 430 343 430 332 c 0,162,163
 430 322 430 322 430 266 c 0,164,165
 430 236 430 236 389 236 c 256,166,167
 348 236 348 236 348 266 c 2,168,169
 348 266 348 266 348 287 c 0,170,171
 348 307 348 307 348 307 c 2,172,173
 348 323 348 323 338 323 c 256,174,175
 328 323 328 323 328 307 c 2,176,177
 328 307 328 307 328 284 c 256,178,179
 328 261 328 261 328 246 c 0,180,181
 328 232 328 232 317 229 c 0,182,183
 307 225 307 225 307 225 c 1,184,185
 307 256 307 256 284 271 c 0,186,187
 261 287 261 287 246 287 c 1,188,189
 246 287 246 287 246 297 c 256,190,191
 246 307 246 307 246 307 c 2,144,145
EndSplineSet
EndChar

StartChar: o
Encoding: 111 111 58
Width: 451
GlyphClass: 1
Flags: W
LayerCount: 2
Fore
SplineSet
20 266 m 2,0,1
 20 266 20 266 20 289 c 256,2,3
 20 312 20 312 20 337 c 0,4,5
 20 357 20 357 20 373 c 256,6,7
 20 389 20 389 20 389 c 2,8,9
 20 399 20 399 24 405 c 0,10,11
 28 412 28 412 34 416 c 0,12,13
 48 427 48 427 65 428 c 0,14,15
 82 430 82 430 82 430 c 1,16,17
 82 476 82 476 110 504 c 256,18,19
 138 532 138 532 184 532 c 2,20,21
 184 532 184 532 205 532 c 0,22,23
 227 532 227 532 254 532 c 0,24,25
 287 532 287 532 318 532 c 0,26,27
 348 532 348 532 348 532 c 2,28,29
 394 532 394 532 412 507 c 0,30,31
 430 481 430 481 430 451 c 0,32,33
 430 440 430 440 430 423 c 0,34,35
 430 407 430 407 430 388 c 0,36,37
 430 352 430 352 430 316 c 0,38,39
 430 281 430 281 430 266 c 2,40,41
 430 266 430 266 425 232 c 0,42,43
 420 197 420 197 413 153 c 0,44,45
 404 98 404 98 397 49 c 0,46,47
 389 0 389 0 389 0 c 2,48,49
 389 -20 389 -20 389 -61 c 1,50,51
 378 -61 378 -61 358 -61 c 0,52,53
 339 -61 339 -61 313 -61 c 0,54,55
 266 -61 266 -61 207 -61 c 0,56,57
 149 -61 149 -61 102 -61 c 1,58,59
 102 -41 102 -41 102 0 c 1,60,61
 102 0 102 0 82 44 c 256,62,63
 62 88 62 88 44 146 c 0,64,65
 34 177 34 177 27 208 c 256,66,67
 20 239 20 239 20 266 c 2,0,1
246 451 m 257,68,69
 246 451 246 451 225 451 c 0,70,71
 205 451 205 451 205 451 c 257,72,73
 205 451 205 451 184 445 c 0,74,75
 164 440 164 440 164 410 c 0,76,77
 164 394 164 394 151 392 c 0,78,79
 138 389 138 389 123 389 c 1,80,81
 123 358 123 358 123 328 c 0,82,83
 123 297 123 297 123 266 c 0,84,85
 123 220 123 220 143 212 c 0,86,87
 164 205 164 205 164 205 c 1,88,89
 179 205 179 205 212 205 c 0,90,91
 246 205 246 205 246 205 c 257,92,93
 246 205 246 205 238 194 c 0,94,95
 230 184 230 184 220 170 c 0,96,97
 207 153 207 153 196 138 c 0,98,99
 184 123 184 123 184 123 c 257,100,101
 184 123 184 123 187 113 c 0,102,103
 189 102 189 102 205 102 c 1,104,105
 205 102 205 102 216 118 c 0,106,107
 228 133 228 133 240 149 c 0,108,109
 250 163 250 163 258 174 c 0,110,111
 266 184 266 184 266 184 c 257,112,113
 266 184 266 184 276 200 c 0,114,115
 287 215 287 215 287 246 c 2,116,117
 287 246 287 246 287 256 c 256,118,119
 287 266 287 266 287 266 c 257,120,121
 287 266 287 266 287 293 c 0,122,123
 287 319 287 319 287 349 c 0,124,125
 287 373 287 373 287 391 c 0,126,127
 287 410 287 410 287 410 c 2,128,129
 287 440 287 440 266 445 c 0,130,131
 246 451 246 451 246 451 c 257,68,69
EndSplineSet
EndChar

StartChar: p
Encoding: 112 112 59
Width: 492
GlyphClass: 1
Flags: W
LayerCount: 2
Fore
SplineSet
102 389 m 1,0,1
 102 410 102 410 102 451 c 1,2,3
 127 451 127 451 157 451 c 0,4,5
 186 451 186 451 216 451 c 0,6,7
 271 451 271 451 320 451 c 256,8,9
 369 451 369 451 389 451 c 1,10,11
 389 430 389 430 389 389 c 1,12,13
 389 389 389 389 407 347 c 256,14,15
 425 305 425 305 442 252 c 0,16,17
 454 217 454 217 463 182 c 0,18,19
 471 147 471 147 471 123 c 0,20,21
 471 78 471 78 471 23 c 0,22,23
 471 -31 471 -31 471 -87 c 0,24,25
 471 -192 471 -192 471 -280 c 0,26,27
 471 -369 471 -369 471 -389 c 0,28,29
 471 -420 471 -420 430 -420 c 256,30,31
 389 -420 389 -420 389 -389 c 2,32,33
 389 -389 389 -389 389 -349 c 256,34,35
 389 -309 389 -309 389 -257 c 0,36,37
 389 -192 389 -192 389 -131 c 256,38,39
 389 -70 389 -70 389 -61 c 0,40,41
 389 -46 389 -46 379 -46 c 256,42,43
 369 -46 369 -46 369 -61 c 0,44,45
 369 -64 369 -64 369 -107 c 0,46,47
 369 -151 369 -151 369 -206 c 0,48,49
 369 -274 369 -274 369 -338 c 0,50,51
 369 -401 369 -401 369 -410 c 0,52,53
 369 -440 369 -440 328 -440 c 256,54,55
 287 -440 287 -440 287 -410 c 0,56,57
 287 -403 287 -403 287 -369 c 0,58,59
 287 -336 287 -336 287 -295 c 0,60,61
 287 -245 287 -245 287 -198 c 0,62,63
 287 -152 287 -152 287 -143 c 0,64,65
 287 -128 287 -128 276 -128 c 0,66,67
 266 -128 266 -128 266 -143 c 0,68,69
 266 -148 266 -148 266 -195 c 0,70,71
 266 -241 266 -241 266 -292 c 0,72,73
 266 -334 266 -334 266 -368 c 0,74,75
 266 -403 266 -403 266 -410 c 0,76,77
 266 -440 266 -440 225 -440 c 256,78,79
 184 -440 184 -440 184 -410 c 0,80,81
 184 -403 184 -403 184 -367 c 256,82,83
 184 -331 184 -331 184 -288 c 0,84,85
 184 -235 184 -235 184 -189 c 256,86,87
 184 -143 184 -143 184 -143 c 1,88,89
 138 -143 138 -143 110 -115 c 256,90,91
 82 -87 82 -87 82 -41 c 1,92,93
 82 -41 82 -41 65 -39 c 256,94,95
 48 -37 48 -37 34 -27 c 0,96,97
 28 -23 28 -23 24 -16 c 256,98,99
 20 -9 20 -9 20 0 c 2,100,101
 20 0 20 0 20 16 c 256,102,103
 20 32 20 32 20 52 c 0,104,105
 20 77 20 77 20 100 c 256,106,107
 20 123 20 123 20 123 c 2,108,109
 20 150 20 150 27 181 c 256,110,111
 34 212 34 212 44 243 c 0,112,113
 62 301 62 301 82 345 c 256,114,115
 102 389 102 389 102 389 c 1,0,1
287 -20 m 2,116,117
 287 -20 287 -20 287 6 c 0,118,119
 287 33 287 33 287 62 c 0,120,121
 287 86 287 86 287 104 c 0,122,123
 287 123 287 123 287 123 c 257,124,125
 287 123 287 123 287 133 c 256,126,127
 287 143 287 143 287 143 c 2,128,129
 287 174 287 174 266 179 c 256,130,131
 245 184 245 184 246 184 c 1,132,133
 246 184 246 184 212 184 c 0,134,135
 179 184 179 184 164 184 c 1,136,137
 164 184 164 184 143 177 c 0,138,139
 123 169 123 169 123 123 c 0,140,141
 123 92 123 92 123 61 c 0,142,143
 123 31 123 31 123 0 c 1,144,145
 138 0 138 0 151 -3 c 0,146,147
 164 -5 164 -5 164 -20 c 0,148,149
 164 -51 164 -51 184 -56 c 0,150,151
 205 -61 205 -61 205 -61 c 257,152,153
 205 -61 205 -61 225 -61 c 0,154,155
 246 -61 246 -61 246 -61 c 257,156,157
 246 -61 246 -61 266 -56 c 0,158,159
 287 -51 287 -51 287 -20 c 2,116,117
EndSplineSet
EndChar

StartChar: q
Encoding: 113 113 60
Width: 573
GlyphClass: 1
Flags: W
LayerCount: 2
Fore
SplineSet
82 225 m 0,0,1
 82 238 82 238 75 254 c 0,2,3
 69 270 69 270 60 286 c 0,4,5
 47 311 47 311 34 329 c 0,6,7
 20 348 20 348 20 348 c 1,8,9
 20 364 20 364 28 387 c 256,10,11
 36 410 36 410 82 410 c 1,12,13
 67 410 67 410 67 430 c 0,14,15
 67 451 67 451 82 451 c 1,16,17
 82 451 82 451 113 470 c 256,18,19
 144 489 144 489 179 509 c 0,20,21
 209 527 209 527 234 540 c 256,22,23
 259 553 259 553 266 553 c 1,24,25
 266 553 266 553 266 553 c 257,26,27
 266 553 266 553 266 553 c 257,28,29
 266 553 266 553 266 553 c 257,30,31
 266 553 266 553 267 553 c 0,32,33
 291 553 291 553 321 536 c 256,34,35
 351 519 351 519 381 495 c 0,36,37
 425 460 425 460 458 425 c 0,38,39
 492 389 492 389 492 389 c 1,40,41
 498 389 498 389 473 389 c 256,42,43
 448 389 448 389 413 389 c 0,44,45
 369 389 369 389 328 389 c 256,46,47
 287 389 287 389 287 389 c 257,48,49
 287 389 287 389 264 420 c 256,50,51
 241 451 241 451 225 451 c 1,52,53
 225 451 225 451 206 439 c 0,54,55
 187 428 187 428 166 415 c 0,56,57
 149 405 149 405 136 397 c 256,58,59
 123 389 123 389 123 389 c 257,60,61
 123 389 123 389 134 370 c 0,62,63
 146 351 146 351 158 330 c 0,64,65
 169 313 169 313 176 300 c 0,66,67
 184 287 184 287 184 287 c 257,68,69
 184 287 184 287 184 274 c 256,70,71
 184 261 184 261 184 246 c 0,72,73
 184 215 184 215 205 210 c 0,74,75
 225 205 225 205 225 205 c 2,76,77
 241 205 241 205 271 205 c 0,78,79
 302 205 302 205 328 205 c 1,80,81
 328 205 328 205 320 194 c 0,82,83
 312 184 312 184 302 170 c 0,84,85
 289 153 289 153 278 138 c 0,86,87
 266 123 266 123 266 123 c 257,88,89
 266 123 266 123 269 113 c 0,90,91
 271 102 271 102 287 102 c 1,92,93
 287 102 287 102 298 118 c 0,94,95
 309 133 309 133 322 149 c 0,96,97
 332 163 332 163 340 174 c 0,98,99
 348 184 348 184 348 184 c 257,100,101
 348 184 348 184 358 200 c 0,102,103
 369 215 369 215 369 246 c 2,104,105
 369 246 369 246 369 256 c 256,106,107
 369 266 369 266 369 266 c 257,108,109
 369 266 369 266 367 287 c 0,110,111
 365 307 365 307 348 307 c 0,112,113
 332 308 332 308 317 307 c 0,114,115
 302 307 302 307 287 307 c 0,116,117
 271 307 271 307 271 297 c 256,118,119
 271 287 271 287 287 287 c 0,120,121
 296 287 296 287 307 287 c 0,122,123
 317 287 317 287 328 287 c 0,124,125
 343 287 343 287 343 256 c 256,126,127
 343 225 343 225 328 225 c 0,128,129
 297 225 297 225 274 225 c 256,130,131
 251 225 251 225 225 225 c 1,132,133
 225 225 225 225 215 228 c 0,134,135
 205 230 205 230 205 246 c 0,136,137
 205 276 205 276 205 297 c 0,138,139
 204 318 204 318 205 348 c 0,140,141
 205 363 205 363 225 366 c 0,142,143
 246 369 246 369 246 369 c 1,144,145
 287 369 287 369 297 369 c 256,146,147
 307 369 307 369 328 369 c 2,148,149
 328 369 328 369 357 369 c 256,150,151
 386 369 386 369 422 369 c 0,152,153
 447 369 447 369 471 369 c 256,154,155
 495 369 495 369 512 369 c 1,156,157
 512 369 512 369 522 365 c 0,158,159
 533 362 533 362 541 341 c 0,160,161
 546 329 546 329 550 311 c 0,162,163
 553 293 553 293 553 266 c 0,164,165
 553 252 553 252 542 215 c 0,166,167
 532 178 532 178 518 136 c 0,168,169
 501 85 501 85 486 42 c 0,170,171
 471 0 471 0 471 0 c 1,172,173
 471 -20 471 -20 471 -61 c 1,174,175
 460 -61 460 -61 440 -61 c 256,176,177
 420 -61 420 -61 395 -61 c 0,178,179
 347 -61 347 -61 289 -61 c 256,180,181
 231 -61 231 -61 184 -61 c 1,182,183
 184 -41 184 -41 184 0 c 1,184,185
 184 0 184 0 171 24 c 256,186,187
 158 48 158 48 141 82 c 0,188,189
 120 123 120 123 101 166 c 0,190,191
 82 208 82 208 82 225 c 0,0,1
EndSplineSet
EndChar

StartChar: r
Encoding: 114 114 61
Width: 779
GlyphClass: 1
Flags: W
LayerCount: 2
Fore
SplineSet
481 614 m 1,0,1
 481 614 481 614 505 577 c 256,2,3
 529 540 529 540 561 492 c 0,4,5
 600 434 600 434 639 381 c 0,6,7
 677 328 677 328 686 328 c 0,8,9
 701 328 701 328 716 328 c 256,10,11
 731 328 731 328 748 328 c 1,12,13
 748 232 748 232 748 41 c 1,14,15
 741 41 741 41 721 41 c 256,16,17
 701 41 701 41 686 41 c 256,18,19
 671 41 671 41 635 20 c 0,20,21
 599 0 599 0 584 0 c 0,22,23
 522 0 522 0 451 0 c 0,24,25
 379 0 379 0 317 0 c 0,26,27
 287 0 287 0 284 41 c 0,28,29
 282 82 282 82 297 82 c 256,30,31
 312 82 312 82 312 92 c 256,32,33
 312 102 312 102 297 102 c 0,34,35
 266 102 266 102 266 143 c 256,36,37
 266 184 266 184 297 184 c 0,38,39
 312 184 312 184 312 195 c 0,40,41
 312 205 312 205 297 205 c 0,42,43
 266 205 266 205 266 246 c 256,44,45
 266 287 266 287 297 287 c 0,46,47
 307 287 307 287 310 297 c 0,48,49
 312 307 312 307 297 307 c 2,50,51
 297 307 297 307 265 307 c 0,52,53
 234 307 234 307 192 307 c 0,54,55
 142 307 142 307 97 307 c 0,56,57
 51 307 51 307 51 307 c 2,58,59
 20 307 20 307 20 348 c 256,60,61
 20 389 20 389 51 389 c 0,62,63
 54 389 54 389 66 389 c 256,64,65
 78 389 78 389 97 389 c 0,66,67
 131 389 131 389 182 389 c 256,68,69
 233 389 233 389 285 389 c 0,70,71
 350 389 350 389 402 389 c 256,72,73
 454 389 454 389 461 389 c 2,74,75
 461 389 461 389 471 392 c 0,76,77
 481 394 481 394 481 410 c 0,78,79
 481 430 481 430 466 455 c 256,80,81
 451 480 451 480 437 504 c 0,82,83
 430 517 430 517 425 530 c 0,84,85
 420 542 420 542 420 553 c 0,86,87
 420 603 420 603 443 609 c 0,88,89
 466 614 466 614 481 614 c 1,0,1
EndSplineSet
EndChar

StartChar: s
Encoding: 115 115 62
Width: 574
GlyphClass: 1
Flags: W
LayerCount: 2
Fore
SplineSet
133 287 m 0,0,1
 118 287 118 287 115 297 c 0,2,3
 113 307 113 307 113 307 c 2,4,5
 113 323 113 323 125 335 c 0,6,7
 138 348 138 348 154 348 c 0,8,9
 161 348 161 348 194 348 c 256,10,11
 227 348 227 348 266 348 c 0,12,13
 315 348 315 348 357 348 c 256,14,15
 399 348 399 348 399 348 c 2,16,17
 415 348 415 348 415 358 c 0,18,19
 415 369 415 369 399 369 c 2,20,21
 399 369 399 369 368 369 c 0,22,23
 336 369 336 369 295 369 c 0,24,25
 245 369 245 369 199 369 c 0,26,27
 154 369 154 369 154 369 c 2,28,29
 115 369 115 369 103 346 c 0,30,31
 92 323 92 323 92 307 c 1,32,33
 92 307 92 307 72 307 c 0,34,35
 51 307 51 307 51 307 c 2,36,37
 20 307 20 307 20 348 c 256,38,39
 20 389 20 389 51 389 c 2,40,41
 51 389 51 389 102 389 c 0,42,43
 152 389 152 389 219 389 c 0,44,45
 247 389 247 389 276 389 c 256,46,47
 305 389 305 389 332 389 c 0,48,49
 383 389 383 389 419 389 c 256,50,51
 455 389 455 389 461 389 c 0,52,53
 492 389 492 389 527 366 c 0,54,55
 563 343 563 343 563 266 c 0,56,57
 563 252 563 252 558 215 c 256,58,59
 553 178 553 178 546 136 c 0,60,61
 537 85 537 85 530 42 c 0,62,63
 522 0 522 0 522 0 c 2,64,65
 522 -20 522 -20 522 -61 c 1,66,67
 502 -61 502 -61 453 -61 c 256,68,69
 404 -61 404 -61 349 -61 c 0,70,71
 319 -61 319 -61 290 -61 c 256,72,73
 261 -61 261 -61 236 -61 c 1,74,75
 236 -41 236 -41 236 0 c 1,76,77
 235 0 235 0 230 44 c 256,78,79
 225 88 225 88 220 146 c 0,80,81
 218 177 218 177 217 208 c 0,82,83
 215 239 215 239 215 266 c 1,84,85
 249 266 249 266 317 266 c 1,86,87
 317 266 317 266 317 246 c 0,88,89
 317 225 317 225 317 225 c 257,90,91
 317 225 317 225 348 228 c 0,92,93
 379 230 379 230 379 246 c 0,94,95
 379 255 379 255 380 259 c 256,96,97
 381 263 381 263 383 264 c 0,98,99
 388 265 388 265 394 255 c 0,100,101
 399 246 399 246 399 246 c 1,102,103
 399 230 399 230 389 218 c 0,104,105
 379 205 379 205 379 205 c 257,106,107
 379 205 379 205 367 190 c 0,108,109
 356 174 356 174 344 158 c 0,110,111
 333 144 333 144 325 133 c 0,112,113
 317 123 317 123 317 123 c 257,114,115
 317 123 317 123 320 113 c 0,116,117
 323 102 323 102 338 102 c 1,118,119
 338 102 338 102 349 118 c 0,120,121
 361 133 361 133 373 149 c 0,122,123
 383 163 383 163 391 174 c 0,124,125
 399 184 399 184 399 184 c 257,126,127
 399 184 399 184 410 200 c 0,128,129
 420 215 420 215 420 246 c 0,130,131
 420 276 420 276 399 282 c 0,132,133
 379 287 379 287 379 287 c 1,134,135
 278 287 278 287 228 287 c 0,136,137
 179 287 179 287 133 287 c 0,0,1
215 410 m 257,138,139
 215 410 215 410 215 430 c 0,140,141
 215 451 215 451 215 451 c 2,142,143
 215 475 215 475 251 482 c 0,144,145
 263 485 263 485 272 485 c 0,146,147
 293 484 293 484 307 473 c 0,148,149
 312 469 312 469 315 463 c 0,150,151
 317 458 317 458 317 451 c 2,152,153
 317 451 317 451 317 430 c 0,154,155
 317 410 317 410 317 410 c 257,156,157
 317 410 317 410 304 410 c 256,158,159
 291 410 291 410 274 410 c 0,160,161
 253 410 253 410 234 410 c 256,162,163
 215 410 215 410 215 410 c 257,138,139
EndSplineSet
EndChar

StartChar: t
Encoding: 116 116 63
Width: 492
GlyphClass: 1
Flags: W
LayerCount: 2
Fore
SplineSet
102 635 m 0,0,1
 109 567 109 567 123 430 c 1,2,3
 116 430 116 430 102 430 c 0,4,5
 87 430 87 430 64 410 c 0,6,7
 41 389 41 389 41 389 c 1,8,9
 34 467 34 467 22 624 c 0,10,11
 22 655 22 655 62 656 c 0,12,13
 65 656 65 656 68 656 c 0,14,15
 103 656 103 656 102 635 c 0,0,1
93 307 m 1,16,17
 78 307 78 307 78 307 c 2,18,19
 77 307 77 307 61 307 c 0,20,21
 46 307 46 307 33 322 c 0,22,23
 20 338 20 338 20 348 c 1,24,25
 36 364 36 364 61 387 c 0,26,27
 87 410 87 410 102 410 c 0,28,29
 118 410 118 410 144 410 c 0,30,31
 171 410 171 410 171 410 c 257,32,33
 171 410 171 410 126 387 c 0,34,35
 82 364 82 364 82 348 c 0,36,37
 82 333 82 333 87 320 c 0,38,39
 93 307 93 307 93 307 c 1,16,17
102 184 m 1,40,41
 102 184 102 184 123 184 c 0,42,43
 143 184 143 184 143 184 c 257,44,45
 143 184 143 184 143 195 c 0,46,47
 143 205 143 205 143 205 c 2,48,49
 143 251 143 251 133 269 c 256,50,51
 123 287 123 287 123 287 c 257,52,53
 123 287 123 287 156 277 c 0,54,55
 190 266 190 266 234 257 c 0,56,57
 257 252 257 252 282 249 c 0,58,59
 306 246 306 246 328 246 c 0,60,61
 343 246 343 246 343 256 c 256,62,63
 343 266 343 266 328 266 c 0,64,65
 315 266 315 266 293 268 c 0,66,67
 270 271 270 271 245 274 c 0,68,69
 208 278 208 278 176 283 c 0,70,71
 143 287 143 287 143 287 c 1,72,73
 159 287 159 287 181 291 c 0,74,75
 203 296 203 296 225 307 c 1,76,77
 225 307 225 307 225 310 c 0,78,79
 225 312 225 312 225 328 c 1,80,81
 225 328 225 328 199 317 c 0,82,83
 174 307 174 307 143 307 c 0,84,85
 128 307 128 307 115 312 c 256,86,87
 102 317 102 317 102 348 c 1,88,89
 102 348 102 348 121 361 c 0,90,91
 140 375 140 375 164 388 c 0,92,93
 180 397 180 397 197 403 c 0,94,95
 213 410 213 410 225 410 c 0,96,97
 250 410 250 410 286 395 c 0,98,99
 323 381 323 381 339 373 c 0,100,101
 343 371 343 371 346 370 c 0,102,103
 348 369 348 369 348 369 c 257,104,105
 348 369 348 369 353 398 c 0,106,107
 359 427 359 427 366 464 c 0,108,109
 374 510 374 510 381 552 c 0,110,111
 389 594 389 594 389 594 c 2,112,113
 389 609 389 609 430 607 c 0,114,115
 471 604 471 604 471 573 c 0,116,117
 471 564 471 564 462 514 c 0,118,119
 453 463 453 463 444 404 c 0,120,121
 439 365 439 365 434 328 c 0,122,123
 430 291 430 291 430 266 c 0,124,125
 430 254 430 254 424 225 c 0,126,127
 417 196 417 196 408 161 c 0,128,129
 395 109 395 109 382 59 c 256,130,131
 369 9 369 9 369 0 c 0,132,133
 369 -20 369 -20 369 -61 c 1,134,135
 349 -61 349 -61 300 -61 c 256,136,137
 251 -61 251 -61 195 -61 c 0,138,139
 165 -61 165 -61 136 -61 c 256,140,141
 107 -61 107 -61 82 -61 c 1,142,143
 82 -46 82 -46 82 -31 c 0,144,145
 82 -15 82 -15 82 0 c 1,146,147
 82 0 82 0 74 19 c 0,148,149
 66 37 66 37 56 63 c 0,150,151
 43 93 43 93 32 124 c 0,152,153
 20 155 20 155 20 164 c 0,154,155
 20 179 20 179 41 218 c 0,156,157
 61 256 61 256 61 287 c 1,158,159
 62 287 62 287 80 287 c 0,160,161
 99 287 99 287 102 287 c 0,162,163
 127 237 127 237 122 219 c 0,164,165
 118 200 118 200 102 184 c 1,40,41
EndSplineSet
EndChar

StartChar: u
Encoding: 117 117 64
Width: 656
GlyphClass: 1
Flags: W
LayerCount: 2
Fore
SplineSet
307 0 m 0,0,1
 307 7 307 7 270 32 c 256,2,3
 233 57 233 57 185 87 c 0,4,5
 127 123 127 123 74 153 c 0,6,7
 20 184 20 184 20 184 c 1,8,9
 20 201 20 201 28 224 c 0,10,11
 36 246 36 246 82 246 c 0,12,13
 91 246 91 246 114 233 c 0,14,15
 137 219 137 219 163 206 c 0,16,17
 180 197 180 197 197 191 c 0,18,19
 213 184 213 184 225 184 c 0,20,21
 241 184 241 184 241 192 c 256,22,23
 241 200 241 200 246 205 c 1,24,25
 246 205 246 205 246 225 c 0,26,27
 246 246 246 246 246 246 c 1,28,29
 287 246 287 246 319 246 c 256,30,31
 351 246 351 246 377 246 c 0,32,33
 425 246 425 246 463 246 c 256,34,35
 501 246 501 246 553 246 c 0,36,37
 568 246 568 246 568 256 c 256,38,39
 568 266 568 266 553 266 c 0,40,41
 546 266 546 266 505 266 c 256,42,43
 464 266 464 266 414 266 c 0,44,45
 353 266 353 266 299 266 c 0,46,47
 246 266 246 266 246 266 c 1,48,49
 246 285 246 285 246 325 c 0,50,51
 245 366 245 366 245 414 c 0,52,53
 245 486 245 486 245 554 c 256,54,55
 245 622 245 622 246 635 c 0,56,57
 246 666 246 666 287 666 c 256,58,59
 328 666 328 666 328 635 c 2,60,61
 328 635 328 635 328 589 c 0,62,63
 327 542 327 542 327 490 c 0,64,65
 327 446 327 446 327 411 c 0,66,67
 327 375 327 375 328 369 c 0,68,69
 328 353 328 353 338 353 c 256,70,71
 348 353 348 353 348 369 c 0,72,73
 348 379 348 379 348 430 c 256,74,75
 348 481 348 481 348 540 c 0,76,77
 348 572 348 572 348 602 c 256,78,79
 348 632 348 632 348 655 c 0,80,81
 348 686 348 686 389 686 c 256,82,83
 430 686 430 686 430 655 c 0,84,85
 430 648 430 648 429 611 c 0,86,87
 429 575 429 575 428 529 c 0,88,89
 428 474 428 474 428 424 c 256,90,91
 428 374 428 374 430 369 c 0,92,93
 430 353 430 353 440 353 c 0,94,95
 451 353 451 353 451 369 c 2,96,97
 451 369 451 369 451 406 c 256,98,99
 451 443 451 443 451 491 c 0,100,101
 451 549 451 549 451 602 c 256,102,103
 451 655 451 655 451 655 c 2,104,105
 451 686 451 686 492 686 c 0,106,107
 532 686 532 686 532 655 c 0,108,109
 532 645 532 645 532 593 c 0,110,111
 532 540 532 540 532 481 c 0,112,113
 532 449 532 449 532 420 c 0,114,115
 532 390 532 390 532 369 c 0,116,117
 532 353 532 353 543 353 c 0,118,119
 553 353 553 353 553 369 c 1,120,121
 553 360 553 360 553 409 c 256,122,123
 553 458 553 458 553 515 c 0,124,125
 553 561 553 561 553 598 c 256,126,127
 553 635 553 635 553 635 c 2,128,129
 553 666 553 666 594 666 c 256,130,131
 635 666 635 666 635 635 c 0,132,133
 635 589 635 589 635 458 c 0,134,135
 635 328 635 328 635 82 c 0,136,137
 635 67 635 67 614 41 c 0,138,139
 594 15 594 15 594 0 c 0,140,141
 594 -20 594 -20 594 -61 c 1,142,143
 498 -61 498 -61 307 -61 c 1,144,145
 307 -46 307 -46 307 -31 c 0,146,147
 307 -15 307 -15 307 0 c 0,0,1
EndSplineSet
EndChar

StartChar: v
Encoding: 118 118 65
Width: 492
GlyphClass: 1
Flags: W
LayerCount: 2
Fore
SplineSet
287 389 m 2,0,1
 287 420 287 420 328 420 c 256,2,3
 369 420 369 420 369 389 c 0,4,5
 369 374 369 374 379 374 c 256,6,7
 389 374 389 374 389 389 c 256,8,9
 389 404 389 404 430 402 c 0,10,11
 471 399 471 399 471 369 c 0,12,13
 471 343 471 343 471 332 c 0,14,15
 471 322 471 322 471 266 c 0,16,17
 471 236 471 236 430 236 c 256,18,19
 389 236 389 236 389 266 c 2,20,21
 389 266 389 266 389 287 c 0,22,23
 389 307 389 307 389 307 c 2,24,25
 389 323 389 323 379 323 c 256,26,27
 369 323 369 323 369 307 c 2,28,29
 369 307 369 307 369 284 c 256,30,31
 369 261 369 261 369 246 c 0,32,33
 369 232 369 232 358 229 c 0,34,35
 348 225 348 225 348 225 c 1,36,37
 348 256 348 256 325 271 c 0,38,39
 302 287 302 287 287 287 c 1,40,41
 287 287 287 287 287 300 c 256,42,43
 287 313 287 313 287 330 c 0,44,45
 287 351 287 351 287 370 c 256,46,47
 287 389 287 389 287 389 c 2,0,1
430 -61 m 1,48,49
 335 -61 335 -61 143 -61 c 1,50,51
 143 -41 143 -41 143 0 c 0,52,53
 143 9 143 9 126 23 c 0,54,55
 108 38 108 38 90 55 c 0,56,57
 78 66 78 66 70 78 c 0,58,59
 61 90 61 90 61 102 c 0,60,61
 61 118 61 118 61 156 c 0,62,63
 61 195 61 195 61 225 c 0,64,65
 61 241 61 241 64 253 c 0,66,67
 67 266 67 266 82 266 c 0,68,69
 150 266 150 266 287 266 c 0,70,71
 298 266 298 266 307 263 c 0,72,73
 316 259 316 259 321 253 c 0,74,75
 339 236 339 236 330 210 c 256,76,77
 321 184 321 184 287 184 c 0,78,79
 286 184 286 184 263 184 c 0,80,81
 241 184 241 184 225 184 c 0,82,83
 195 184 195 184 179 177 c 0,84,85
 164 169 164 169 164 123 c 0,86,87
 164 108 164 108 174 108 c 256,88,89
 184 108 184 108 184 123 c 0,90,91
 184 154 184 154 189 159 c 0,92,93
 195 164 195 164 225 164 c 0,94,95
 246 164 246 164 287 164 c 0,96,97
 298 164 298 164 307 169 c 256,98,99
 316 174 316 174 324 181 c 0,100,101
 340 195 340 195 354 210 c 0,102,103
 369 225 369 225 389 225 c 0,104,105
 412 225 412 225 424 225 c 0,106,107
 435 225 435 225 451 225 c 1,108,109
 451 225 451 225 461 228 c 0,110,111
 471 230 471 230 471 246 c 1,112,113
 471 200 471 200 471 148 c 0,114,115
 471 97 471 97 471 82 c 256,116,117
 471 67 471 67 451 41 c 0,118,119
 430 15 430 15 430 0 c 256,120,121
 430 -15 430 -15 430 -31 c 256,122,123
 430 -47 430 -47 430 -61 c 1,48,49
287 430 m 1,124,125
 271 430 271 430 269 410 c 0,126,127
 266 389 266 389 266 389 c 257,128,129
 266 389 266 389 266 376 c 256,130,131
 266 363 266 363 266 346 c 0,132,133
 266 325 266 325 266 306 c 256,134,135
 266 287 266 287 266 287 c 1,136,137
 205 287 205 287 82 287 c 1,138,139
 82 287 82 287 74 329 c 256,140,141
 66 371 66 371 56 426 c 0,142,143
 47 470 47 470 39 513 c 256,144,145
 31 556 31 556 26 583 c 0,146,147
 24 597 24 597 22 606 c 0,148,149
 20 614 20 614 20 614 c 1,150,151
 20 645 20 645 61 648 c 0,152,153
 102 650 102 650 102 635 c 2,154,155
 102 635 102 635 110 603 c 0,156,157
 118 572 118 572 129 530 c 0,158,159
 141 480 141 480 152 435 c 0,160,161
 164 389 164 389 164 389 c 2,162,163
 164 374 164 374 174 374 c 256,164,165
 184 374 184 374 184 389 c 2,166,167
 184 389 184 389 192 424 c 0,168,169
 200 458 200 458 210 502 c 0,170,171
 223 557 223 557 234 606 c 0,172,173
 246 655 246 655 246 655 c 2,174,175
 246 669 246 669 276 669 c 0,176,177
 281 669 281 669 287 668 c 0,178,179
 328 666 328 666 328 635 c 1,180,181
 328 635 328 635 322 609 c 0,182,183
 317 582 317 582 310 548 c 0,184,185
 302 506 302 506 294 468 c 0,186,187
 287 430 287 430 287 430 c 1,124,125
EndSplineSet
EndChar

StartChar: w
Encoding: 119 119 66
Width: 492
GlyphClass: 1
Flags: W
LayerCount: 2
Fore
SplineSet
389 389 m 2,0,1
 389 404 389 404 430 402 c 0,2,3
 471 399 471 399 471 369 c 0,4,5
 471 343 471 343 471 332 c 0,6,7
 471 322 471 322 471 266 c 0,8,9
 471 236 471 236 430 236 c 256,10,11
 389 236 389 236 389 266 c 0,12,13
 389 282 389 282 389 335 c 0,14,15
 389 389 389 389 389 389 c 2,0,1
430 -61 m 1,16,17
 335 -61 335 -61 143 -61 c 1,18,19
 143 -41 143 -41 143 0 c 0,20,21
 143 9 143 9 126 23 c 0,22,23
 108 38 108 38 90 55 c 0,24,25
 78 66 78 66 70 78 c 0,26,27
 61 90 61 90 61 102 c 0,28,29
 61 118 61 118 61 156 c 0,30,31
 61 195 61 195 61 225 c 0,32,33
 61 241 61 241 64 253 c 0,34,35
 67 266 67 266 82 266 c 0,36,37
 150 266 150 266 287 266 c 0,38,39
 298 266 298 266 307 263 c 0,40,41
 316 259 316 259 321 253 c 0,42,43
 339 236 339 236 330 210 c 256,44,45
 321 184 321 184 287 184 c 0,46,47
 286 184 286 184 263 184 c 0,48,49
 241 184 241 184 225 184 c 0,50,51
 195 184 195 184 179 177 c 0,52,53
 164 169 164 169 164 123 c 0,54,55
 164 108 164 108 174 108 c 256,56,57
 184 108 184 108 184 123 c 0,58,59
 184 154 184 154 189 159 c 0,60,61
 195 164 195 164 225 164 c 0,62,63
 246 164 246 164 287 164 c 0,64,65
 309 164 309 164 329 187 c 0,66,67
 348 210 348 210 348 225 c 1,68,69
 355 230 355 230 349 248 c 256,70,71
 343 266 343 266 328 266 c 1,72,73
 343 266 343 266 348 266 c 256,74,75
 353 266 353 266 369 266 c 1,76,77
 369 244 369 244 381 235 c 0,78,79
 394 225 394 225 409 225 c 2,80,81
 409 225 409 225 410 225 c 1,82,83
 410 225 410 225 410 225 c 257,84,85
 410 225 410 225 430 225 c 0,86,87
 451 225 451 225 451 225 c 257,88,89
 451 225 451 225 461 228 c 0,90,91
 471 230 471 230 471 246 c 1,92,93
 471 200 471 200 471 148 c 0,94,95
 471 97 471 97 471 82 c 256,96,97
 471 67 471 67 451 41 c 0,98,99
 430 15 430 15 430 0 c 256,100,101
 430 -15 430 -15 430 -31 c 256,102,103
 430 -47 430 -47 430 -61 c 1,16,17
369 389 m 1,104,105
 369 389 369 389 369 376 c 256,106,107
 369 363 369 363 369 346 c 0,108,109
 369 325 369 325 369 306 c 256,110,111
 369 287 369 287 369 287 c 1,112,113
 273 287 273 287 82 287 c 1,114,115
 82 287 82 287 80 296 c 0,116,117
 79 305 79 305 76 321 c 0,118,119
 71 349 71 349 63 395 c 256,120,121
 55 441 55 441 46 487 c 0,122,123
 36 545 36 545 28 590 c 256,124,125
 20 635 20 635 20 635 c 1,126,127
 20 666 20 666 61 668 c 0,128,129
 102 671 102 671 102 655 c 2,130,131
 102 655 102 655 110 621 c 0,132,133
 118 586 118 586 129 542 c 0,134,135
 141 488 141 488 152 438 c 0,136,137
 164 389 164 389 164 389 c 2,138,139
 164 374 164 374 174 374 c 256,140,141
 184 374 184 374 184 389 c 2,142,143
 184 389 184 389 184 423 c 0,144,145
 184 458 184 458 184 502 c 0,146,147
 184 557 184 557 184 606 c 256,148,149
 184 655 184 655 184 655 c 2,150,151
 184 686 184 686 225 686 c 256,152,153
 266 686 266 686 266 655 c 2,154,155
 266 655 266 655 266 621 c 256,156,157
 266 587 266 587 266 542 c 0,158,159
 266 488 266 488 266 438 c 0,160,161
 266 389 266 389 266 389 c 2,162,163
 266 374 266 374 276 374 c 0,164,165
 287 374 287 374 287 389 c 2,166,167
 287 389 287 389 295 424 c 0,168,169
 303 458 303 458 313 502 c 0,170,171
 325 557 325 557 337 606 c 0,172,173
 348 655 348 655 348 655 c 2,174,175
 348 671 348 671 389 668 c 0,176,177
 430 666 430 666 430 635 c 1,178,179
 430 635 430 635 422 603 c 0,180,181
 414 572 414 572 404 530 c 0,182,183
 391 480 391 480 380 435 c 0,184,185
 368 389 368 389 369 389 c 1,104,105
EndSplineSet
EndChar

StartChar: x
Encoding: 120 120 67
Width: 451
GlyphClass: 1
Flags: W
LayerCount: 2
Fore
SplineSet
246 389 m 2,0,1
 246 420 246 420 287 420 c 256,2,3
 328 420 328 420 328 389 c 0,4,5
 328 374 328 374 338 374 c 256,6,7
 348 374 348 374 348 389 c 256,8,9
 348 404 348 404 389 402 c 0,10,11
 430 399 430 399 430 369 c 0,12,13
 430 343 430 343 430 332 c 0,14,15
 430 322 430 322 430 266 c 0,16,17
 430 236 430 236 389 236 c 256,18,19
 348 236 348 236 348 266 c 2,20,21
 348 266 348 266 348 287 c 0,22,23
 348 307 348 307 348 307 c 2,24,25
 348 323 348 323 338 323 c 256,26,27
 328 323 328 323 328 307 c 2,28,29
 328 307 328 307 328 284 c 256,30,31
 328 261 328 261 328 246 c 0,32,33
 328 232 328 232 317 229 c 0,34,35
 307 225 307 225 307 225 c 1,36,37
 307 256 307 256 284 271 c 0,38,39
 261 287 261 287 246 287 c 1,40,41
 246 287 246 287 246 300 c 256,42,43
 246 313 246 313 246 330 c 0,44,45
 246 351 246 351 246 370 c 256,46,47
 246 389 246 389 246 389 c 2,0,1
389 -61 m 1,48,49
 294 -61 294 -61 102 -61 c 1,50,51
 102 -41 102 -41 102 0 c 0,52,53
 102 9 102 9 85 23 c 0,54,55
 67 38 67 38 49 55 c 0,56,57
 37 66 37 66 29 78 c 0,58,59
 20 90 20 90 20 102 c 0,60,61
 20 118 20 118 20 156 c 0,62,63
 20 195 20 195 20 225 c 0,64,65
 20 241 20 241 23 253 c 0,66,67
 26 266 26 266 41 266 c 0,68,69
 109 266 109 266 246 266 c 0,70,71
 257 266 257 266 266 263 c 0,72,73
 275 259 275 259 280 253 c 0,74,75
 298 236 298 236 289 210 c 256,76,77
 280 184 280 184 246 184 c 0,78,79
 245 184 245 184 223 184 c 0,80,81
 200 184 200 184 184 184 c 0,82,83
 154 184 154 184 138 177 c 0,84,85
 123 169 123 169 123 123 c 0,86,87
 123 108 123 108 133 108 c 256,88,89
 143 108 143 108 143 123 c 0,90,91
 143 154 143 154 148 159 c 0,92,93
 154 164 154 164 184 164 c 0,94,95
 205 164 205 164 246 164 c 0,96,97
 266 164 266 164 280 179 c 0,98,99
 295 194 295 194 311 208 c 0,100,101
 319 215 319 215 328 220 c 256,102,103
 337 225 337 225 348 225 c 0,104,105
 371 225 371 225 383 225 c 0,106,107
 394 225 394 225 410 225 c 1,108,109
 410 225 410 225 420 228 c 0,110,111
 430 230 430 230 430 246 c 1,112,113
 430 200 430 200 430 148 c 0,114,115
 430 97 430 97 430 82 c 256,116,117
 430 67 430 67 410 41 c 0,118,119
 389 15 389 15 389 0 c 256,120,121
 389 -15 389 -15 389 -31 c 256,122,123
 389 -47 389 -47 389 -61 c 1,48,49
225 389 m 257,124,125
 225 389 225 389 225 376 c 256,126,127
 225 363 225 363 225 346 c 0,128,129
 225 325 225 325 225 306 c 256,130,131
 225 287 225 287 225 287 c 1,132,133
 164 287 164 287 41 287 c 1,134,135
 41 287 41 287 41 317 c 0,136,137
 41 348 41 348 41 369 c 0,138,139
 41 393 41 393 54 430 c 256,140,141
 67 467 67 467 84 505 c 0,142,143
 111 563 111 563 137 609 c 0,144,145
 164 655 164 655 164 655 c 1,146,147
 164 669 164 669 194 669 c 0,148,149
 199 669 199 669 205 668 c 0,150,151
 246 666 246 666 246 635 c 1,152,153
 246 635 246 635 230 603 c 256,154,155
 214 571 214 571 194 530 c 0,156,157
 168 480 168 480 146 435 c 0,158,159
 123 389 123 389 123 389 c 1,160,161
 123 374 123 374 133 374 c 256,162,163
 143 374 143 374 143 389 c 1,164,165
 143 389 143 389 151 405 c 256,166,167
 159 421 159 421 169 441 c 0,168,169
 182 466 182 466 193 489 c 0,170,171
 205 512 205 512 205 512 c 257,172,173
 205 512 205 512 209 489 c 0,174,175
 212 466 212 466 216 441 c 0,176,177
 220 421 220 421 222 405 c 0,178,179
 225 389 225 389 225 389 c 257,124,125
143 655 m 1,180,181
 143 655 143 655 135 640 c 0,182,183
 128 624 128 624 117 603 c 0,184,185
 105 578 105 578 93 555 c 0,186,187
 82 532 82 532 82 532 c 257,188,189
 82 532 82 532 79 546 c 0,190,191
 77 559 77 559 73 576 c 0,192,193
 69 597 69 597 65 616 c 256,194,195
 61 635 61 635 61 635 c 1,196,197
 61 666 61 666 102 668 c 0,198,199
 143 671 143 671 143 655 c 1,180,181
EndSplineSet
EndChar

StartChar: y
Encoding: 121 121 68
Width: 717
GlyphClass: 1
Flags: W
LayerCount: 2
Fore
SplineSet
594 -61 m 1,0,1
 498 -61 498 -61 307 -61 c 1,2,3
 307 -41 307 -41 307 0 c 0,4,5
 307 7 307 7 270 35 c 256,6,7
 233 63 233 63 185 95 c 0,8,9
 127 136 127 136 74 170 c 0,10,11
 20 205 20 205 20 205 c 1,12,13
 20 220 20 220 28 243 c 256,14,15
 36 266 36 266 82 266 c 0,16,17
 88 266 88 266 101 260 c 0,18,19
 114 253 114 253 130 245 c 0,20,21
 154 231 154 231 180 218 c 0,22,23
 207 205 207 205 225 205 c 0,24,25
 261 205 261 205 290 205 c 0,26,27
 318 205 318 205 342 205 c 0,28,29
 387 205 387 205 425 205 c 0,30,31
 462 205 462 205 512 205 c 0,32,33
 543 205 543 205 548 225 c 0,34,35
 553 246 553 246 553 246 c 1,36,37
 553 282 553 282 553 328 c 256,38,39
 553 374 553 374 553 389 c 2,40,41
 553 389 553 389 561 418 c 0,42,43
 569 448 569 448 579 485 c 0,44,45
 592 531 592 531 603 573 c 0,46,47
 614 614 614 614 614 614 c 2,48,49
 614 627 614 627 643 627 c 0,50,51
 648 627 648 627 655 627 c 0,52,53
 695 624 695 624 696 594 c 1,54,55
 696 594 696 594 683 553 c 0,56,57
 670 511 670 511 657 461 c 0,58,59
 648 428 648 428 641 397 c 0,60,61
 635 367 635 367 635 348 c 0,62,63
 635 327 635 327 635 299 c 0,64,65
 635 272 635 272 635 243 c 0,66,67
 635 190 635 190 635 147 c 256,68,69
 635 104 635 104 635 102 c 0,70,71
 635 87 635 87 614 51 c 0,72,73
 594 15 594 15 594 0 c 256,74,75
 594 -15 594 -15 594 -31 c 256,76,77
 594 -47 594 -47 594 -61 c 1,0,1
430 389 m 0,78,79
 430 374 430 374 440 374 c 0,80,81
 451 374 451 374 451 389 c 0,82,83
 451 420 451 420 492 420 c 0,84,85
 532 420 532 420 532 389 c 2,86,87
 532 389 532 389 532 368 c 256,88,89
 532 347 532 347 532 321 c 0,90,91
 532 290 532 290 532 263 c 0,92,93
 532 237 532 237 532 246 c 1,94,95
 532 215 532 215 492 215 c 0,96,97
 451 215 451 215 451 246 c 2,98,99
 451 246 451 246 451 276 c 0,100,101
 451 307 451 307 451 307 c 2,102,103
 451 322 451 322 441 323 c 0,104,105
 431 323 431 323 430 309 c 0,106,107
 430 308 430 308 430 308 c 257,108,109
 430 308 430 308 430 307 c 2,110,111
 430 307 430 307 430 276 c 0,112,113
 430 246 430 246 430 246 c 2,114,115
 430 215 430 215 389 215 c 256,116,117
 348 215 348 215 348 246 c 2,118,119
 348 246 348 246 348 276 c 0,120,121
 348 307 348 307 348 307 c 2,122,123
 348 323 348 323 338 323 c 256,124,125
 328 323 328 323 328 307 c 2,126,127
 328 307 328 307 328 276 c 0,128,129
 328 246 328 246 328 246 c 2,130,131
 328 215 328 215 287 215 c 256,132,133
 246 215 246 215 246 246 c 2,134,135
 246 246 246 246 246 263 c 256,136,137
 246 280 246 280 246 303 c 0,138,139
 246 331 246 331 246 358 c 256,140,141
 246 385 246 385 246 389 c 0,142,143
 246 420 246 420 287 420 c 256,144,145
 328 420 328 420 328 389 c 0,146,147
 328 374 328 374 338 374 c 256,148,149
 348 374 348 374 348 389 c 0,150,151
 348 420 348 420 389 420 c 256,152,153
 430 420 430 420 430 389 c 0,78,79
EndSplineSet
EndChar

StartChar: z
Encoding: 122 122 69
Width: 778
GlyphClass: 1
Flags: W
LayerCount: 2
Fore
SplineSet
748 41 m 1,0,1
 734 41 734 41 717 41 c 0,2,3
 701 41 701 41 686 41 c 256,4,5
 671 41 671 41 635 20 c 0,6,7
 599 0 599 0 584 0 c 0,8,9
 522 0 522 0 471 0 c 256,10,11
 420 0 420 0 420 0 c 2,12,13
 395 0 395 0 350 0 c 256,14,15
 305 0 305 0 255 0 c 0,16,17
 179 0 179 0 115 0 c 256,18,19
 51 0 51 0 51 0 c 2,20,21
 28 0 28 0 24 41 c 256,22,23
 20 82 20 82 51 82 c 2,24,25
 51 82 51 82 83 82 c 256,26,27
 115 82 115 82 156 82 c 0,28,29
 206 82 206 82 252 82 c 0,30,31
 297 82 297 82 297 82 c 257,32,33
 297 82 297 82 297 82 c 257,34,35
 297 82 297 82 297 82 c 1,36,37
 312 82 312 82 312 92 c 256,38,39
 312 102 312 102 297 102 c 0,40,41
 266 102 266 102 266 143 c 256,42,43
 266 184 266 184 297 184 c 0,44,45
 312 184 312 184 312 195 c 0,46,47
 312 205 312 205 297 205 c 0,48,49
 266 205 266 205 266 246 c 256,50,51
 266 287 266 287 297 287 c 0,52,53
 312 287 312 287 312 297 c 256,54,55
 312 307 312 307 297 307 c 0,56,57
 290 307 290 307 257 307 c 0,58,59
 223 307 223 307 184 307 c 0,60,61
 135 307 135 307 93 307 c 256,62,63
 51 307 51 307 51 307 c 2,64,65
 20 307 20 307 20 348 c 256,66,67
 20 389 20 389 51 389 c 2,68,69
 51 389 51 389 96 389 c 0,70,71
 142 389 142 389 201 389 c 0,72,73
 248 389 248 389 296 389 c 0,74,75
 343 389 343 389 376 389 c 0,76,77
 394 389 394 389 405 389 c 0,78,79
 417 389 417 389 420 389 c 1,80,81
 420 404 420 404 433 407 c 0,82,83
 445 410 445 410 461 410 c 0,84,85
 492 410 492 410 522 410 c 0,86,87
 553 410 553 410 584 410 c 0,88,89
 596 410 596 410 608 401 c 0,90,91
 620 393 620 393 632 381 c 0,92,93
 648 363 648 363 663 345 c 0,94,95
 677 328 677 328 686 328 c 0,96,97
 707 328 707 328 748 328 c 1,98,99
 748 252 748 252 748 182 c 0,100,101
 748 113 748 113 748 41 c 1,0,1
EndSplineSet
EndChar

StartChar: dieresis
Encoding: 168 168 70
Width: 246
GlyphClass: 1
Flags: W
LayerCount: 2
Fore
SplineSet
61 676 m 0,0,1
 92 676 92 676 97 655 c 0,2,3
 102 635 102 635 102 635 c 257,4,5
 102 635 102 635 97 614 c 0,6,7
 92 594 92 594 61 594 c 0,8,9
 31 594 31 594 26 614 c 0,10,11
 20 635 20 635 20 635 c 257,12,13
 20 635 20 635 26 655 c 0,14,15
 31 676 31 676 61 676 c 0,0,1
184 676 m 0,16,17
 215 676 215 676 220 655 c 0,18,19
 225 635 225 635 225 635 c 257,20,21
 225 635 225 635 220 614 c 0,22,23
 215 594 215 594 184 594 c 0,24,25
 154 594 154 594 148 614 c 0,26,27
 143 635 143 635 143 635 c 257,28,29
 143 635 143 635 148 655 c 0,30,31
 154 676 154 676 184 676 c 0,16,17
EndSplineSet
EndChar

